%TF.GenerationSoftware,KiCad,Pcbnew,10.0.3*%
%TF.CreationDate,2026-10-07T18:49:47+02:00*%
%TF.ProjectId,fuji-mini-v2,66756a69-2d6d-4696-9e69-2d76322e6b69,rev?*%
%TF.SameCoordinates,Original*%
%TF.FileFunction,Legend,Bot*%
%TF.FilePolarity,Positive*%
%FSLAX46Y46*%
G04 Gerber Fmt 4.6, Leading zero omitted, Abs format (unit mm)*
G04 Created by KiCad (PCBNEW 10.0.3) date 2026-10-07 18:49:47*
%MOMM*%
%LPD*%
G01*
G04 APERTURE LIST*
%ADD10C,0.150000*%
%ADD11C,0.120000*%
G04 APERTURE END LIST*
D10*
X75576009Y-69699285D02*
X75623628Y-69842142D01*
X75623628Y-69842142D02*
X75671247Y-69889761D01*
X75671247Y-69889761D02*
X75766485Y-69937380D01*
X75766485Y-69937380D02*
X75909342Y-69937380D01*
X75909342Y-69937380D02*
X76004580Y-69889761D01*
X76004580Y-69889761D02*
X76052200Y-69842142D01*
X76052200Y-69842142D02*
X76099819Y-69746904D01*
X76099819Y-69746904D02*
X76099819Y-69365952D01*
X76099819Y-69365952D02*
X75099819Y-69365952D01*
X75099819Y-69365952D02*
X75099819Y-69699285D01*
X75099819Y-69699285D02*
X75147438Y-69794523D01*
X75147438Y-69794523D02*
X75195057Y-69842142D01*
X75195057Y-69842142D02*
X75290295Y-69889761D01*
X75290295Y-69889761D02*
X75385533Y-69889761D01*
X75385533Y-69889761D02*
X75480771Y-69842142D01*
X75480771Y-69842142D02*
X75528390Y-69794523D01*
X75528390Y-69794523D02*
X75576009Y-69699285D01*
X75576009Y-69699285D02*
X75576009Y-69365952D01*
X75099819Y-70223095D02*
X75099819Y-70794523D01*
X76099819Y-70508809D02*
X75099819Y-70508809D01*
X76099819Y-71651666D02*
X76099819Y-71080238D01*
X76099819Y-71365952D02*
X75099819Y-71365952D01*
X75099819Y-71365952D02*
X75242676Y-71270714D01*
X75242676Y-71270714D02*
X75337914Y-71175476D01*
X75337914Y-71175476D02*
X75385533Y-71080238D01*
%TO.C,BT1*%
D11*
X76735000Y-67425000D02*
X84555000Y-67425000D01*
X76735000Y-68345000D02*
X76735000Y-67425000D01*
X76735000Y-72625000D02*
X78335000Y-72625000D01*
X76735000Y-73545000D02*
X76735000Y-72625000D01*
X78335000Y-67425000D02*
X78335000Y-68345000D01*
X78335000Y-68345000D02*
X76735000Y-68345000D01*
X78335000Y-68625000D02*
X77120000Y-68625000D01*
X78335000Y-68625000D02*
X78335000Y-68345000D01*
X78335000Y-72625000D02*
X78335000Y-72345000D01*
X78335000Y-73545000D02*
X78335000Y-72625000D01*
X80195000Y-69985000D02*
X80195000Y-70985000D01*
X80195000Y-70985000D02*
X84555000Y-70985000D01*
X82295000Y-68685000D02*
X84555000Y-68685000D01*
X82295000Y-69185000D02*
X84555000Y-69185000D01*
X84555000Y-67425000D02*
X84555000Y-73545000D01*
X84555000Y-69985000D02*
X80195000Y-69985000D01*
X84555000Y-73545000D02*
X76735000Y-73545000D01*
X80695000Y-68185000D02*
X82295000Y-68185000D01*
X82295000Y-69185000D01*
X80695000Y-69185000D01*
X80695000Y-68185000D01*
X80695000Y-71785000D02*
X82295000Y-71785000D01*
X82295000Y-72785000D01*
X80695000Y-72785000D01*
X80695000Y-71785000D01*
%TD*%
M02*
