%TF.GenerationSoftware,KiCad,Pcbnew,10.0.3*%
%TF.CreationDate,2026-10-10T10:30:22+02:00*%
%TF.ProjectId,fuji-mini-v2,66756a69-2d6d-4696-9e69-2d76322e6b69,rev?*%
%TF.SameCoordinates,Original*%
%TF.FileFunction,Copper,L2,Bot*%
%TF.FilePolarity,Positive*%
%FSLAX46Y46*%
G04 Gerber Fmt 4.6, Leading zero omitted, Abs format (unit mm)*
G04 Created by KiCad (PCBNEW 10.0.3) date 2026-10-10 10:30:22*
%MOMM*%
%LPD*%
G01*
G04 APERTURE LIST*
G04 Aperture macros list*
%AMRoundRect*
0 Rectangle with rounded corners*
0 $1 Rounding radius*
0 $2 $3 $4 $5 $6 $7 $8 $9 X,Y pos of 4 corners*
0 Add a 4 corners polygon primitive as box body*
4,1,4,$2,$3,$4,$5,$6,$7,$8,$9,$2,$3,0*
0 Add four circle primitives for the rounded corners*
1,1,$1+$1,$2,$3*
1,1,$1+$1,$4,$5*
1,1,$1+$1,$6,$7*
1,1,$1+$1,$8,$9*
0 Add four rect primitives between the rounded corners*
20,1,$1+$1,$2,$3,$4,$5,0*
20,1,$1+$1,$4,$5,$6,$7,0*
20,1,$1+$1,$6,$7,$8,$9,0*
20,1,$1+$1,$8,$9,$2,$3,0*%
G04 Aperture macros list end*
%TA.AperFunction,ComponentPad*%
%ADD10C,2.000000*%
%TD*%
%TA.AperFunction,ComponentPad*%
%ADD11C,1.800000*%
%TD*%
%TA.AperFunction,ComponentPad*%
%ADD12R,1.800000X1.800000*%
%TD*%
%TA.AperFunction,ComponentPad*%
%ADD13R,2.000000X3.200000*%
%TD*%
%TA.AperFunction,ComponentPad*%
%ADD14R,2.000000X2.000000*%
%TD*%
%TA.AperFunction,ComponentPad*%
%ADD15RoundRect,0.250000X-0.550000X-0.550000X0.550000X-0.550000X0.550000X0.550000X-0.550000X0.550000X0*%
%TD*%
%TA.AperFunction,ComponentPad*%
%ADD16C,1.600000*%
%TD*%
%TA.AperFunction,HeatsinkPad*%
%ADD17C,0.600000*%
%TD*%
%TA.AperFunction,ComponentPad*%
%ADD18O,1.000000X2.100000*%
%TD*%
%TA.AperFunction,ComponentPad*%
%ADD19O,1.000000X1.600000*%
%TD*%
%TA.AperFunction,ComponentPad*%
%ADD20O,2.800000X1.800000*%
%TD*%
%TA.AperFunction,ComponentPad*%
%ADD21RoundRect,0.170000X0.680000X-0.680000X0.680000X0.680000X-0.680000X0.680000X-0.680000X-0.680000X0*%
%TD*%
%TA.AperFunction,ComponentPad*%
%ADD22C,1.700000*%
%TD*%
%TA.AperFunction,ComponentPad*%
%ADD23RoundRect,0.250000X-0.625000X0.350000X-0.625000X-0.350000X0.625000X-0.350000X0.625000X0.350000X0*%
%TD*%
%TA.AperFunction,ComponentPad*%
%ADD24O,1.750000X1.200000*%
%TD*%
%TA.AperFunction,ViaPad*%
%ADD25C,0.600000*%
%TD*%
%TA.AperFunction,Conductor*%
%ADD26C,0.200000*%
%TD*%
G04 APERTURE END LIST*
D10*
%TO.P,SW1,2,2_2*%
%TO.N,Net-(U1-EN)*%
X97865000Y-128615000D03*
X91365000Y-128615000D03*
%TO.P,SW1,1,1_1*%
%TO.N,GND*%
X97865000Y-124115000D03*
X91365000Y-124115000D03*
%TD*%
%TO.P,SW2,2,2_2*%
%TO.N,Net-(U1-IO0)*%
X97865000Y-139410000D03*
X91365000Y-139410000D03*
%TO.P,SW2,1,1_1*%
%TO.N,GND*%
X97865000Y-134910000D03*
X91365000Y-134910000D03*
%TD*%
%TO.P,SW3,1,1_1*%
%TO.N,GND*%
X79860000Y-94560000D03*
X86360000Y-94560000D03*
%TO.P,SW3,2,2_2*%
%TO.N,BTN_PLAY*%
X79860000Y-99060000D03*
X86360000Y-99060000D03*
%TD*%
%TO.P,SW5,1,1_1*%
%TO.N,GND*%
X79860000Y-105990000D03*
X86360000Y-105990000D03*
%TO.P,SW5,2,2_2*%
%TO.N,BTN_NEXT*%
X79860000Y-110490000D03*
X86360000Y-110490000D03*
%TD*%
D11*
%TO.P,D1,2,A_2*%
%TO.N,VBAT*%
X81910000Y-61595000D03*
D12*
%TO.P,D1,1,K_1*%
%TO.N,Net-(D1-K)*%
X79370000Y-61595000D03*
%TD*%
D10*
%TO.P,SW4,S2,S2_S2*%
%TO.N,ENC_BTN*%
X144105000Y-71385000D03*
%TO.P,SW4,S1,S1_S1*%
%TO.N,GND*%
X139105000Y-71385000D03*
D13*
%TO.P,SW4,MP*%
%TO.N,N/C*%
X136005000Y-64385000D03*
X147205000Y-64385000D03*
D10*
%TO.P,SW4,C,C_C*%
%TO.N,GND*%
X141605000Y-56885000D03*
%TO.P,SW4,B,B_B*%
%TO.N,ENC_B*%
X139105000Y-56885000D03*
D14*
%TO.P,SW4,A,A_A*%
%TO.N,ENC_A*%
X144105000Y-56885000D03*
%TD*%
D15*
%TO.P,C18,1*%
%TO.N,VO2*%
X125182621Y-137160000D03*
D16*
%TO.P,C18,2*%
%TO.N,HP_R*%
X127682621Y-137160000D03*
%TD*%
D15*
%TO.P,C17,1*%
%TO.N,VO1*%
X132120000Y-137160000D03*
D16*
%TO.P,C17,2*%
%TO.N,HP_L*%
X134620000Y-137160000D03*
%TD*%
D17*
%TO.P,U1,41,GND_41*%
%TO.N,GND*%
X114800000Y-133950000D03*
X114800000Y-132550000D03*
X114100000Y-134650000D03*
X114100000Y-133250000D03*
X114100000Y-131850000D03*
X113400000Y-133950000D03*
X113400000Y-132550000D03*
X112700000Y-134650000D03*
X112700000Y-133250000D03*
X112700000Y-131850000D03*
X112000000Y-133950000D03*
X112000000Y-132550000D03*
%TD*%
D18*
%TO.P,J3,SH,SHIELD_SH*%
%TO.N,GND*%
X77225000Y-145180000D03*
D19*
X77225000Y-149360000D03*
D18*
X85865000Y-145180000D03*
D19*
X85865000Y-149360000D03*
%TD*%
D20*
%TO.P,J2,R*%
%TO.N,HP_R*%
X141610000Y-138775000D03*
%TO.P,J2,RN*%
%TO.N,N/C*%
X143610000Y-140575000D03*
%TO.P,J2,S*%
%TO.N,GND*%
X143610000Y-146675000D03*
%TO.P,J2,T*%
%TO.N,HP_L*%
X141610000Y-144275000D03*
%TO.P,J2,TN*%
%TO.N,unconnected-(J2-PadTN)*%
X143610000Y-135075000D03*
%TD*%
D21*
%TO.P,U4,1,GND_1*%
%TO.N,GND*%
X94260000Y-74295000D03*
D22*
%TO.P,U4,2,VCC_2*%
%TO.N,+3V3*%
X94260000Y-71755000D03*
%TO.P,U4,3,SCL_3*%
%TO.N,I2C_SCL*%
X94260000Y-69215000D03*
%TO.P,U4,4,SDA_4*%
%TO.N,I2C_SDA*%
X94260000Y-66675000D03*
%TD*%
D23*
%TO.P,BT1,1,+_1*%
%TO.N,VBAT*%
X78195000Y-69485000D03*
D24*
%TO.P,BT1,2,-_2*%
%TO.N,GND*%
X78195000Y-71485000D03*
%TD*%
D25*
%TO.N,GND*%
X120650000Y-113030000D03*
X78105000Y-139700000D03*
X109220000Y-112395000D03*
X118110000Y-111760000D03*
X76779854Y-141025146D03*
X137795000Y-92710000D03*
X107360961Y-115491575D03*
X118110000Y-109220000D03*
X127635000Y-94615000D03*
X130175000Y-95469000D03*
X128270000Y-113030000D03*
X90805000Y-90170000D03*
X140970000Y-85090000D03*
X85090000Y-89535000D03*
X116205000Y-141605000D03*
X112395000Y-139065000D03*
%TO.N,BTN_PLAY*%
X121920000Y-128270000D03*
X96520000Y-116840000D03*
%TO.N,+3V3*%
X139065000Y-128270000D03*
X127000000Y-112395000D03*
X132715000Y-128905000D03*
X99695000Y-105410000D03*
X121285000Y-112395000D03*
X124460000Y-101600000D03*
X102235000Y-114935000D03*
X125095000Y-98425000D03*
X141605000Y-117475000D03*
X112395000Y-106045000D03*
X119380000Y-109220000D03*
X109855000Y-107950000D03*
X104140000Y-104140000D03*
X131445000Y-113665000D03*
X125095000Y-111125000D03*
X104140000Y-107315000D03*
X107315000Y-105410000D03*
%TO.N,VO2*%
X133985000Y-130810000D03*
X123825000Y-128905000D03*
X129540000Y-130175000D03*
X125095000Y-131445000D03*
%TO.N,Net-(U3-IN2-)*%
X126365000Y-128270000D03*
X138430000Y-116205000D03*
X130810000Y-115570000D03*
X125095000Y-125730000D03*
%TO.N,Net-(U5-STAT)*%
X83820000Y-88265000D03*
X87630000Y-85090000D03*
%TO.N,Net-(D1-K)*%
X79370000Y-66035000D03*
X86995000Y-69850000D03*
%TO.N,BTN_NEXT*%
X88900000Y-107950000D03*
X120015000Y-119380000D03*
%TO.N,DAC_OUTL*%
X138430000Y-123190000D03*
X100012500Y-114617500D03*
%TO.N,Net-(U3-IN1-)*%
X136525000Y-122555000D03*
X125730000Y-121920000D03*
%TO.N,ENC_A*%
X105410000Y-137795000D03*
X142875000Y-82550000D03*
%TO.N,ENC_B*%
X101305073Y-138679781D03*
X133350000Y-76200000D03*
%TO.N,ENC_BTN*%
X118180354Y-129469646D03*
X144780000Y-82550000D03*
%TO.N,GPIO10*%
X116205000Y-118745000D03*
X122555000Y-97155000D03*
X125152889Y-100802307D03*
X118745000Y-98425000D03*
%TO.N,AMP_ENABLE*%
X133985000Y-123190000D03*
X129540000Y-122555000D03*
%TO.N,VO1*%
X126365000Y-131445000D03*
X123825000Y-131445000D03*
X129540000Y-132080000D03*
%TO.N,I2C_SCL*%
X99584709Y-78740000D03*
X123190000Y-127000000D03*
%TO.N,Net-(U2-OUTR)*%
X103505000Y-111760000D03*
X112395000Y-115570000D03*
%TO.N,I2S_SCK*%
X133985000Y-126365000D03*
X114300000Y-113030000D03*
X132080000Y-123190000D03*
X128270000Y-133350000D03*
X122555000Y-122555000D03*
X116840000Y-119380000D03*
X121285000Y-118110000D03*
X121920000Y-120015000D03*
%TO.N,I2S_BCK*%
X115570000Y-112395000D03*
X122555000Y-132715000D03*
X124460000Y-121920000D03*
X122958776Y-128038776D03*
%TO.N,I2S_DIN*%
X123190000Y-140970000D03*
X136525000Y-140970000D03*
X121920000Y-140335000D03*
X135255000Y-119380000D03*
X117475000Y-113030000D03*
X122555000Y-135255000D03*
%TO.N,I2S_LRCK*%
X103505000Y-121285000D03*
X113665000Y-110490000D03*
X105410000Y-118745000D03*
X108640146Y-129484854D03*
%TO.N,DAC_OUTR*%
X120650000Y-114300000D03*
X135890000Y-118745000D03*
%TO.N,GPIO13*%
X111125000Y-115570000D03*
X125095000Y-106680000D03*
X121285000Y-96520000D03*
X118745000Y-96520000D03*
%TO.N,I2C_SDA*%
X117475000Y-120650000D03*
X90805000Y-66040000D03*
%TO.N,Net-(J1-DAT1)*%
X124460000Y-107315000D03*
X120650000Y-107315000D03*
%TO.N,USB_DN*%
X80645000Y-142875000D03*
X81280000Y-139700000D03*
X81915000Y-137795000D03*
X118745000Y-126365000D03*
%TO.N,USB_DP*%
X92075000Y-119380000D03*
X121920000Y-123190000D03*
X80753000Y-140970000D03*
X98425000Y-121285000D03*
%TO.N,GPIO12*%
X113030000Y-120650000D03*
X118110000Y-121920000D03*
%TO.N,VDD*%
X91440000Y-84455000D03*
X80010000Y-84455000D03*
%TO.N,Net-(J3-CC1)*%
X83185000Y-140970000D03*
X80010000Y-141605000D03*
%TD*%
%TO.N,I2C_SCL*%
D26*
X127172552Y-134620000D02*
X127308000Y-134484552D01*
X119272000Y-134401709D02*
X119272000Y-134620000D01*
X127308000Y-131118000D02*
X123190000Y-127000000D01*
X118963291Y-134093000D02*
X119272000Y-134401709D01*
X118526709Y-134093000D02*
X118963291Y-134093000D01*
X118218000Y-134401709D02*
X118526709Y-134093000D01*
X115459709Y-134620000D02*
X118218000Y-134620000D01*
X111649709Y-138430000D02*
X115459709Y-134620000D01*
X105982739Y-138430000D02*
X111649709Y-138430000D01*
X105763739Y-138649000D02*
X105982739Y-138430000D01*
X104837261Y-138430000D02*
X105056261Y-138649000D01*
X101800583Y-138430000D02*
X104837261Y-138430000D01*
X118218000Y-134620000D02*
X118218000Y-134401709D01*
X101832073Y-138898072D02*
X101832073Y-138461490D01*
X101523364Y-139206781D02*
X101832073Y-138898072D01*
X100592844Y-138430000D02*
X100778073Y-138615229D01*
X98344001Y-136464000D02*
X100310001Y-138430000D01*
X97221311Y-136464000D02*
X98344001Y-136464000D01*
X100778073Y-138898072D02*
X101086782Y-139206781D01*
X96324931Y-134252380D02*
X96310999Y-134266313D01*
X96311000Y-135553689D02*
X97221311Y-136464000D01*
X96242835Y-134170289D02*
X96324931Y-134252380D01*
X96242835Y-134170284D02*
X96242835Y-134170289D01*
X119272000Y-134620000D02*
X127172552Y-134620000D01*
X94288000Y-132215448D02*
X96242835Y-134170284D01*
X99695000Y-109392552D02*
X94288000Y-114799552D01*
X99695000Y-105937000D02*
X99695000Y-109392552D01*
X105056261Y-138649000D02*
X105763739Y-138649000D01*
X99476709Y-105937000D02*
X99695000Y-105937000D01*
X96310999Y-134266313D02*
X96311000Y-135553689D01*
X99476709Y-104883000D02*
X99168000Y-105191709D01*
X99695000Y-104883000D02*
X99476709Y-104883000D01*
X99584709Y-81169709D02*
X99695000Y-81280000D01*
X94288000Y-114799552D02*
X94288000Y-132215448D01*
X100310001Y-138430000D02*
X100592844Y-138430000D01*
X99584709Y-81107448D02*
X99584709Y-81169709D01*
X99060000Y-81632157D02*
X99584709Y-81107448D01*
X99060000Y-105237448D02*
X99060000Y-81632157D01*
X96020448Y-108277000D02*
X99060000Y-105237448D01*
X89318291Y-108277000D02*
X96020448Y-108277000D01*
X89118291Y-108477000D02*
X89318291Y-108277000D01*
X88681709Y-108477000D02*
X89118291Y-108477000D01*
X88373000Y-108168291D02*
X88681709Y-108477000D01*
X88373000Y-107731709D02*
X88373000Y-108168291D01*
X99168000Y-105628291D02*
X99476709Y-105937000D01*
X89318291Y-107623000D02*
X89118291Y-107423000D01*
X99695000Y-81280000D02*
X99695000Y-104883000D01*
X95749552Y-107623000D02*
X89318291Y-107623000D01*
X97790000Y-105582552D02*
X95749552Y-107623000D01*
X88681709Y-107423000D02*
X88373000Y-107731709D01*
X97790000Y-81977261D02*
X97790000Y-105582552D01*
X99168000Y-105191709D02*
X99168000Y-105628291D01*
X127308000Y-134484552D02*
X127308000Y-131118000D01*
X99584709Y-80182552D02*
X97790000Y-81977261D01*
X101832073Y-138461490D02*
X101800583Y-138430000D01*
X99584709Y-78740000D02*
X99584709Y-80182552D01*
X100778073Y-138615229D02*
X100778073Y-138898072D01*
X89118291Y-107423000D02*
X88681709Y-107423000D01*
X101086782Y-139206781D02*
X101523364Y-139206781D01*
%TO.N,BTN_PLAY*%
X99695000Y-116840000D02*
X96520000Y-116840000D01*
X102870000Y-136000291D02*
X102870000Y-120015000D01*
X102870000Y-120015000D02*
X99695000Y-116840000D01*
X105191709Y-138322000D02*
X102870000Y-136000291D01*
X117693291Y-130702000D02*
X111695448Y-130702000D01*
X105937000Y-138013291D02*
X105628291Y-138322000D01*
X105628291Y-138322000D02*
X105191709Y-138322000D01*
X120125291Y-128270000D02*
X117693291Y-130702000D01*
X111695448Y-130702000D02*
X105937000Y-136460448D01*
X121920000Y-128270000D02*
X120125291Y-128270000D01*
X105937000Y-136460448D02*
X105937000Y-138013291D01*
%TO.N,ENC_A*%
X142875000Y-119490291D02*
X142875000Y-82550000D01*
X138648291Y-123717000D02*
X142875000Y-119490291D01*
X121393000Y-123717000D02*
X138648291Y-123717000D01*
X120234000Y-124876000D02*
X121393000Y-123717000D01*
X118391261Y-124876000D02*
X120234000Y-124876000D01*
X117148000Y-127962000D02*
X117148000Y-126119261D01*
X111560000Y-130375000D02*
X114735000Y-130375000D01*
X114735000Y-130375000D02*
X117148000Y-127962000D01*
X105610000Y-137795000D02*
X105610000Y-136325000D01*
X105610000Y-136325000D02*
X111560000Y-130375000D01*
X105410000Y-137795000D02*
X105610000Y-137795000D01*
X117148000Y-126119261D02*
X118391261Y-124876000D01*
%TO.N,I2S_LRCK*%
X107950000Y-125730000D02*
X103505000Y-121285000D01*
X108640146Y-129484854D02*
X107950000Y-128794708D01*
X107950000Y-128794708D02*
X107950000Y-125730000D01*
%TO.N,USB_DN*%
X81915000Y-138670000D02*
X81915000Y-137795000D01*
X121285000Y-142240000D02*
X85485000Y-142240000D01*
X122663000Y-140862000D02*
X121285000Y-142240000D01*
X122663000Y-140751709D02*
X122663000Y-140862000D01*
X122971709Y-140443000D02*
X122663000Y-140751709D01*
X124155621Y-139369379D02*
X123082000Y-140443000D01*
X124155621Y-136405494D02*
X124155621Y-139369379D01*
X124428115Y-136133000D02*
X124155621Y-136405494D01*
X125937127Y-136133000D02*
X124428115Y-136133000D01*
X127635000Y-130699709D02*
X127635000Y-134620000D01*
X123300291Y-126365000D02*
X127635000Y-130699709D01*
X126029563Y-136225437D02*
X125937127Y-136133000D01*
X118745000Y-126365000D02*
X123300291Y-126365000D01*
X123082000Y-140443000D02*
X122971709Y-140443000D01*
X85485000Y-142240000D02*
X81915000Y-138670000D01*
X127635000Y-134620000D02*
X126029563Y-136225437D01*
%TO.N,ENC_BTN*%
X144780000Y-123300291D02*
X144780000Y-82550000D01*
X142877291Y-125203000D02*
X144780000Y-123300291D01*
X118526709Y-125203000D02*
X142877291Y-125203000D01*
X117475000Y-126254709D02*
X118526709Y-125203000D01*
X117475000Y-128764292D02*
X117475000Y-126254709D01*
X118180354Y-129469646D02*
X117475000Y-128764292D01*
%TO.N,GND*%
X113030000Y-139700000D02*
X114300000Y-139700000D01*
X112395000Y-139065000D02*
X113030000Y-139700000D01*
X114300000Y-139700000D02*
X116205000Y-141605000D01*
%TO.N,BTN_NEXT*%
X98425000Y-105410000D02*
X95885000Y-107950000D01*
X102759709Y-77470000D02*
X98425000Y-81804709D01*
X119725104Y-77470000D02*
X102759709Y-77470000D01*
X119744104Y-77451000D02*
X119725104Y-77470000D01*
X131636552Y-77451000D02*
X119744104Y-77451000D01*
X132823000Y-76264552D02*
X131636552Y-77451000D01*
X132823000Y-75981709D02*
X132823000Y-76264552D01*
X133131709Y-75673000D02*
X132823000Y-75981709D01*
X133568291Y-75673000D02*
X133131709Y-75673000D01*
X133877000Y-75981709D02*
X133568291Y-75673000D01*
X133568291Y-76727000D02*
X133877000Y-76418291D01*
X133285448Y-76727000D02*
X133568291Y-76727000D01*
X133877000Y-76418291D02*
X133877000Y-75981709D01*
X98425000Y-81804709D02*
X98425000Y-105410000D01*
X120015000Y-78105000D02*
X131907448Y-78105000D01*
X131907448Y-78105000D02*
X133285448Y-76727000D01*
X95885000Y-107950000D02*
X88900000Y-107950000D01*
X120015000Y-119380000D02*
X120015000Y-78105000D01*
%TO.N,ENC_B*%
X131772000Y-77778000D02*
X133350000Y-76200000D01*
X119879552Y-77778000D02*
X131772000Y-77778000D01*
X119380000Y-78277552D02*
X119879552Y-77778000D01*
X119380000Y-87630000D02*
X119380000Y-78277552D01*
X102018291Y-104991709D02*
X119380000Y-87630000D01*
X100022000Y-104991709D02*
X102018291Y-104991709D01*
X100113291Y-105083000D02*
X100022000Y-104991709D01*
X102734552Y-105083000D02*
X100113291Y-105083000D01*
X103613000Y-104204552D02*
X102734552Y-105083000D01*
X103921709Y-103613000D02*
X103613000Y-103921709D01*
X104358291Y-103613000D02*
X103921709Y-103613000D01*
X104667000Y-103921709D02*
X104358291Y-103613000D01*
X104667000Y-104358291D02*
X104667000Y-103921709D01*
X104358291Y-104667000D02*
X104667000Y-104358291D01*
X100113291Y-105737000D02*
X103005448Y-105737000D01*
X100022000Y-105828291D02*
X100113291Y-105737000D01*
X100022000Y-109528000D02*
X100022000Y-105828291D01*
X103005448Y-105737000D02*
X104075448Y-104667000D01*
X94615000Y-114935000D02*
X100022000Y-109528000D01*
X94615000Y-132080000D02*
X94615000Y-114935000D01*
X96569830Y-134034830D02*
X94615000Y-132080000D01*
X104075448Y-104667000D02*
X104358291Y-104667000D01*
X103613000Y-103921709D02*
X103613000Y-104204552D01*
X96651927Y-134116921D02*
X96569830Y-134034830D01*
X96651927Y-134116927D02*
X96651927Y-134116921D01*
X96787379Y-134252379D02*
X96651927Y-134116927D01*
X96638000Y-135418241D02*
X96638000Y-134401759D01*
X98373241Y-136137000D02*
X97356759Y-136137000D01*
X99695000Y-137160000D02*
X98522620Y-135987620D01*
X97356759Y-136137000D02*
X96638000Y-135418241D01*
X99785292Y-137160000D02*
X99695000Y-137160000D01*
X98522620Y-135987620D02*
X98373241Y-136137000D01*
X96638000Y-134401759D02*
X96787379Y-134252379D01*
X101305073Y-138679781D02*
X99785292Y-137160000D01*
%TO.N,I2C_SDA*%
X134730291Y-120650000D02*
X117475000Y-120650000D01*
X136417000Y-118963291D02*
X134730291Y-120650000D01*
X136417000Y-118526709D02*
X136417000Y-118963291D01*
X136108291Y-118218000D02*
X136417000Y-118526709D01*
X128840448Y-112150843D02*
X128840448Y-118218000D01*
X125095000Y-108405395D02*
X128840448Y-112150843D01*
X125095000Y-107207000D02*
X125095000Y-108405395D01*
X125313291Y-107207000D02*
X125095000Y-107207000D01*
X125313291Y-106153000D02*
X125622000Y-106461709D01*
X125095000Y-106153000D02*
X125313291Y-106153000D01*
X125095000Y-101329307D02*
X125095000Y-106153000D01*
X125371180Y-101329307D02*
X125095000Y-101329307D01*
X125622000Y-106898291D02*
X125313291Y-107207000D01*
X125679889Y-101020598D02*
X125371180Y-101329307D01*
X125679889Y-100737755D02*
X125679889Y-101020598D01*
X125622000Y-106461709D02*
X125622000Y-106898291D01*
X126181146Y-100236498D02*
X125679889Y-100737755D01*
X125295093Y-96892646D02*
X126181146Y-97778698D01*
X125532291Y-96655448D02*
X125295093Y-96892646D01*
X125532291Y-96384552D02*
X125532291Y-96655448D01*
X125340739Y-96193000D02*
X125532291Y-96384552D01*
X128840448Y-118218000D02*
X136108291Y-118218000D01*
X121703291Y-96193000D02*
X125340739Y-96193000D01*
X121503291Y-95993000D02*
X121703291Y-96193000D01*
X126181146Y-97778698D02*
X126181146Y-100236498D01*
X120650000Y-95993000D02*
X121503291Y-95993000D01*
X120650000Y-78432000D02*
X120650000Y-95993000D01*
X133420896Y-77054000D02*
X132042896Y-78432000D01*
X133703739Y-77054000D02*
X133420896Y-77054000D01*
X134204000Y-75846261D02*
X134204000Y-76553739D01*
X132042896Y-78432000D02*
X120650000Y-78432000D01*
X133703739Y-75346000D02*
X134204000Y-75846261D01*
X131445000Y-75346000D02*
X133703739Y-75346000D01*
X131445000Y-64135000D02*
X131445000Y-75346000D01*
X93345000Y-63500000D02*
X130810000Y-63500000D01*
X130810000Y-63500000D02*
X131445000Y-64135000D01*
X134204000Y-76553739D02*
X133703739Y-77054000D01*
X90805000Y-66040000D02*
X93345000Y-63500000D01*
%TO.N,USB_DP*%
X92075000Y-123089759D02*
X92075000Y-119380000D01*
X92592000Y-123606759D02*
X92075000Y-123089759D01*
X92592000Y-124623241D02*
X92592000Y-123606759D01*
X91873241Y-125342000D02*
X92592000Y-124623241D01*
X90856759Y-125342000D02*
X91873241Y-125342000D01*
X90707380Y-125192620D02*
X90856759Y-125342000D01*
X81915000Y-133985000D02*
X90707380Y-125192620D01*
X81915000Y-137268000D02*
X81915000Y-133985000D01*
X81696709Y-137268000D02*
X81915000Y-137268000D01*
X81388000Y-137576709D02*
X81696709Y-137268000D01*
X81388000Y-138013291D02*
X81388000Y-137576709D01*
X81588000Y-138213291D02*
X81388000Y-138013291D01*
X81588000Y-138805448D02*
X81588000Y-138213291D01*
X81915000Y-139132448D02*
X81588000Y-138805448D01*
X81915000Y-139373000D02*
X81915000Y-139132448D01*
X81698291Y-139373000D02*
X81915000Y-139373000D01*
X81498291Y-139173000D02*
X81698291Y-139373000D01*
X81061709Y-140227000D02*
X80753000Y-139918291D01*
X80753000Y-139918291D02*
X80753000Y-139481709D01*
X81496000Y-140227000D02*
X81061709Y-140227000D01*
X80753000Y-140970000D02*
X81496000Y-140227000D01*
X80753000Y-139481709D02*
X81061709Y-139173000D01*
X81061709Y-139173000D02*
X81498291Y-139173000D01*
%TO.N,I2S_DIN*%
X123825000Y-141605000D02*
X123190000Y-140970000D01*
X135890000Y-141605000D02*
X123825000Y-141605000D01*
X136525000Y-140970000D02*
X135890000Y-141605000D01*
%TO.N,GND*%
X128489000Y-95469000D02*
X130175000Y-95469000D01*
X127635000Y-94615000D02*
X128489000Y-95469000D01*
%TO.N,GPIO13*%
X125205291Y-96520000D02*
X121285000Y-96520000D01*
X124897291Y-96828000D02*
X125205291Y-96520000D01*
X122973291Y-96828000D02*
X124897291Y-96828000D01*
X122773291Y-96628000D02*
X122973291Y-96828000D01*
X122336709Y-96628000D02*
X122773291Y-96628000D01*
X122028000Y-96936709D02*
X122336709Y-96628000D01*
X122028000Y-97373291D02*
X122028000Y-96936709D01*
X122336709Y-97682000D02*
X122028000Y-97373291D01*
X122773291Y-97682000D02*
X122336709Y-97682000D01*
X122973291Y-97482000D02*
X122773291Y-97682000D01*
X124460000Y-97482000D02*
X122973291Y-97482000D01*
X124460000Y-98597552D02*
X124460000Y-97482000D01*
X124241709Y-102127000D02*
X123933000Y-101818291D01*
X124133000Y-101181709D02*
X124133000Y-98924552D01*
X124460000Y-102127000D02*
X124241709Y-102127000D01*
X123933000Y-101818291D02*
X123933000Y-101381709D01*
X124460000Y-106045000D02*
X124460000Y-102127000D01*
X125095000Y-106680000D02*
X124460000Y-106045000D01*
X123933000Y-101381709D02*
X124133000Y-101181709D01*
X124133000Y-98924552D02*
X124460000Y-98597552D01*
%TO.N,GPIO10*%
X125095000Y-97155000D02*
X122555000Y-97155000D01*
X125854146Y-97914146D02*
X125095000Y-97155000D01*
X125854146Y-100101050D02*
X125854146Y-97914146D01*
X125152889Y-100802307D02*
X125854146Y-100101050D01*
%TO.N,GND*%
X112613291Y-116097000D02*
X107842000Y-116097000D01*
X109965291Y-112395000D02*
X112922000Y-115351709D01*
X117475000Y-111125000D02*
X118110000Y-111760000D01*
X76779854Y-141025146D02*
X78105000Y-139700000D01*
X87630000Y-93290000D02*
X87630000Y-90170000D01*
X107842000Y-116097000D02*
X107315000Y-115570000D01*
X109220000Y-112395000D02*
X109965291Y-112395000D01*
X112922000Y-115351709D02*
X112922000Y-115788291D01*
X87630000Y-90170000D02*
X86360000Y-90170000D01*
X117475000Y-109855000D02*
X117475000Y-111125000D01*
X120650000Y-113030000D02*
X128270000Y-113030000D01*
X118110000Y-109220000D02*
X117475000Y-109855000D01*
X86360000Y-94560000D02*
X87630000Y-93290000D01*
X86360000Y-90170000D02*
X85725000Y-89535000D01*
X85725000Y-89535000D02*
X85090000Y-89535000D01*
X137795000Y-88265000D02*
X137795000Y-92710000D01*
X90805000Y-90170000D02*
X87630000Y-90170000D01*
X140970000Y-85090000D02*
X137795000Y-88265000D01*
X112922000Y-115788291D02*
X112613291Y-116097000D01*
%TO.N,+3V3*%
X99695000Y-105410000D02*
X102870000Y-105410000D01*
X125095000Y-98425000D02*
X124460000Y-99060000D01*
X137795000Y-113665000D02*
X141605000Y-117475000D01*
X124460000Y-99060000D02*
X124460000Y-101600000D01*
X116205000Y-106045000D02*
X119380000Y-109220000D01*
X121285000Y-112395000D02*
X123825000Y-112395000D01*
X123825000Y-112395000D02*
X125095000Y-111125000D01*
X131445000Y-113665000D02*
X137795000Y-113665000D01*
X109855000Y-107950000D02*
X107315000Y-105410000D01*
X133350000Y-128270000D02*
X132715000Y-128905000D01*
X102870000Y-105410000D02*
X104140000Y-104140000D01*
X139065000Y-128270000D02*
X133350000Y-128270000D01*
X123825000Y-112395000D02*
X127000000Y-112395000D01*
X102235000Y-109220000D02*
X102235000Y-114935000D01*
X112395000Y-106045000D02*
X116205000Y-106045000D01*
X104140000Y-107315000D02*
X102235000Y-109220000D01*
%TO.N,VO2*%
X133350000Y-130175000D02*
X133985000Y-130810000D01*
X123825000Y-128905000D02*
X125095000Y-130175000D01*
X125095000Y-130175000D02*
X125095000Y-131445000D01*
X129540000Y-130175000D02*
X133350000Y-130175000D01*
%TO.N,Net-(U3-IN2-)*%
X138430000Y-116205000D02*
X131445000Y-116205000D01*
X125095000Y-127000000D02*
X126365000Y-128270000D01*
X131445000Y-116205000D02*
X130810000Y-115570000D01*
X125095000Y-125730000D02*
X125095000Y-127000000D01*
%TO.N,Net-(U5-STAT)*%
X87630000Y-85090000D02*
X84455000Y-88265000D01*
X84455000Y-88265000D02*
X83820000Y-88265000D01*
%TO.N,Net-(D1-K)*%
X83185000Y-69850000D02*
X86995000Y-69850000D01*
X79370000Y-66035000D02*
X83185000Y-69850000D01*
%TO.N,DAC_OUTL*%
X124987000Y-122138291D02*
X124987000Y-120977000D01*
X113557000Y-120868291D02*
X113557000Y-120585448D01*
X100012500Y-114617500D02*
X107315000Y-121920000D01*
X116985813Y-121831000D02*
X117275709Y-121831000D01*
X116294000Y-120849291D02*
X116294000Y-121139187D01*
X114793579Y-119348870D02*
X116294000Y-120849291D01*
X116294000Y-121139187D02*
X116985813Y-121831000D01*
X124678291Y-122447000D02*
X124987000Y-122138291D01*
X112657354Y-121022645D02*
X112811709Y-121177000D01*
X107315000Y-121920000D02*
X111760000Y-121920000D01*
X117275709Y-121831000D02*
X117891709Y-122447000D01*
X118637000Y-121920000D02*
X123714709Y-121920000D01*
X113248291Y-121177000D02*
X113557000Y-120868291D01*
X112811709Y-121177000D02*
X113248291Y-121177000D01*
X118637000Y-122138291D02*
X118637000Y-121920000D01*
X113557000Y-120585448D02*
X114793579Y-119348870D01*
X135890000Y-120650000D02*
X138430000Y-123190000D01*
X118328291Y-122447000D02*
X118637000Y-122138291D01*
X134865739Y-120977000D02*
X135192739Y-120650000D01*
X135192739Y-120650000D02*
X135890000Y-120650000D01*
X117891709Y-122447000D02*
X118328291Y-122447000D01*
X124241709Y-122447000D02*
X124678291Y-122447000D01*
X124987000Y-120977000D02*
X134865739Y-120977000D01*
X123714709Y-121920000D02*
X124241709Y-122447000D01*
X111760000Y-121920000D02*
X112657354Y-121022645D01*
%TO.N,Net-(U3-IN1-)*%
X135890000Y-121920000D02*
X136525000Y-122555000D01*
X125730000Y-121920000D02*
X135890000Y-121920000D01*
%TO.N,GPIO10*%
X114081709Y-112503000D02*
X114300000Y-112503000D01*
X116205000Y-118745000D02*
X114300000Y-116840000D01*
X114300000Y-116494896D02*
X113973000Y-116167896D01*
X114300000Y-108695291D02*
X111868000Y-106263291D01*
X113773000Y-113248291D02*
X113773000Y-112811709D01*
X111868000Y-106263291D02*
X111868000Y-105302000D01*
X113973000Y-116167896D02*
X113973000Y-113448291D01*
X114300000Y-116840000D02*
X114300000Y-116494896D01*
X113773000Y-112811709D02*
X114081709Y-112503000D01*
X111868000Y-105302000D02*
X118745000Y-98425000D01*
X114300000Y-112503000D02*
X114300000Y-108695291D01*
X113973000Y-113448291D02*
X113773000Y-113248291D01*
%TO.N,AMP_ENABLE*%
X132080000Y-122555000D02*
X133350000Y-122555000D01*
X129540000Y-122555000D02*
X132080000Y-122555000D01*
X133350000Y-122555000D02*
X133985000Y-123190000D01*
%TO.N,VO1*%
X132120000Y-134660000D02*
X132120000Y-137160000D01*
X129540000Y-132080000D02*
X132120000Y-134660000D01*
X125838000Y-131972000D02*
X126365000Y-131445000D01*
X123825000Y-131445000D02*
X124352000Y-131972000D01*
X124352000Y-131972000D02*
X125838000Y-131972000D01*
%TO.N,Net-(U2-OUTR)*%
X104140000Y-112395000D02*
X103505000Y-111760000D01*
X109855000Y-113030000D02*
X104140000Y-113030000D01*
X104140000Y-113030000D02*
X104140000Y-112395000D01*
X112395000Y-115570000D02*
X109855000Y-113030000D01*
%TO.N,I2S_SCK*%
X128270000Y-130699709D02*
X128270000Y-133350000D01*
X121920000Y-118745000D02*
X121920000Y-120015000D01*
X132604709Y-126365000D02*
X128270000Y-130699709D01*
X114300000Y-116032448D02*
X116840000Y-118572448D01*
X123190000Y-123190000D02*
X132080000Y-123190000D01*
X122555000Y-122555000D02*
X123190000Y-123190000D01*
X116840000Y-118572448D02*
X116840000Y-119380000D01*
X121285000Y-118110000D02*
X121920000Y-118745000D01*
X133985000Y-126365000D02*
X132604709Y-126365000D01*
X114300000Y-113030000D02*
X114300000Y-116032448D01*
%TO.N,I2S_BCK*%
X117693291Y-121177000D02*
X117893291Y-120977000D01*
X116948000Y-120431709D02*
X116948000Y-120868291D01*
X117256709Y-121177000D02*
X117693291Y-121177000D01*
X120323000Y-121593000D02*
X124133000Y-121593000D01*
X117693291Y-120123000D02*
X117256709Y-120123000D01*
X122958776Y-128038776D02*
X122958776Y-132311224D01*
X119053000Y-120323000D02*
X117893291Y-120323000D01*
X117256709Y-120123000D02*
X116948000Y-120431709D01*
X119707000Y-120977000D02*
X120323000Y-121593000D01*
X116948000Y-120868291D02*
X117256709Y-121177000D01*
X124133000Y-121593000D02*
X124460000Y-121920000D01*
X117893291Y-120323000D02*
X117693291Y-120123000D01*
X115570000Y-116840000D02*
X119053000Y-120323000D01*
X122958776Y-132311224D02*
X122555000Y-132715000D01*
X115570000Y-112395000D02*
X115570000Y-116840000D01*
X117893291Y-120977000D02*
X119707000Y-120977000D01*
%TO.N,I2S_DIN*%
X121920000Y-135890000D02*
X122555000Y-135255000D01*
X117475000Y-113030000D02*
X117475000Y-117585291D01*
X120758000Y-119777709D02*
X120758000Y-117891709D01*
X121503291Y-117583000D02*
X123300291Y-119380000D01*
X123300291Y-119380000D02*
X135255000Y-119380000D01*
X120212709Y-120323000D02*
X120758000Y-119777709D01*
X117475000Y-117585291D02*
X120212709Y-120323000D01*
X120758000Y-117891709D02*
X121066709Y-117583000D01*
X121920000Y-140335000D02*
X121920000Y-135890000D01*
X121066709Y-117583000D02*
X121503291Y-117583000D01*
%TO.N,I2S_LRCK*%
X110490000Y-118745000D02*
X113338000Y-115897000D01*
X113338000Y-110490000D02*
X113665000Y-110490000D01*
X113338000Y-115897000D02*
X113338000Y-110490000D01*
X105410000Y-118745000D02*
X110490000Y-118745000D01*
%TO.N,DAC_OUTR*%
X120650000Y-114300000D02*
X124460000Y-114300000D01*
X128905000Y-118745000D02*
X135890000Y-118745000D01*
X124460000Y-114300000D02*
X128905000Y-118745000D01*
%TO.N,GPIO13*%
X104250291Y-113665000D02*
X102453291Y-115462000D01*
X102016709Y-115462000D02*
X99695000Y-113140291D01*
X99695000Y-113140291D02*
X99695000Y-110490000D01*
X109220000Y-113665000D02*
X104250291Y-113665000D01*
X99695000Y-110490000D02*
X113665000Y-96520000D01*
X113665000Y-96520000D02*
X118745000Y-96520000D01*
X102453291Y-115462000D02*
X102016709Y-115462000D01*
X111125000Y-115570000D02*
X109220000Y-113665000D01*
%TO.N,Net-(J1-DAT1)*%
X124460000Y-107315000D02*
X120650000Y-107315000D01*
%TO.N,USB_DN*%
X81280000Y-139700000D02*
X82660291Y-139700000D01*
X82660291Y-139700000D02*
X83712000Y-140751709D01*
X83712000Y-141188291D02*
X82025291Y-142875000D01*
X83712000Y-140751709D02*
X83712000Y-141188291D01*
X82025291Y-142875000D02*
X80645000Y-142875000D01*
%TO.N,USB_DP*%
X99630448Y-116313000D02*
X106507448Y-123190000D01*
X95993000Y-116621709D02*
X96301709Y-116313000D01*
X96301709Y-116313000D02*
X99630448Y-116313000D01*
X98425000Y-121285000D02*
X95993000Y-118853000D01*
X95993000Y-118853000D02*
X95993000Y-116621709D01*
X106507448Y-123190000D02*
X121920000Y-123190000D01*
%TO.N,GPIO12*%
X116621000Y-120431000D02*
X114935000Y-118745000D01*
X117694000Y-121504000D02*
X117121261Y-121504000D01*
X114935000Y-118745000D02*
X113030000Y-120650000D01*
X116621000Y-121003739D02*
X116621000Y-120431000D01*
X118110000Y-121920000D02*
X117694000Y-121504000D01*
X117121261Y-121504000D02*
X116621000Y-121003739D01*
%TO.N,VDD*%
X80010000Y-84455000D02*
X91440000Y-84455000D01*
%TO.N,Net-(J3-CC1)*%
X82658000Y-141497000D02*
X83185000Y-140970000D01*
X80118000Y-141497000D02*
X82658000Y-141497000D01*
X80010000Y-141605000D02*
X80118000Y-141497000D01*
%TD*%
M02*
