%TF.GenerationSoftware,KiCad,Pcbnew,10.0.3*%
%TF.CreationDate,2026-10-10T10:35:27+02:00*%
%TF.ProjectId,fuji-mini-v2,66756a69-2d6d-4696-9e69-2d76322e6b69,rev?*%
%TF.SameCoordinates,Original*%
%TF.FileFunction,Legend,Bot*%
%TF.FilePolarity,Positive*%
%FSLAX46Y46*%
G04 Gerber Fmt 4.6, Leading zero omitted, Abs format (unit mm)*
G04 Created by KiCad (PCBNEW 10.0.3) date 2026-10-10 10:35:27*
%MOMM*%
%LPD*%
G01*
G04 APERTURE LIST*
%ADD10C,0.150000*%
%ADD11C,0.120000*%
G04 APERTURE END LIST*
D10*
X76131009Y-69699285D02*
X76178628Y-69842142D01*
X76178628Y-69842142D02*
X76226247Y-69889761D01*
X76226247Y-69889761D02*
X76321485Y-69937380D01*
X76321485Y-69937380D02*
X76464342Y-69937380D01*
X76464342Y-69937380D02*
X76559580Y-69889761D01*
X76559580Y-69889761D02*
X76607200Y-69842142D01*
X76607200Y-69842142D02*
X76654819Y-69746904D01*
X76654819Y-69746904D02*
X76654819Y-69365952D01*
X76654819Y-69365952D02*
X75654819Y-69365952D01*
X75654819Y-69365952D02*
X75654819Y-69699285D01*
X75654819Y-69699285D02*
X75702438Y-69794523D01*
X75702438Y-69794523D02*
X75750057Y-69842142D01*
X75750057Y-69842142D02*
X75845295Y-69889761D01*
X75845295Y-69889761D02*
X75940533Y-69889761D01*
X75940533Y-69889761D02*
X76035771Y-69842142D01*
X76035771Y-69842142D02*
X76083390Y-69794523D01*
X76083390Y-69794523D02*
X76131009Y-69699285D01*
X76131009Y-69699285D02*
X76131009Y-69365952D01*
X75654819Y-70223095D02*
X75654819Y-70794523D01*
X76654819Y-70508809D02*
X75654819Y-70508809D01*
X76654819Y-71651666D02*
X76654819Y-71080238D01*
X76654819Y-71365952D02*
X75654819Y-71365952D01*
X75654819Y-71365952D02*
X75797676Y-71270714D01*
X75797676Y-71270714D02*
X75892914Y-71175476D01*
X75892914Y-71175476D02*
X75940533Y-71080238D01*
%TO.C,BT1*%
D11*
X76735000Y-67425000D02*
X84555000Y-67425000D01*
X76735000Y-68345000D02*
X76735000Y-67425000D01*
X76735000Y-72625000D02*
X78335000Y-72625000D01*
X76735000Y-73545000D02*
X76735000Y-72625000D01*
X78335000Y-67425000D02*
X78335000Y-68345000D01*
X78335000Y-68345000D02*
X76735000Y-68345000D01*
X78335000Y-68625000D02*
X77120000Y-68625000D01*
X78335000Y-68625000D02*
X78335000Y-68345000D01*
X78335000Y-72625000D02*
X78335000Y-72345000D01*
X78335000Y-73545000D02*
X78335000Y-72625000D01*
X80195000Y-69985000D02*
X80195000Y-70985000D01*
X80195000Y-70985000D02*
X84555000Y-70985000D01*
X82295000Y-68685000D02*
X84555000Y-68685000D01*
X82295000Y-69185000D02*
X84555000Y-69185000D01*
X84555000Y-67425000D02*
X84555000Y-73545000D01*
X84555000Y-69985000D02*
X80195000Y-69985000D01*
X84555000Y-73545000D02*
X76735000Y-73545000D01*
X80695000Y-68185000D02*
X82295000Y-68185000D01*
X82295000Y-69185000D01*
X80695000Y-69185000D01*
X80695000Y-68185000D01*
X80695000Y-71785000D02*
X82295000Y-71785000D01*
X82295000Y-72785000D01*
X80695000Y-72785000D01*
X80695000Y-71785000D01*
%TD*%
M02*
