%TF.GenerationSoftware,KiCad,Pcbnew,10.0.3*%
%TF.CreationDate,2026-10-07T18:49:47+02:00*%
%TF.ProjectId,fuji-mini-v2,66756a69-2d6d-4696-9e69-2d76322e6b69,rev?*%
%TF.SameCoordinates,Original*%
%TF.FileFunction,Copper,L1,Top*%
%TF.FilePolarity,Positive*%
%FSLAX46Y46*%
G04 Gerber Fmt 4.6, Leading zero omitted, Abs format (unit mm)*
G04 Created by KiCad (PCBNEW 10.0.3) date 2026-10-07 18:49:47*
%MOMM*%
%LPD*%
G01*
G04 APERTURE LIST*
G04 Aperture macros list*
%AMRoundRect*
0 Rectangle with rounded corners*
0 $1 Rounding radius*
0 $2 $3 $4 $5 $6 $7 $8 $9 X,Y pos of 4 corners*
0 Add a 4 corners polygon primitive as box body*
4,1,4,$2,$3,$4,$5,$6,$7,$8,$9,$2,$3,0*
0 Add four circle primitives for the rounded corners*
1,1,$1+$1,$2,$3*
1,1,$1+$1,$4,$5*
1,1,$1+$1,$6,$7*
1,1,$1+$1,$8,$9*
0 Add four rect primitives between the rounded corners*
20,1,$1+$1,$2,$3,$4,$5,0*
20,1,$1+$1,$4,$5,$6,$7,0*
20,1,$1+$1,$6,$7,$8,$9,0*
20,1,$1+$1,$8,$9,$2,$3,0*%
G04 Aperture macros list end*
%TA.AperFunction,SMDPad,CuDef*%
%ADD10R,1.500000X0.900000*%
%TD*%
%TA.AperFunction,SMDPad,CuDef*%
%ADD11R,0.900000X1.500000*%
%TD*%
%TA.AperFunction,HeatsinkPad*%
%ADD12C,0.600000*%
%TD*%
%TA.AperFunction,HeatsinkPad*%
%ADD13R,3.900000X3.900000*%
%TD*%
%TA.AperFunction,SMDPad,CuDef*%
%ADD14RoundRect,0.250000X-0.250000X-0.475000X0.250000X-0.475000X0.250000X0.475000X-0.250000X0.475000X0*%
%TD*%
%TA.AperFunction,SMDPad,CuDef*%
%ADD15RoundRect,0.250000X0.450000X-0.262500X0.450000X0.262500X-0.450000X0.262500X-0.450000X-0.262500X0*%
%TD*%
%TA.AperFunction,SMDPad,CuDef*%
%ADD16RoundRect,0.250000X-0.262500X-0.450000X0.262500X-0.450000X0.262500X0.450000X-0.262500X0.450000X0*%
%TD*%
%TA.AperFunction,ComponentPad*%
%ADD17C,2.000000*%
%TD*%
%TA.AperFunction,ComponentPad*%
%ADD18R,1.800000X1.800000*%
%TD*%
%TA.AperFunction,ComponentPad*%
%ADD19C,1.800000*%
%TD*%
%TA.AperFunction,ComponentPad*%
%ADD20R,2.000000X2.000000*%
%TD*%
%TA.AperFunction,ComponentPad*%
%ADD21R,2.000000X3.200000*%
%TD*%
%TA.AperFunction,SMDPad,CuDef*%
%ADD22RoundRect,0.125000X-0.600000X-0.125000X0.600000X-0.125000X0.600000X0.125000X-0.600000X0.125000X0*%
%TD*%
%TA.AperFunction,HeatsinkPad*%
%ADD23R,1.570000X1.890000*%
%TD*%
%TA.AperFunction,SMDPad,CuDef*%
%ADD24RoundRect,0.150000X-0.512500X-0.150000X0.512500X-0.150000X0.512500X0.150000X-0.512500X0.150000X0*%
%TD*%
%TA.AperFunction,SMDPad,CuDef*%
%ADD25RoundRect,0.100000X-0.637500X-0.100000X0.637500X-0.100000X0.637500X0.100000X-0.637500X0.100000X0*%
%TD*%
%TA.AperFunction,SMDPad,CuDef*%
%ADD26RoundRect,0.250000X-0.475000X0.250000X-0.475000X-0.250000X0.475000X-0.250000X0.475000X0.250000X0*%
%TD*%
%TA.AperFunction,ComponentPad*%
%ADD27RoundRect,0.250000X-0.550000X-0.550000X0.550000X-0.550000X0.550000X0.550000X-0.550000X0.550000X0*%
%TD*%
%TA.AperFunction,ComponentPad*%
%ADD28C,1.600000*%
%TD*%
%TA.AperFunction,SMDPad,CuDef*%
%ADD29RoundRect,0.250000X0.475000X-0.250000X0.475000X0.250000X-0.475000X0.250000X-0.475000X-0.250000X0*%
%TD*%
%TA.AperFunction,SMDPad,CuDef*%
%ADD30RoundRect,0.150000X0.150000X0.425000X-0.150000X0.425000X-0.150000X-0.425000X0.150000X-0.425000X0*%
%TD*%
%TA.AperFunction,SMDPad,CuDef*%
%ADD31RoundRect,0.075000X0.075000X0.500000X-0.075000X0.500000X-0.075000X-0.500000X0.075000X-0.500000X0*%
%TD*%
%TA.AperFunction,ComponentPad*%
%ADD32O,1.000000X2.100000*%
%TD*%
%TA.AperFunction,ComponentPad*%
%ADD33O,1.000000X1.600000*%
%TD*%
%TA.AperFunction,SMDPad,CuDef*%
%ADD34R,1.200000X0.700000*%
%TD*%
%TA.AperFunction,SMDPad,CuDef*%
%ADD35R,0.800000X1.000000*%
%TD*%
%TA.AperFunction,SMDPad,CuDef*%
%ADD36R,1.200000X1.000000*%
%TD*%
%TA.AperFunction,SMDPad,CuDef*%
%ADD37R,2.800000X1.000000*%
%TD*%
%TA.AperFunction,SMDPad,CuDef*%
%ADD38R,1.900000X1.300000*%
%TD*%
%TA.AperFunction,SMDPad,CuDef*%
%ADD39RoundRect,0.062500X-0.337500X-0.062500X0.337500X-0.062500X0.337500X0.062500X-0.337500X0.062500X0*%
%TD*%
%TA.AperFunction,HeatsinkPad*%
%ADD40R,1.700000X1.400000*%
%TD*%
%TA.AperFunction,ComponentPad*%
%ADD41O,2.800000X1.800000*%
%TD*%
%TA.AperFunction,ComponentPad*%
%ADD42RoundRect,0.170000X0.680000X-0.680000X0.680000X0.680000X-0.680000X0.680000X-0.680000X-0.680000X0*%
%TD*%
%TA.AperFunction,ComponentPad*%
%ADD43C,1.700000*%
%TD*%
%TA.AperFunction,ComponentPad*%
%ADD44RoundRect,0.250000X-0.625000X0.350000X-0.625000X-0.350000X0.625000X-0.350000X0.625000X0.350000X0*%
%TD*%
%TA.AperFunction,ComponentPad*%
%ADD45O,1.750000X1.200000*%
%TD*%
%TA.AperFunction,ViaPad*%
%ADD46C,0.600000*%
%TD*%
%TA.AperFunction,Conductor*%
%ADD47C,0.200000*%
%TD*%
G04 APERTURE END LIST*
D10*
%TO.P,U1,1,GND_1*%
%TO.N,GND*%
X120650000Y-140970000D03*
%TO.P,U1,2,3V3_2*%
%TO.N,+3V3*%
X120650000Y-139700000D03*
%TO.P,U1,3,EN_3*%
%TO.N,Net-(U1-EN)*%
X120650000Y-138430000D03*
%TO.P,U1,4,IO4_4*%
%TO.N,I2S_LRCK*%
X120650000Y-137160000D03*
%TO.P,U1,5,IO5_5*%
%TO.N,I2S_BCK*%
X120650000Y-135890000D03*
%TO.P,U1,6,IO6_6*%
%TO.N,I2S_DIN*%
X120650000Y-134620000D03*
%TO.P,U1,7,IO7_7*%
%TO.N,I2S_SCK*%
X120650000Y-133350000D03*
%TO.P,U1,8,IO15_8*%
%TO.N,ENC_BTN*%
X120650000Y-132080000D03*
%TO.P,U1,9,IO16_9*%
%TO.N,BTN_NEXT*%
X120650000Y-130810000D03*
%TO.P,U1,10,IO17_10*%
%TO.N,AMP_ENABLE*%
X120650000Y-129540000D03*
%TO.P,U1,11,IO18_11*%
%TO.N,BTN_PLAY*%
X120650000Y-128270000D03*
%TO.P,U1,12,IO8_12*%
%TO.N,I2C_SCL*%
X120650000Y-127000000D03*
%TO.P,U1,13,USB_D-_13*%
%TO.N,USB_DN*%
X120650000Y-125730000D03*
%TO.P,U1,14,USB_D+_14*%
%TO.N,USB_DP*%
X120650000Y-124460000D03*
D11*
%TO.P,U1,15,IO3_15*%
%TO.N,unconnected-(U1-IO3-Pad15)*%
X118885000Y-123210000D03*
%TO.P,U1,16,IO46_16*%
%TO.N,unconnected-(U1-IO46-Pad16)*%
X117615000Y-123210000D03*
%TO.P,U1,17,IO9_17*%
%TO.N,I2C_SDA*%
X116345000Y-123210000D03*
%TO.P,U1,18,IO10_18*%
%TO.N,GPIO10*%
X115075000Y-123210000D03*
%TO.P,U1,19,IO11_19*%
%TO.N,GPIO11*%
X113805000Y-123210000D03*
%TO.P,U1,20,IO12_20*%
%TO.N,GPIO12*%
X112535000Y-123210000D03*
%TO.P,U1,21,IO13_21*%
%TO.N,GPIO13*%
X111265000Y-123210000D03*
%TO.P,U1,22,IO14_22*%
%TO.N,DAC_MUTE*%
X109995000Y-123210000D03*
%TO.P,U1,23,IO21_23*%
%TO.N,unconnected-(U1-IO21-Pad23)*%
X108725000Y-123210000D03*
%TO.P,U1,24,IO47_24*%
%TO.N,unconnected-(U1-IO47-Pad24)*%
X107455000Y-123210000D03*
%TO.P,U1,25,IO48_25*%
%TO.N,unconnected-(U1-IO48-Pad25)*%
X106185000Y-123210000D03*
%TO.P,U1,26,IO45_26*%
%TO.N,unconnected-(U1-IO45-Pad26)*%
X104915000Y-123210000D03*
D10*
%TO.P,U1,27,IO0_27*%
%TO.N,Net-(U1-IO0)*%
X103150000Y-124460000D03*
%TO.P,U1,28,IO35_28*%
%TO.N,unconnected-(U1-IO35-Pad28)*%
X103150000Y-125730000D03*
%TO.P,U1,29,IO36_29*%
%TO.N,unconnected-(U1-IO36-Pad29)*%
X103150000Y-127000000D03*
%TO.P,U1,30,IO37_30*%
%TO.N,unconnected-(U1-IO37-Pad30)*%
X103150000Y-128270000D03*
%TO.P,U1,31,IO38_31*%
%TO.N,unconnected-(U1-IO38-Pad31)*%
X103150000Y-129540000D03*
%TO.P,U1,32,IO39_32*%
%TO.N,unconnected-(U1-IO39-Pad32)*%
X103150000Y-130810000D03*
%TO.P,U1,33,IO40_33*%
%TO.N,unconnected-(U1-IO40-Pad33)*%
X103150000Y-132080000D03*
%TO.P,U1,34,IO41_34*%
%TO.N,unconnected-(U1-IO41-Pad34)*%
X103150000Y-133350000D03*
%TO.P,U1,35,IO42_35*%
%TO.N,unconnected-(U1-IO42-Pad35)*%
X103150000Y-134620000D03*
%TO.P,U1,36,RXD0_36*%
%TO.N,unconnected-(U1-RXD0-Pad36)*%
X103150000Y-135890000D03*
%TO.P,U1,37,TXD0_37*%
%TO.N,unconnected-(U1-TXD0-Pad37)*%
X103150000Y-137160000D03*
%TO.P,U1,38,IO2_38*%
%TO.N,ENC_B*%
X103150000Y-138430000D03*
%TO.P,U1,39,IO1_39*%
%TO.N,ENC_A*%
X103150000Y-139700000D03*
%TO.P,U1,40,GND_40*%
%TO.N,GND*%
X103150000Y-140970000D03*
D12*
%TO.P,U1,41,GND_41*%
X114800000Y-133950000D03*
X114800000Y-132550000D03*
X114100000Y-134650000D03*
X114100000Y-133250000D03*
X114100000Y-131850000D03*
X113400000Y-133950000D03*
D13*
X113400000Y-133250000D03*
D12*
X113400000Y-132550000D03*
X112700000Y-134650000D03*
X112700000Y-133250000D03*
X112700000Y-131850000D03*
X112000000Y-133950000D03*
X112000000Y-132550000D03*
%TD*%
D14*
%TO.P,C12,1*%
%TO.N,Net-(U3-BYPASS)*%
X133985000Y-115570000D03*
%TO.P,C12,2*%
%TO.N,GND*%
X135885000Y-115570000D03*
%TD*%
D15*
%TO.P,R17,1*%
%TO.N,BTN_PLAY*%
X90805000Y-99350000D03*
%TO.P,R17,2*%
%TO.N,+3V3*%
X90805000Y-97525000D03*
%TD*%
D14*
%TO.P,C6,1*%
%TO.N,+3V3*%
X106045000Y-102235000D03*
%TO.P,C6,2*%
%TO.N,GND*%
X107945000Y-102235000D03*
%TD*%
%TO.P,C3,1*%
%TO.N,GND*%
X107000000Y-118110000D03*
%TO.P,C3,2*%
%TO.N,Net-(U1-EN)*%
X108900000Y-118110000D03*
%TD*%
%TO.P,C7,1*%
%TO.N,+3V3*%
X100965000Y-102235000D03*
%TO.P,C7,2*%
%TO.N,GND*%
X102865000Y-102235000D03*
%TD*%
D16*
%TO.P,R9,1*%
%TO.N,VO2*%
X128985000Y-119380000D03*
%TO.P,R9,2*%
%TO.N,Net-(U3-IN2-)*%
X130810000Y-119380000D03*
%TD*%
%TO.P,R20,1*%
%TO.N,Net-(U5-STAT)*%
X87352500Y-73025000D03*
%TO.P,R20,2*%
%TO.N,Net-(D1-K)*%
X89177500Y-73025000D03*
%TD*%
D15*
%TO.P,R21,1*%
%TO.N,+3V3*%
X90805000Y-111057500D03*
%TO.P,R21,2*%
%TO.N,BTN_NEXT*%
X90805000Y-109232500D03*
%TD*%
D14*
%TO.P,C9,1*%
%TO.N,+3V3*%
X113350000Y-94615000D03*
%TO.P,C9,2*%
%TO.N,GND*%
X115250000Y-94615000D03*
%TD*%
%TO.P,C11,1*%
%TO.N,Net-(U2-CAPP)*%
X111125000Y-102235000D03*
%TO.P,C11,2*%
%TO.N,Net-(U2-CAPM)*%
X113025000Y-102235000D03*
%TD*%
D15*
%TO.P,R10,1*%
%TO.N,DAC_OUTL*%
X137160000Y-126365000D03*
%TO.P,R10,2*%
%TO.N,Net-(U3-IN1-)*%
X137160000Y-124540000D03*
%TD*%
D17*
%TO.P,PLAY,1,1_1*%
%TO.N,GND*%
X79860000Y-94560000D03*
X86360000Y-94560000D03*
%TO.P,PLAY,2,2_2*%
%TO.N,BTN_PLAY*%
X79860000Y-99060000D03*
X86360000Y-99060000D03*
%TD*%
D16*
%TO.P,R15,1*%
%TO.N,+3V3*%
X139422500Y-80010000D03*
%TO.P,R15,2*%
%TO.N,ENC_A*%
X141247500Y-80010000D03*
%TD*%
D18*
%TO.P,D1,1,K_1*%
%TO.N,Net-(D1-K)*%
X79370000Y-61595000D03*
D19*
%TO.P,D1,2,A_2*%
%TO.N,+3V3*%
X81910000Y-61595000D03*
%TD*%
D14*
%TO.P,C21,1*%
%TO.N,GND*%
X95570000Y-81915000D03*
%TO.P,C21,2*%
%TO.N,VBAT*%
X97470000Y-81915000D03*
%TD*%
D17*
%TO.P,NEXT,1,1_1*%
%TO.N,GND*%
X79860000Y-105990000D03*
X86360000Y-105990000D03*
%TO.P,NEXT,2,2_2*%
%TO.N,BTN_NEXT*%
X79860000Y-110490000D03*
X86360000Y-110490000D03*
%TD*%
D14*
%TO.P,C1,1*%
%TO.N,+3V3*%
X134625000Y-92075000D03*
%TO.P,C1,2*%
%TO.N,GND*%
X136525000Y-92075000D03*
%TD*%
%TO.P,C2,1*%
%TO.N,+3V3*%
X139385000Y-92075000D03*
%TO.P,C2,2*%
%TO.N,GND*%
X141285000Y-92075000D03*
%TD*%
D20*
%TO.P,VOLUME,A,A_A*%
%TO.N,ENC_A*%
X144105000Y-56885000D03*
D17*
%TO.P,VOLUME,B,B_B*%
%TO.N,ENC_B*%
X139105000Y-56885000D03*
%TO.P,VOLUME,C,C_C*%
%TO.N,GND*%
X141605000Y-56885000D03*
D21*
%TO.P,VOLUME,MP*%
%TO.N,N/C*%
X147205000Y-64385000D03*
X136005000Y-64385000D03*
D17*
%TO.P,VOLUME,S1,S1_S1*%
%TO.N,GND*%
X139105000Y-71385000D03*
%TO.P,VOLUME,S2,S2_S2*%
%TO.N,ENC_BTN*%
X144105000Y-71385000D03*
%TD*%
D15*
%TO.P,R2,1*%
%TO.N,+3V3*%
X122555000Y-100965000D03*
%TO.P,R2,2*%
%TO.N,GPIO10*%
X122555000Y-99140000D03*
%TD*%
D22*
%TO.P,U3,1,BYPASS_1*%
%TO.N,Net-(U3-BYPASS)*%
X127145000Y-123955000D03*
%TO.P,U3,2,GND_2*%
%TO.N,GND*%
X127145000Y-124605000D03*
%TO.P,U3,3,SHDN_3*%
%TO.N,AMP_ENABLE*%
X127145000Y-125255000D03*
%TO.P,U3,4,IN2-_4*%
%TO.N,Net-(U3-IN2-)*%
X127145000Y-125905000D03*
%TO.P,U3,5,VO2_5*%
%TO.N,VO2*%
X131445000Y-125905000D03*
%TO.P,U3,6,VDD_6*%
%TO.N,+3V3*%
X131445000Y-125255000D03*
%TO.P,U3,7,VO1_7*%
%TO.N,VO1*%
X131445000Y-124605000D03*
%TO.P,U3,8,IN1-_8*%
%TO.N,Net-(U3-IN1-)*%
X131445000Y-123955000D03*
D23*
%TO.P,U3,9,GND_9*%
%TO.N,GND*%
X129295000Y-124930000D03*
%TD*%
D24*
%TO.P,U6,1,VIN_1*%
%TO.N,VBAT*%
X84455000Y-80015000D03*
%TO.P,U6,2,GND_2*%
%TO.N,GND*%
X84455000Y-80965000D03*
%TO.P,U6,3,EN_3*%
%TO.N,VBAT*%
X84455000Y-81915000D03*
%TO.P,U6,4,NC_4*%
%TO.N,unconnected-(U6-NC-Pad4)*%
X86730000Y-81915000D03*
%TO.P,U6,5,VOUT_5*%
%TO.N,+3V3*%
X86730000Y-80015000D03*
%TD*%
D14*
%TO.P,C5,1*%
%TO.N,+3V3*%
X144145000Y-86360000D03*
%TO.P,C5,2*%
%TO.N,GND*%
X146045000Y-86360000D03*
%TD*%
D16*
%TO.P,R13,1*%
%TO.N,I2C_SCL*%
X98425000Y-60960000D03*
%TO.P,R13,2*%
%TO.N,+3V3*%
X100250000Y-60960000D03*
%TD*%
D14*
%TO.P,C22,1*%
%TO.N,+3V3*%
X90490000Y-80010000D03*
%TO.P,C22,2*%
%TO.N,GND*%
X92390000Y-80010000D03*
%TD*%
%TO.P,C10,1*%
%TO.N,GND*%
X143830000Y-115570000D03*
%TO.P,C10,2*%
%TO.N,+3V3*%
X145730000Y-115570000D03*
%TD*%
D25*
%TO.P,U2,1,CPVDD_1*%
%TO.N,+3V3*%
X106357500Y-106930000D03*
%TO.P,U2,2,CAPP_2*%
%TO.N,Net-(U2-CAPP)*%
X106357500Y-107580000D03*
%TO.P,U2,3,CPGND_3*%
%TO.N,GND*%
X106357500Y-108230000D03*
%TO.P,U2,4,CAPM_4*%
%TO.N,Net-(U2-CAPM)*%
X106357500Y-108880000D03*
%TO.P,U2,5,VNEG_5*%
%TO.N,Net-(U2-VNEG)*%
X106357500Y-109530000D03*
%TO.P,U2,6,OUTL_6*%
%TO.N,Net-(U2-OUTL)*%
X106357500Y-110180000D03*
%TO.P,U2,7,OUTR_7*%
%TO.N,Net-(U2-OUTR)*%
X106357500Y-110830000D03*
%TO.P,U2,8,AVDD_8*%
%TO.N,+3V3*%
X106357500Y-111480000D03*
%TO.P,U2,9,AGND_9*%
%TO.N,GND*%
X106357500Y-112130000D03*
%TO.P,U2,10,DEMP_10*%
X106357500Y-112780000D03*
%TO.P,U2,11,FLT_11*%
X112082500Y-112780000D03*
%TO.P,U2,12,SCK_12*%
%TO.N,I2S_SCK*%
X112082500Y-112130000D03*
%TO.P,U2,13,BCK_13*%
%TO.N,I2S_BCK*%
X112082500Y-111480000D03*
%TO.P,U2,14,DIN_14*%
%TO.N,I2S_DIN*%
X112082500Y-110830000D03*
%TO.P,U2,15,LRCK_15*%
%TO.N,I2S_LRCK*%
X112082500Y-110180000D03*
%TO.P,U2,16,FMT_16*%
%TO.N,GND*%
X112082500Y-109530000D03*
%TO.P,U2,17,XSMT_17*%
%TO.N,DAC_MUTE*%
X112082500Y-108880000D03*
%TO.P,U2,18,LDOO_18*%
%TO.N,Net-(U2-LDOO)*%
X112082500Y-108230000D03*
%TO.P,U2,19,DGND_19*%
%TO.N,GND*%
X112082500Y-107580000D03*
%TO.P,U2,20,DVDD_20*%
%TO.N,+3V3*%
X112082500Y-106930000D03*
%TD*%
D14*
%TO.P,C14,1*%
%TO.N,Net-(U2-OUTR)*%
X116840000Y-116205000D03*
%TO.P,C14,2*%
%TO.N,DAC_OUTR*%
X118740000Y-116205000D03*
%TD*%
%TO.P,C8,1*%
%TO.N,+3V3*%
X142245000Y-123190000D03*
%TO.P,C8,2*%
%TO.N,GND*%
X144145000Y-123190000D03*
%TD*%
%TO.P,C15,1*%
%TO.N,Net-(U2-LDOO)*%
X115890000Y-100965000D03*
%TO.P,C15,2*%
%TO.N,GND*%
X117790000Y-100965000D03*
%TD*%
D26*
%TO.P,C16,1*%
%TO.N,Net-(U2-VNEG)*%
X115570000Y-107320000D03*
%TO.P,C16,2*%
%TO.N,GND*%
X115570000Y-109220000D03*
%TD*%
D16*
%TO.P,R23,1*%
%TO.N,GND*%
X77470000Y-137795000D03*
%TO.P,R23,2*%
%TO.N,Net-(J3-CC2)*%
X79295000Y-137795000D03*
%TD*%
%TO.P,R16,1*%
%TO.N,+3V3*%
X133985000Y-80010000D03*
%TO.P,R16,2*%
%TO.N,ENC_B*%
X135810000Y-80010000D03*
%TD*%
%TO.P,R11,1*%
%TO.N,VO1*%
X124182500Y-119380000D03*
%TO.P,R11,2*%
%TO.N,Net-(U3-IN1-)*%
X126007500Y-119380000D03*
%TD*%
%TO.P,R6,1*%
%TO.N,+3V3*%
X126445000Y-92075000D03*
%TO.P,R6,2*%
%TO.N,Net-(J1-DAT2)*%
X128270000Y-92075000D03*
%TD*%
D27*
%TO.P,C18,1*%
%TO.N,VO2*%
X125182621Y-137160000D03*
D28*
%TO.P,C18,2*%
%TO.N,HP_R*%
X127682621Y-137160000D03*
%TD*%
D15*
%TO.P,R3,1*%
%TO.N,GPIO13*%
X122555000Y-95527500D03*
%TO.P,R3,2*%
%TO.N,+3V3*%
X122555000Y-93702500D03*
%TD*%
D16*
%TO.P,R4,1*%
%TO.N,+3V3*%
X100052500Y-118110000D03*
%TO.P,R4,2*%
%TO.N,Net-(U1-EN)*%
X101877500Y-118110000D03*
%TD*%
D27*
%TO.P,C17,1*%
%TO.N,VO1*%
X132120000Y-137160000D03*
D28*
%TO.P,C17,2*%
%TO.N,HP_L*%
X134620000Y-137160000D03*
%TD*%
D16*
%TO.P,R14,1*%
%TO.N,+3V3*%
X93425000Y-60960000D03*
%TO.P,R14,2*%
%TO.N,I2C_SDA*%
X95250000Y-60960000D03*
%TD*%
%TO.P,R8,1*%
%TO.N,DAC_OUTR*%
X138510000Y-119380000D03*
%TO.P,R8,2*%
%TO.N,Net-(U3-IN2-)*%
X140335000Y-119380000D03*
%TD*%
D17*
%TO.P,BOOT,1,1_1*%
%TO.N,GND*%
X91365000Y-134910000D03*
X97865000Y-134910000D03*
%TO.P,BOOT,2,2_2*%
%TO.N,Net-(U1-IO0)*%
X91365000Y-139410000D03*
X97865000Y-139410000D03*
%TD*%
D15*
%TO.P,R5,1*%
%TO.N,+3V3*%
X122555000Y-105965000D03*
%TO.P,R5,2*%
%TO.N,Net-(J1-DAT1)*%
X122555000Y-104140000D03*
%TD*%
D16*
%TO.P,R19,1*%
%TO.N,ENC_BTN*%
X144860000Y-80010000D03*
%TO.P,R19,2*%
%TO.N,+3V3*%
X146685000Y-80010000D03*
%TD*%
%TO.P,R18,1*%
%TO.N,GND*%
X77550000Y-78740000D03*
%TO.P,R18,2*%
%TO.N,Net-(U5-PROG)*%
X79375000Y-78740000D03*
%TD*%
%TO.P,R12,1*%
%TO.N,GND*%
X133985000Y-121285000D03*
%TO.P,R12,2*%
%TO.N,AMP_ENABLE*%
X135810000Y-121285000D03*
%TD*%
D29*
%TO.P,C19,1*%
%TO.N,GND*%
X90805000Y-88260000D03*
%TO.P,C19,2*%
%TO.N,VDD*%
X90805000Y-86360000D03*
%TD*%
D14*
%TO.P,C20,1*%
%TO.N,GND*%
X85090000Y-87630000D03*
%TO.P,C20,2*%
%TO.N,VBAT*%
X86990000Y-87630000D03*
%TD*%
%TO.P,C13,1*%
%TO.N,Net-(U2-OUTL)*%
X96205000Y-114300000D03*
%TO.P,C13,2*%
%TO.N,DAC_OUTL*%
X98105000Y-114300000D03*
%TD*%
D17*
%TO.P,RESET,1,1_1*%
%TO.N,GND*%
X91365000Y-124115000D03*
X97865000Y-124115000D03*
%TO.P,RESET,2,2_2*%
%TO.N,Net-(U1-EN)*%
X91365000Y-128615000D03*
X97865000Y-128615000D03*
%TD*%
D30*
%TO.P,J3,A1,GND_A1*%
%TO.N,GND*%
X84480000Y-149720000D03*
%TO.P,J3,A4,VBUS_A4*%
%TO.N,VDD*%
X83680000Y-149720000D03*
D31*
%TO.P,J3,A5,CC1_A5*%
%TO.N,Net-(J3-CC1)*%
X82530000Y-149720000D03*
%TO.P,J3,A6,D+_A6*%
%TO.N,USB_DP*%
X81530000Y-149720000D03*
%TO.P,J3,A7,D-_A7*%
%TO.N,USB_DN*%
X81030000Y-149720000D03*
%TO.P,J3,A8*%
%TO.N,N/C*%
X80030000Y-149720000D03*
D30*
%TO.P,J3,A9,VBUS_A9*%
%TO.N,VDD*%
X78880000Y-149720000D03*
%TO.P,J3,A12,GND_A12*%
%TO.N,GND*%
X78080000Y-149720000D03*
%TO.P,J3,B1,GND_B1*%
X78080000Y-149720000D03*
%TO.P,J3,B4,VBUS_B4*%
%TO.N,VDD*%
X78880000Y-149720000D03*
D31*
%TO.P,J3,B5,CC2_B5*%
%TO.N,Net-(J3-CC2)*%
X79530000Y-149720000D03*
%TO.P,J3,B6,D+_B6*%
%TO.N,USB_DP*%
X80530000Y-149720000D03*
%TO.P,J3,B7,D-_B7*%
%TO.N,USB_DN*%
X82030000Y-149720000D03*
%TO.P,J3,B8*%
%TO.N,N/C*%
X83030000Y-149720000D03*
D30*
%TO.P,J3,B9,VBUS_B9*%
%TO.N,VDD*%
X83680000Y-149720000D03*
%TO.P,J3,B12,GND_B12*%
%TO.N,GND*%
X84480000Y-149720000D03*
D32*
%TO.P,J3,SH,SHIELD_SH*%
X85600000Y-149155000D03*
D33*
X85600000Y-144975000D03*
D32*
X76960000Y-149155000D03*
D33*
X76960000Y-144975000D03*
%TD*%
D34*
%TO.P,J1,1,DAT2_1*%
%TO.N,Net-(J1-DAT2)*%
X127140000Y-100420000D03*
%TO.P,J1,2,DAT3/CD_2*%
%TO.N,GPIO10*%
X127140000Y-101520000D03*
%TO.P,J1,3,CMD_3*%
%TO.N,GPIO11*%
X127140000Y-102620000D03*
%TO.P,J1,4,VDD_4*%
%TO.N,+3V3*%
X127140000Y-103720000D03*
%TO.P,J1,5,CLK_5*%
%TO.N,GPIO12*%
X127140000Y-104820000D03*
%TO.P,J1,6,VSS_6*%
%TO.N,GND*%
X127140000Y-105920000D03*
%TO.P,J1,7,DAT0_7*%
%TO.N,GPIO13*%
X127140000Y-107020000D03*
%TO.P,J1,8,DAT1_8*%
%TO.N,Net-(J1-DAT1)*%
X127140000Y-108120000D03*
%TO.P,J1,9*%
%TO.N,N/C*%
X127140000Y-109070000D03*
D35*
%TO.P,J1,10*%
X137640000Y-110020000D03*
D36*
%TO.P,J1,SH,SHIELD_SH*%
%TO.N,GND*%
X131440000Y-110020000D03*
D37*
X141790000Y-110020000D03*
D36*
X127140000Y-98870000D03*
D38*
X142240000Y-96520000D03*
%TD*%
D39*
%TO.P,U5,1,V_{DD}_1*%
%TO.N,VDD*%
X79405000Y-86765000D03*
%TO.P,U5,2,V_{DD}_2*%
X79405000Y-87265000D03*
%TO.P,U5,3,V_{BAT}_3*%
%TO.N,VBAT*%
X79405000Y-87765000D03*
%TO.P,U5,4,V_{BAT}_4*%
X79405000Y-88265000D03*
%TO.P,U5,5,STAT_5*%
%TO.N,Net-(U5-STAT)*%
X82305000Y-88265000D03*
%TO.P,U5,6,V_{SS}_6*%
%TO.N,GND*%
X82305000Y-87765000D03*
%TO.P,U5,7,NC_7*%
%TO.N,unconnected-(U5-NC-Pad7)*%
X82305000Y-87265000D03*
%TO.P,U5,8,PROG_8*%
%TO.N,Net-(U5-PROG)*%
X82305000Y-86765000D03*
D40*
%TO.P,U5,9*%
%TO.N,N/C*%
X80855000Y-87515000D03*
%TD*%
D41*
%TO.P,J2,R*%
%TO.N,HP_R*%
X144240000Y-143155000D03*
%TO.P,J2,RN*%
%TO.N,N/C*%
X142240000Y-141355000D03*
%TO.P,J2,S*%
%TO.N,GND*%
X142240000Y-135255000D03*
%TO.P,J2,T*%
%TO.N,HP_L*%
X144240000Y-137655000D03*
%TO.P,J2,TN*%
%TO.N,unconnected-(J2-PadTN)*%
X142240000Y-146855000D03*
%TD*%
D15*
%TO.P,R7,1*%
%TO.N,DAC_MUTE*%
X101600000Y-111045000D03*
%TO.P,R7,2*%
%TO.N,GND*%
X101600000Y-109220000D03*
%TD*%
D42*
%TO.P,U4,1,GND_1*%
%TO.N,GND*%
X94260000Y-74295000D03*
D43*
%TO.P,U4,2,VCC_2*%
%TO.N,+3V3*%
X94260000Y-71755000D03*
%TO.P,U4,3,SCL_3*%
%TO.N,I2C_SCL*%
X94260000Y-69215000D03*
%TO.P,U4,4,SDA_4*%
%TO.N,I2C_SDA*%
X94260000Y-66675000D03*
%TD*%
D16*
%TO.P,R22,1*%
%TO.N,GND*%
X83542500Y-137795000D03*
%TO.P,R22,2*%
%TO.N,Net-(J3-CC1)*%
X85367500Y-137795000D03*
%TD*%
D14*
%TO.P,C4,1*%
%TO.N,+3V3*%
X86045000Y-119380000D03*
%TO.P,C4,2*%
%TO.N,GND*%
X87945000Y-119380000D03*
%TD*%
D15*
%TO.P,R1,1*%
%TO.N,GPIO11*%
X122555000Y-110767500D03*
%TO.P,R1,2*%
%TO.N,+3V3*%
X122555000Y-108942500D03*
%TD*%
D44*
%TO.P,BT1,1,+_1*%
%TO.N,VBAT*%
X78195000Y-69485000D03*
D45*
%TO.P,BT1,2,-_2*%
%TO.N,GND*%
X78195000Y-71485000D03*
%TD*%
D46*
%TO.N,GND*%
X120650000Y-113030000D03*
X109220000Y-112395000D03*
X118110000Y-111760000D03*
X137795000Y-92710000D03*
X107360961Y-115491575D03*
X118110000Y-109220000D03*
X132080000Y-97790000D03*
X130810000Y-100965000D03*
X128270000Y-113030000D03*
X90805000Y-90170000D03*
X140970000Y-85090000D03*
X85090000Y-89535000D03*
X117475000Y-137795000D03*
X113665000Y-137160000D03*
%TO.N,+3V3*%
X139065000Y-128270000D03*
X127000000Y-112395000D03*
X132715000Y-128905000D03*
X99695000Y-105410000D03*
X121285000Y-112395000D03*
X124460000Y-101600000D03*
X102235000Y-114935000D03*
X125095000Y-98425000D03*
X141605000Y-117475000D03*
X112395000Y-106045000D03*
X119380000Y-109220000D03*
X109855000Y-107950000D03*
X104140000Y-104140000D03*
X131445000Y-113665000D03*
X125095000Y-111125000D03*
X104140000Y-107315000D03*
X107315000Y-105410000D03*
%TO.N,DAC_OUTL*%
X138430000Y-123190000D03*
X100012500Y-114617500D03*
%TO.N,DAC_OUTR*%
X120650000Y-114300000D03*
X135890000Y-118745000D03*
%TO.N,Net-(U2-OUTR)*%
X103505000Y-111760000D03*
X112395000Y-115570000D03*
%TO.N,VO1*%
X126365000Y-131445000D03*
X123825000Y-131445000D03*
X129540000Y-132080000D03*
%TO.N,VO2*%
X133985000Y-130810000D03*
X123825000Y-128905000D03*
X129540000Y-130175000D03*
X125095000Y-131445000D03*
%TO.N,VDD*%
X91440000Y-84455000D03*
X80010000Y-84455000D03*
%TO.N,Net-(D1-K)*%
X79370000Y-66035000D03*
X86995000Y-69850000D03*
%TO.N,GPIO12*%
X113030000Y-120650000D03*
X118110000Y-121920000D03*
%TO.N,Net-(J1-DAT1)*%
X124460000Y-107315000D03*
X120650000Y-107315000D03*
%TO.N,GPIO13*%
X111125000Y-115570000D03*
X129540000Y-107315000D03*
X121285000Y-96520000D03*
X118745000Y-96520000D03*
%TO.N,GPIO10*%
X116205000Y-118745000D03*
X122555000Y-97155000D03*
X128905000Y-100965000D03*
X118745000Y-98425000D03*
%TO.N,USB_DN*%
X81280000Y-144145000D03*
X118110000Y-126365000D03*
%TO.N,USB_DP*%
X92075000Y-119380000D03*
X121920000Y-123190000D03*
X81280000Y-147320000D03*
X98425000Y-121285000D03*
%TO.N,Net-(U3-IN2-)*%
X126365000Y-128270000D03*
X138430000Y-116205000D03*
X130810000Y-115570000D03*
X125095000Y-125730000D03*
%TO.N,Net-(U3-IN1-)*%
X136525000Y-122555000D03*
X125730000Y-121920000D03*
%TO.N,AMP_ENABLE*%
X133985000Y-123190000D03*
X129540000Y-122555000D03*
%TO.N,I2C_SCL*%
X100965000Y-80010000D03*
X123190000Y-127000000D03*
%TO.N,I2C_SDA*%
X117475000Y-120650000D03*
X90805000Y-66040000D03*
%TO.N,ENC_A*%
X105410000Y-137795000D03*
X142875000Y-82550000D03*
%TO.N,ENC_B*%
X101305073Y-138679781D03*
X133350000Y-76200000D03*
%TO.N,BTN_PLAY*%
X121920000Y-128270000D03*
X95250000Y-102870000D03*
X96520000Y-116840000D03*
%TO.N,ENC_BTN*%
X117475000Y-130175000D03*
X144780000Y-82550000D03*
%TO.N,Net-(U5-STAT)*%
X83820000Y-88265000D03*
X87630000Y-85090000D03*
%TO.N,BTN_NEXT*%
X88900000Y-107950000D03*
X120015000Y-119380000D03*
%TO.N,I2S_LRCK*%
X103505000Y-121285000D03*
X113665000Y-110490000D03*
X105410000Y-118745000D03*
X107950000Y-126365000D03*
%TO.N,I2S_DIN*%
X123190000Y-140970000D03*
X136525000Y-140970000D03*
X121920000Y-140335000D03*
X135255000Y-119380000D03*
X117475000Y-113030000D03*
X122555000Y-135255000D03*
%TO.N,I2S_BCK*%
X115570000Y-112395000D03*
X122555000Y-132715000D03*
X124460000Y-121920000D03*
X122958776Y-128038776D03*
%TO.N,I2S_SCK*%
X133985000Y-126365000D03*
X114300000Y-113030000D03*
X132080000Y-123190000D03*
X128270000Y-133350000D03*
X122555000Y-122555000D03*
X116840000Y-119380000D03*
X121285000Y-118110000D03*
X121920000Y-120015000D03*
%TD*%
%TO.N,GND*%
D47*
X118110000Y-111760000D02*
X118586250Y-111283750D01*
X143193000Y-85408000D02*
X145093000Y-85408000D01*
X91365000Y-123750000D02*
X87945000Y-120330000D01*
X120367157Y-113030000D02*
X120650000Y-113030000D01*
X141740000Y-97020000D02*
X141740000Y-109970000D01*
X143830000Y-115570000D02*
X144782000Y-114618000D01*
X140920500Y-80937000D02*
X140920500Y-81057948D01*
X133985000Y-118100000D02*
X133985000Y-121285000D01*
X112819999Y-107580000D02*
X112082500Y-107580000D01*
X144782000Y-114618000D02*
X146184506Y-114618000D01*
X116522000Y-107774506D02*
X116249506Y-108047000D01*
X95570000Y-81915000D02*
X95570000Y-94940000D01*
X118875500Y-99879500D02*
X126130500Y-99879500D01*
X141790000Y-110040000D02*
X143830000Y-112080000D01*
X92390000Y-80010000D02*
X92390000Y-76165000D01*
X90138000Y-133683000D02*
X91365000Y-134910000D01*
X112298000Y-102892000D02*
X112298000Y-101555494D01*
X120223791Y-112921291D02*
X120258448Y-112921291D01*
X85090000Y-87630000D02*
X82440000Y-87630000D01*
X87858578Y-142360000D02*
X87800000Y-142418578D01*
X140508000Y-79355494D02*
X140508000Y-80664506D01*
X115570000Y-109220000D02*
X116657448Y-109220000D01*
X146457000Y-114890494D02*
X146457000Y-120878000D01*
X144145000Y-133350000D02*
X144145000Y-123190000D01*
X117475000Y-138095000D02*
X117475000Y-137795000D01*
X143193000Y-82977291D02*
X143193000Y-85408000D01*
X142656709Y-83077000D02*
X143093291Y-83077000D01*
X129295000Y-124770000D02*
X129295000Y-124930000D01*
X127140000Y-98870000D02*
X129730000Y-98870000D01*
X84455000Y-80965000D02*
X84205184Y-80965000D01*
X146184506Y-114618000D02*
X146457000Y-114890494D01*
X79860000Y-105990000D02*
X86360000Y-105990000D01*
X92390000Y-80010000D02*
X94295000Y-81915000D01*
X116849000Y-109411552D02*
X116849000Y-109546500D01*
X85090000Y-89535000D02*
X85090000Y-87630000D01*
X128270000Y-113030000D02*
X128430000Y-113030000D01*
X116849000Y-109546500D02*
X118586250Y-111283750D01*
X105680000Y-140970000D02*
X103150000Y-140970000D01*
X118586250Y-111283750D02*
X120223791Y-112921291D01*
X91365000Y-124115000D02*
X97865000Y-124115000D01*
X141790000Y-110020000D02*
X141790000Y-110040000D01*
X117790000Y-101919000D02*
X117548224Y-102160776D01*
X127140000Y-105920000D02*
X132040000Y-105920000D01*
X116617000Y-100285494D02*
X116344506Y-100013000D01*
X82440000Y-87630000D02*
X82305000Y-87765000D01*
X85600000Y-149155000D02*
X85600000Y-144975000D01*
X130810000Y-102500000D02*
X130810000Y-100965000D01*
X106357500Y-112780000D02*
X108835000Y-112780000D01*
X95570000Y-94940000D02*
X102865000Y-102235000D01*
X112082500Y-112780000D02*
X111529780Y-112780000D01*
X101138000Y-117455494D02*
X101410494Y-117183000D01*
X106357500Y-108230000D02*
X106960000Y-108230000D01*
X127145000Y-124605000D02*
X128970000Y-124605000D01*
X86360000Y-94560000D02*
X79860000Y-94560000D01*
X135885000Y-116200000D02*
X133985000Y-118100000D01*
X84455000Y-131445000D02*
X86995000Y-131445000D01*
X132040000Y-105920000D02*
X132040000Y-103730000D01*
X77550000Y-78740000D02*
X78477000Y-77813000D01*
X87630000Y-132080000D02*
X87630000Y-136525000D01*
X117085776Y-102623224D02*
X116522000Y-103187000D01*
X91365000Y-124115000D02*
X91365000Y-123750000D01*
X78080000Y-150792448D02*
X78080000Y-149720000D01*
X145093000Y-85408000D02*
X146045000Y-86360000D01*
X79842006Y-77813000D02*
X82932000Y-80902994D01*
X140920500Y-81057948D02*
X142348000Y-82485448D01*
X142240000Y-96520000D02*
X141740000Y-97020000D01*
X116657448Y-109220000D02*
X116849000Y-109411552D01*
X91459506Y-110318000D02*
X90150494Y-110318000D01*
X84480000Y-149720000D02*
X85035000Y-149720000D01*
X143193000Y-85408000D02*
X141288000Y-85408000D01*
X116205000Y-108047000D02*
X116937000Y-108047000D01*
X91365000Y-124115000D02*
X90138000Y-125342000D01*
X86560000Y-151800000D02*
X79087552Y-151800000D01*
X113665000Y-137160000D02*
X113400000Y-136895000D01*
X107000000Y-115852536D02*
X107000000Y-118110000D01*
X106357500Y-108230000D02*
X102590000Y-108230000D01*
X76835000Y-135306000D02*
X76835000Y-123825000D01*
X113286999Y-108047000D02*
X112819999Y-107580000D01*
X78397000Y-136868000D02*
X77470000Y-137795000D01*
X78477000Y-77813000D02*
X79842006Y-77813000D01*
X141435000Y-110020000D02*
X141790000Y-110020000D01*
X87800000Y-142418578D02*
X87800000Y-142775000D01*
X137795000Y-92710000D02*
X137160000Y-92710000D01*
X133985000Y-121285000D02*
X132780000Y-121285000D01*
X132040000Y-103730000D02*
X130810000Y-102500000D01*
X139105000Y-59385000D02*
X139105000Y-71385000D01*
X140920500Y-79083000D02*
X140780494Y-79083000D01*
X107360961Y-115491575D02*
X107000000Y-115852536D01*
X146457000Y-120878000D02*
X144145000Y-123190000D01*
X86995000Y-139065000D02*
X87858578Y-139928578D01*
X140333000Y-91123000D02*
X141285000Y-92075000D01*
X88956506Y-105990000D02*
X91732000Y-108765494D01*
X117790000Y-100965000D02*
X117790000Y-101919000D01*
X111118000Y-109757001D02*
X111345001Y-109530000D01*
X101138000Y-120842000D02*
X101138000Y-117455494D01*
X129730000Y-98870000D02*
X131445000Y-97155000D01*
X140780494Y-79083000D02*
X140508000Y-79355494D01*
X86360000Y-105990000D02*
X88956506Y-105990000D01*
X77525000Y-149720000D02*
X76960000Y-149155000D01*
X85590494Y-120332000D02*
X86993000Y-120332000D01*
X92390000Y-76165000D02*
X94260000Y-74295000D01*
X117548224Y-102160776D02*
X116617000Y-101229552D01*
X115435494Y-100013000D02*
X115163000Y-100285494D01*
X90805000Y-88260000D02*
X90805000Y-90170000D01*
X139105000Y-77430000D02*
X140017500Y-76517500D01*
X89115000Y-137160000D02*
X91365000Y-134910000D01*
X128970000Y-124605000D02*
X129295000Y-124930000D01*
X135885000Y-115570000D02*
X141435000Y-110020000D01*
X141605000Y-56885000D02*
X139105000Y-59385000D01*
X86993000Y-120332000D02*
X87945000Y-119380000D01*
X97865000Y-134910000D02*
X97865000Y-135985000D01*
X131445000Y-97155000D02*
X136525000Y-92075000D01*
X97865000Y-135985000D02*
X102850000Y-140970000D01*
X106357500Y-112780000D02*
X106357500Y-112130000D01*
X115163000Y-100285494D02*
X115163000Y-101644506D01*
X82932000Y-87537999D02*
X82704999Y-87765000D01*
X87858578Y-139928578D02*
X87858578Y-142360000D01*
X76835000Y-123825000D02*
X84455000Y-131445000D01*
X78195000Y-74954816D02*
X78195000Y-71485000D01*
X113042999Y-107803000D02*
X111306780Y-107803000D01*
X109694999Y-109530000D02*
X107094999Y-112130000D01*
X141288000Y-85408000D02*
X140970000Y-85090000D01*
X86995000Y-131445000D02*
X87630000Y-132080000D01*
X137160000Y-92710000D02*
X136525000Y-92075000D01*
X91365000Y-134910000D02*
X97865000Y-134910000D01*
X120258448Y-112921291D02*
X120367157Y-113030000D01*
X107945000Y-102235000D02*
X106993000Y-101283000D01*
X91732000Y-110045506D02*
X91459506Y-110318000D01*
X111306780Y-107803000D02*
X111118000Y-107991780D01*
X107094999Y-112130000D02*
X106357500Y-112130000D01*
X83542500Y-137795000D02*
X87173750Y-134163750D01*
X86360000Y-101060000D02*
X79860000Y-94560000D01*
X111118000Y-109302999D02*
X111345001Y-109530000D01*
X140780494Y-80937000D02*
X140920500Y-80937000D01*
X143093291Y-83077000D02*
X143193000Y-82977291D01*
X140920500Y-77420500D02*
X140920500Y-79083000D01*
X102865000Y-102235000D02*
X102865000Y-107955000D01*
X116522000Y-103187000D02*
X116522000Y-107774506D01*
X94295000Y-81915000D02*
X95570000Y-81915000D01*
X136525000Y-92075000D02*
X137477000Y-91123000D01*
X78397000Y-136868000D02*
X76835000Y-135306000D01*
X87173750Y-134163750D02*
X76835000Y-123825000D01*
X85318000Y-115150494D02*
X85318000Y-120059506D01*
X78080000Y-149720000D02*
X77525000Y-149720000D01*
X111345001Y-109530000D02*
X112082500Y-109530000D01*
X87945000Y-120330000D02*
X87945000Y-119380000D01*
X128430000Y-113030000D02*
X131440000Y-110020000D01*
X86995000Y-137160000D02*
X86995000Y-139065000D01*
X112392000Y-101283000D02*
X115250000Y-98425000D01*
X87800000Y-142775000D02*
X85600000Y-144975000D01*
X120650000Y-140970000D02*
X120350000Y-140970000D01*
X112082500Y-109530000D02*
X109694999Y-109530000D01*
X85318000Y-120059506D02*
X85590494Y-120332000D01*
X111118000Y-107991780D02*
X111118000Y-109302999D01*
X86360000Y-105990000D02*
X86360000Y-101060000D01*
X139105000Y-71385000D02*
X139105000Y-77430000D01*
X116937000Y-108047000D02*
X118110000Y-109220000D01*
X84480000Y-149720000D02*
X86560000Y-151800000D01*
X137477000Y-91123000D02*
X140333000Y-91123000D01*
X102850000Y-140970000D02*
X103150000Y-140970000D01*
X112298000Y-101555494D02*
X112570494Y-101283000D01*
X116362029Y-101899477D02*
X117085776Y-102623224D01*
X82932000Y-80902994D02*
X82932000Y-87537999D01*
X85035000Y-149720000D02*
X85600000Y-149155000D01*
X90150494Y-110318000D02*
X85318000Y-115150494D01*
X116617000Y-101229552D02*
X116617000Y-100285494D01*
X102865000Y-107955000D02*
X101600000Y-109220000D01*
X142348000Y-82485448D02*
X142348000Y-82768291D01*
X132080000Y-97790000D02*
X131445000Y-97155000D01*
X132780000Y-121285000D02*
X129295000Y-124770000D01*
X86995000Y-137160000D02*
X89115000Y-137160000D01*
X142240000Y-135255000D02*
X144145000Y-133350000D01*
X112570494Y-101283000D02*
X112392000Y-101283000D01*
X102590000Y-108230000D02*
X101600000Y-109220000D01*
X106960000Y-108230000D02*
X112298000Y-102892000D01*
X116205000Y-108047000D02*
X113286999Y-108047000D01*
X113286999Y-108047000D02*
X113042999Y-107803000D01*
X131440000Y-111125000D02*
X135885000Y-115570000D01*
X82704999Y-87765000D02*
X82305000Y-87765000D01*
X91732000Y-108765494D02*
X91732000Y-110045506D01*
X117790000Y-100965000D02*
X118875500Y-99879500D01*
X141740000Y-109970000D02*
X141790000Y-110020000D01*
X115163000Y-101644506D02*
X115435494Y-101917000D01*
X113400000Y-133250000D02*
X105680000Y-140970000D01*
X140017500Y-76517500D02*
X140920500Y-77420500D01*
X116344506Y-100013000D02*
X115435494Y-100013000D01*
X108835000Y-112780000D02*
X109220000Y-112395000D01*
X84205184Y-80965000D02*
X78195000Y-74954816D01*
X101410494Y-117183000D02*
X106073000Y-117183000D01*
X113400000Y-136895000D02*
X113400000Y-133250000D01*
X103817000Y-101283000D02*
X102865000Y-102235000D01*
X79087552Y-151800000D02*
X78080000Y-150792448D01*
X78195000Y-78095000D02*
X77550000Y-78740000D01*
X126130500Y-99879500D02*
X127140000Y-98870000D01*
X106993000Y-101283000D02*
X103817000Y-101283000D01*
X135885000Y-115570000D02*
X135885000Y-116200000D01*
X142348000Y-82768291D02*
X142656709Y-83077000D01*
X90138000Y-125342000D02*
X90138000Y-133683000D01*
X111118000Y-112368220D02*
X111118000Y-109757001D01*
X115250000Y-98425000D02*
X117790000Y-100965000D01*
X87630000Y-136525000D02*
X86995000Y-137160000D01*
X76960000Y-149155000D02*
X76960000Y-144975000D01*
X97865000Y-124115000D02*
X101138000Y-120842000D01*
X106073000Y-117183000D02*
X107000000Y-118110000D01*
X116249506Y-108047000D02*
X116205000Y-108047000D01*
X131440000Y-110020000D02*
X131440000Y-111125000D01*
X115435494Y-101917000D02*
X116344506Y-101917000D01*
X143830000Y-112080000D02*
X143830000Y-115570000D01*
X120350000Y-140970000D02*
X117475000Y-138095000D01*
X115250000Y-94615000D02*
X115250000Y-98425000D01*
X78195000Y-71485000D02*
X78195000Y-78095000D01*
X116344506Y-101917000D02*
X116362029Y-101899477D01*
X111529780Y-112780000D02*
X111118000Y-112368220D01*
X140508000Y-80664506D02*
X140780494Y-80937000D01*
%TO.N,VBAT*%
X78605000Y-87765000D02*
X78105000Y-88265000D01*
X84455000Y-75460052D02*
X85513500Y-74401552D01*
X99805291Y-81915000D02*
X101492000Y-80228291D01*
X80783000Y-61128181D02*
X80783000Y-69671052D01*
X86995000Y-90805000D02*
X86995000Y-87630000D01*
X101492000Y-80228291D02*
X101492000Y-60807994D01*
X97470000Y-81915000D02*
X99805291Y-81915000D01*
X78195000Y-69485000D02*
X84455000Y-75745000D01*
X80783000Y-69671052D02*
X85513500Y-74401552D01*
X86995000Y-87630000D02*
X86990000Y-87630000D01*
X101492000Y-60807994D02*
X100390006Y-59706000D01*
X85513500Y-82973500D02*
X84455000Y-81915000D01*
X84455000Y-75745000D02*
X84455000Y-75460052D01*
X79405000Y-87765000D02*
X78605000Y-87765000D01*
X84455000Y-75745000D02*
X84455000Y-80015000D01*
X86990000Y-84450000D02*
X85513500Y-82973500D01*
X85513500Y-74401552D02*
X85513500Y-82973500D01*
X100390006Y-59706000D02*
X82205181Y-59706000D01*
X82205181Y-59706000D02*
X80783000Y-61128181D01*
X78105000Y-88265000D02*
X78105000Y-90805000D01*
X78105000Y-90805000D02*
X86995000Y-90805000D01*
X86990000Y-87630000D02*
X86990000Y-84450000D01*
X79405000Y-87765000D02*
X79405000Y-88265000D01*
%TO.N,+3V3*%
X100965000Y-104140000D02*
X99695000Y-105410000D01*
X130493000Y-126179266D02*
X131118000Y-126804266D01*
X122555000Y-93702500D02*
X125095000Y-96242500D01*
X109086334Y-107816334D02*
X109972668Y-106930000D01*
X122555000Y-93702500D02*
X122515500Y-93663000D01*
X139385000Y-92075000D02*
X140337000Y-93027000D01*
X142012000Y-91395494D02*
X141412506Y-90796000D01*
X90490000Y-75525000D02*
X90490000Y-80010000D01*
X129432000Y-115043000D02*
X127000000Y-112611000D01*
X87315000Y-118110000D02*
X100052500Y-118110000D01*
X142245000Y-125090000D02*
X139065000Y-128270000D01*
X94260000Y-71755000D02*
X90490000Y-75525000D01*
X121285000Y-111125000D02*
X121285000Y-112395000D01*
X142012000Y-92754506D02*
X142012000Y-91395494D01*
X145097000Y-87312000D02*
X144145000Y-86360000D01*
X123785000Y-104735000D02*
X124800000Y-103720000D01*
X86735000Y-80010000D02*
X86730000Y-80015000D01*
X142245000Y-118115000D02*
X141605000Y-117475000D01*
X126794775Y-136133000D02*
X124428115Y-136133000D01*
X112082500Y-106930000D02*
X112395000Y-106617500D01*
X128570467Y-136133000D02*
X128243467Y-135806000D01*
X121627000Y-139023000D02*
X120950000Y-139700000D01*
X123232000Y-139023000D02*
X121627000Y-139023000D01*
X145730000Y-115570000D02*
X142245000Y-119055000D01*
X141412506Y-90796000D02*
X135904000Y-90796000D01*
X88900000Y-81600000D02*
X90490000Y-80010000D01*
X131445000Y-125255000D02*
X130720001Y-125255000D01*
X131118000Y-126804266D02*
X131118000Y-135582000D01*
X122515500Y-93663000D02*
X114302000Y-93663000D01*
X131445000Y-114626291D02*
X131028291Y-115043000D01*
X104525000Y-106930000D02*
X104140000Y-107315000D01*
X129223000Y-87312000D02*
X126445000Y-90090000D01*
X106357500Y-106930000D02*
X104525000Y-106930000D01*
X124380000Y-101600000D02*
X123785000Y-102195000D01*
X102235000Y-114935000D02*
X100052500Y-117117500D01*
X139422500Y-80010000D02*
X139065000Y-80010000D01*
X96255000Y-97525000D02*
X90805000Y-97525000D01*
X126445000Y-92075000D02*
X126365000Y-92075000D01*
X139065000Y-80010000D02*
X136525000Y-82550000D01*
X133698000Y-93002000D02*
X127372000Y-93002000D01*
X100965000Y-102235000D02*
X96255000Y-97525000D01*
X122912500Y-108942500D02*
X122555000Y-108942500D01*
X132715000Y-128905000D02*
X132715000Y-125948734D01*
X142245000Y-123190000D02*
X142245000Y-125090000D01*
X107315000Y-105972500D02*
X106357500Y-106930000D01*
X131445000Y-113665000D02*
X131445000Y-114626291D01*
X142245000Y-119055000D02*
X142245000Y-123190000D01*
X107315000Y-105410000D02*
X107315000Y-105972500D01*
X130567000Y-136133000D02*
X128570467Y-136133000D01*
X130720001Y-125255000D02*
X130493000Y-125482001D01*
X86045000Y-119380000D02*
X86045000Y-115817500D01*
X141605000Y-87312000D02*
X145097000Y-87312000D01*
X146685000Y-80010000D02*
X146772000Y-80097000D01*
X88900000Y-70485000D02*
X90170000Y-71755000D01*
X100052500Y-117117500D02*
X100052500Y-118110000D01*
X86045000Y-119380000D02*
X87315000Y-118110000D01*
X104140000Y-104140000D02*
X106045000Y-102235000D01*
X136525000Y-82550000D02*
X141287000Y-87312000D01*
X123785000Y-102195000D02*
X123785000Y-104735000D01*
X122555000Y-100965000D02*
X123785000Y-102195000D01*
X124155621Y-137914506D02*
X124248057Y-138006943D01*
X141287000Y-87312000D02*
X141605000Y-87312000D01*
X109721334Y-107816334D02*
X109855000Y-107950000D01*
X127000000Y-112611000D02*
X127000000Y-112395000D01*
X106045000Y-106617500D02*
X106357500Y-106930000D01*
X122555000Y-108942500D02*
X122555000Y-105965000D01*
X124460000Y-101600000D02*
X124380000Y-101600000D01*
X109972668Y-106930000D02*
X112082500Y-106930000D01*
X93425000Y-60960000D02*
X82545000Y-60960000D01*
X112395000Y-106617500D02*
X112395000Y-106045000D01*
X125095000Y-111125000D02*
X122912500Y-108942500D01*
X124248057Y-138006943D02*
X123232000Y-139023000D01*
X124428115Y-136133000D02*
X124155621Y-136405494D01*
X90805000Y-97525000D02*
X88900000Y-95620000D01*
X131118000Y-135582000D02*
X130567000Y-136133000D01*
X93425000Y-60960000D02*
X88900000Y-65485000D01*
X82545000Y-60960000D02*
X81910000Y-61595000D01*
X124737500Y-93702500D02*
X122555000Y-93702500D01*
X133985000Y-80010000D02*
X136525000Y-82550000D01*
X100965000Y-102235000D02*
X100965000Y-104140000D01*
X134625000Y-92075000D02*
X133698000Y-93002000D01*
X146772000Y-87039506D02*
X146499506Y-87312000D01*
X124155621Y-136405494D02*
X124155621Y-137914506D01*
X126445000Y-90090000D02*
X126445000Y-92075000D01*
X93425000Y-60960000D02*
X94352000Y-60033000D01*
X120950000Y-139700000D02*
X120650000Y-139700000D01*
X132021266Y-125255000D02*
X131445000Y-125255000D01*
X146499506Y-87312000D02*
X145097000Y-87312000D01*
X128243467Y-135806000D02*
X127121775Y-135806000D01*
X132715000Y-125948734D02*
X132021266Y-125255000D01*
X108560110Y-108342558D02*
X109086334Y-107816334D01*
X86045000Y-115817500D02*
X90805000Y-111057500D01*
X88900000Y-95620000D02*
X88900000Y-81600000D01*
X119380000Y-109220000D02*
X121285000Y-111125000D01*
X94352000Y-60033000D02*
X99323000Y-60033000D01*
X122555000Y-105965000D02*
X123785000Y-104735000D01*
X125095000Y-96242500D02*
X125095000Y-98425000D01*
X114302000Y-93663000D02*
X113350000Y-94615000D01*
X130493000Y-125482001D02*
X130493000Y-126179266D01*
X88900000Y-65485000D02*
X88900000Y-70485000D01*
X127372000Y-93002000D02*
X126445000Y-92075000D01*
X106910220Y-111480000D02*
X108560110Y-109830110D01*
X109086334Y-107816334D02*
X109721334Y-107816334D01*
X131028291Y-115043000D02*
X129432000Y-115043000D01*
X127121775Y-135806000D02*
X126794775Y-136133000D01*
X146772000Y-80097000D02*
X146772000Y-87039506D01*
X108560110Y-109830110D02*
X108560110Y-108342558D01*
X90490000Y-80010000D02*
X86735000Y-80010000D01*
X90170000Y-71755000D02*
X94260000Y-71755000D01*
X141739506Y-93027000D02*
X142012000Y-92754506D01*
X135904000Y-90796000D02*
X134625000Y-92075000D01*
X141605000Y-87312000D02*
X129223000Y-87312000D01*
X126365000Y-92075000D02*
X124737500Y-93702500D01*
X142245000Y-119055000D02*
X142245000Y-118115000D01*
X124800000Y-103720000D02*
X127140000Y-103720000D01*
X140337000Y-93027000D02*
X141739506Y-93027000D01*
X106045000Y-102235000D02*
X106045000Y-106617500D01*
X99323000Y-60033000D02*
X100250000Y-60960000D01*
X106357500Y-111480000D02*
X106910220Y-111480000D01*
%TO.N,Net-(U1-EN)*%
X118002000Y-137576709D02*
X117693291Y-137268000D01*
X107454506Y-119062000D02*
X107727000Y-118789506D01*
X117583000Y-137268000D02*
X115904000Y-135589000D01*
X107327000Y-116840000D02*
X107630000Y-116840000D01*
X115712448Y-130746000D02*
X105410000Y-130746000D01*
X105410000Y-124917552D02*
X105218448Y-124726000D01*
X104775000Y-124187000D02*
X104238000Y-124187000D01*
X117693291Y-137268000D02*
X117583000Y-137268000D01*
X120650000Y-138430000D02*
X118745000Y-138430000D01*
X101877500Y-118110000D02*
X102477500Y-117510000D01*
X107454506Y-117158000D02*
X107327000Y-117158000D01*
X107630000Y-116840000D02*
X108900000Y-118110000D01*
X102477500Y-117510000D02*
X105937552Y-117510000D01*
X106273000Y-117845448D02*
X106273000Y-118789506D01*
X115904000Y-135589000D02*
X115904000Y-130937552D01*
X105218448Y-124726000D02*
X104775000Y-124726000D01*
X107727000Y-118789506D02*
X107727000Y-117430494D01*
X118002000Y-137687000D02*
X118002000Y-137576709D01*
X106545494Y-119062000D02*
X107454506Y-119062000D01*
X105937552Y-117510000D02*
X106273000Y-117845448D01*
X101877500Y-124602500D02*
X97865000Y-128615000D01*
X104775000Y-124726000D02*
X104775000Y-124187000D01*
X104238000Y-124187000D02*
X104238000Y-122233000D01*
X107327000Y-117158000D02*
X107327000Y-116840000D01*
X101877500Y-118110000D02*
X101877500Y-124602500D01*
X97865000Y-128615000D02*
X91365000Y-128615000D01*
X105097000Y-122233000D02*
X108900000Y-118430000D01*
X115904000Y-130937552D02*
X115712448Y-130746000D01*
X108900000Y-118430000D02*
X108900000Y-118110000D01*
X106273000Y-118789506D02*
X106545494Y-119062000D01*
X107727000Y-117430494D02*
X107454506Y-117158000D01*
X105410000Y-130746000D02*
X105410000Y-124917552D01*
X104238000Y-122233000D02*
X105097000Y-122233000D01*
X118745000Y-138430000D02*
X118002000Y-137687000D01*
%TO.N,Net-(U2-CAPP)*%
X111125000Y-102235000D02*
X111125000Y-103549999D01*
X107094999Y-107580000D02*
X106357500Y-107580000D01*
X111125000Y-103549999D02*
X107094999Y-107580000D01*
%TO.N,Net-(U2-CAPM)*%
X113025000Y-102235000D02*
X113025000Y-102949999D01*
X113025000Y-102949999D02*
X107094999Y-108880000D01*
X107094999Y-108880000D02*
X106357500Y-108880000D01*
%TO.N,Net-(U3-BYPASS)*%
X132644552Y-120958000D02*
X133042000Y-120958000D01*
X133642000Y-120358000D02*
X133658000Y-120342000D01*
X129844552Y-123758000D02*
X132644552Y-120958000D01*
X133245500Y-120754500D02*
X133245500Y-120630494D01*
X133245500Y-120630494D02*
X133517994Y-120358000D01*
X133985000Y-117637552D02*
X133985000Y-115570000D01*
X133658000Y-117964552D02*
X133985000Y-117637552D01*
X127145000Y-123955000D02*
X128283000Y-123955000D01*
X133658000Y-120342000D02*
X133658000Y-117964552D01*
X128283000Y-123955000D02*
X128283000Y-123758000D01*
X128283000Y-123758000D02*
X129844552Y-123758000D01*
X133517994Y-120358000D02*
X133642000Y-120358000D01*
X133042000Y-120958000D02*
X133245500Y-120754500D01*
%TO.N,DAC_OUTL*%
X137160000Y-126365000D02*
X138430000Y-125095000D01*
X100012500Y-114617500D02*
X99695000Y-114300000D01*
X99695000Y-114300000D02*
X98105000Y-114300000D01*
X138430000Y-125095000D02*
X138430000Y-123190000D01*
%TO.N,Net-(U2-OUTL)*%
X100325000Y-110180000D02*
X96205000Y-114300000D01*
X106357500Y-110180000D02*
X100325000Y-110180000D01*
%TO.N,DAC_OUTR*%
X120650000Y-114300000D02*
X120645000Y-114300000D01*
X120645000Y-114300000D02*
X118740000Y-116205000D01*
X138510000Y-119380000D02*
X136525000Y-119380000D01*
X136525000Y-119380000D02*
X135890000Y-118745000D01*
%TO.N,Net-(U2-OUTR)*%
X104435000Y-110830000D02*
X106357500Y-110830000D01*
X116205000Y-115570000D02*
X112395000Y-115570000D01*
X103505000Y-111760000D02*
X104435000Y-110830000D01*
X116840000Y-116205000D02*
X116205000Y-115570000D01*
%TO.N,Net-(U2-LDOO)*%
X118517000Y-101644506D02*
X118517000Y-100700448D01*
X119161709Y-109747000D02*
X119444552Y-109747000D01*
X122228000Y-114024552D02*
X119467000Y-116785552D01*
X116522000Y-108765494D02*
X116249506Y-108493000D01*
X112907551Y-108130000D02*
X113151551Y-108374000D01*
X119907000Y-109001709D02*
X119598291Y-108693000D01*
X116522000Y-108893000D02*
X116522000Y-108765494D01*
X116249506Y-108493000D02*
X114890494Y-108493000D01*
X114791971Y-108591523D02*
X114753448Y-108553000D01*
X119010948Y-100206500D02*
X121457046Y-100206500D01*
X120868291Y-114827000D02*
X121177000Y-114518291D01*
X119444552Y-109747000D02*
X120958000Y-111260448D01*
X121149552Y-113800448D02*
X121149552Y-113529552D01*
X118517000Y-100700448D02*
X119010948Y-100206500D01*
X121457046Y-100206500D02*
X119053000Y-102610546D01*
X120758000Y-112503000D02*
X120585448Y-112503000D01*
X118244506Y-101917000D02*
X118517000Y-101644506D01*
X113151551Y-108374000D02*
X114511000Y-108374000D01*
X121812000Y-112613291D02*
X121812000Y-112176709D01*
X111445000Y-108130000D02*
X112907551Y-108130000D01*
X116209058Y-101590000D02*
X115570942Y-101590000D01*
X114511000Y-108374000D02*
X114455001Y-108429999D01*
X116226581Y-101572477D02*
X116209058Y-101590000D01*
X121900494Y-111507000D02*
X122228000Y-111507000D01*
X121612000Y-110989552D02*
X119907000Y-109284552D01*
X115490000Y-100420942D02*
X115570942Y-100340000D01*
X121022645Y-113927354D02*
X121149552Y-113800448D01*
X119053000Y-107727948D02*
X121628000Y-110302948D01*
X118853000Y-109438291D02*
X119161709Y-109747000D01*
X119467000Y-115940448D02*
X120580448Y-114827000D01*
X114890494Y-108493000D02*
X114791971Y-108591523D01*
X121612000Y-111976709D02*
X121612000Y-110989552D01*
X120580448Y-114827000D02*
X120868291Y-114827000D01*
X116290000Y-101365000D02*
X116497477Y-101572477D01*
X121503291Y-112922000D02*
X121812000Y-112613291D01*
X112958220Y-108553000D02*
X112858220Y-108453000D01*
X115570942Y-100340000D02*
X116209058Y-100340000D01*
X118117000Y-101917000D02*
X118244506Y-101917000D01*
X114455001Y-108429999D02*
X112282499Y-108429999D01*
X116975448Y-108893000D02*
X116522000Y-108893000D01*
X119907000Y-109284552D02*
X119907000Y-109001709D01*
X119161709Y-108693000D02*
X118853000Y-109001709D01*
X120758000Y-112176709D02*
X120758000Y-112503000D01*
X115490000Y-101509058D02*
X115490000Y-100420942D01*
X121628000Y-111234506D02*
X121900494Y-111507000D01*
X122228000Y-111507000D02*
X122228000Y-114024552D01*
X119598291Y-108693000D02*
X119161709Y-108693000D01*
X116290000Y-100420942D02*
X116290000Y-101365000D01*
X121177000Y-112922000D02*
X121503291Y-112922000D01*
X121812000Y-112176709D02*
X121612000Y-111976709D01*
X115890000Y-100965000D02*
X116290000Y-101365000D01*
X121022645Y-113402645D02*
X121177000Y-113248291D01*
X120585448Y-112503000D02*
X116975448Y-108893000D01*
X118117000Y-102054448D02*
X118117000Y-101917000D01*
X114753448Y-108553000D02*
X112958220Y-108553000D01*
X117683672Y-102487776D02*
X118117000Y-102054448D01*
X118853000Y-109001709D02*
X118853000Y-109438291D01*
X120958000Y-111976709D02*
X120758000Y-112176709D01*
X121149552Y-113529552D02*
X121022645Y-113402645D01*
X121177000Y-113248291D02*
X121177000Y-112922000D01*
X117412776Y-102487776D02*
X117683672Y-102487776D01*
X111445000Y-108453000D02*
X111445000Y-108130000D01*
X115570942Y-101590000D02*
X115490000Y-101509058D01*
X119467000Y-116785552D02*
X119467000Y-115940448D01*
X112858220Y-108453000D02*
X111445000Y-108453000D01*
X121177000Y-114081709D02*
X121022645Y-113927354D01*
X116290000Y-101365000D02*
X117412776Y-102487776D01*
X116209058Y-100340000D02*
X116290000Y-100420942D01*
X119053000Y-102610546D02*
X119053000Y-107727948D01*
X121628000Y-110302948D02*
X121628000Y-111234506D01*
X112282499Y-108429999D02*
X112082500Y-108230000D01*
X120958000Y-111260448D02*
X120958000Y-111976709D01*
X116497477Y-101572477D02*
X116226581Y-101572477D01*
X121177000Y-114518291D02*
X121177000Y-114081709D01*
%TO.N,Net-(U2-VNEG)*%
X112390000Y-104140000D02*
X112300220Y-104140000D01*
X115570000Y-107320000D02*
X112390000Y-104140000D01*
X112300220Y-104140000D02*
X106910220Y-109530000D01*
X106910220Y-109530000D02*
X106357500Y-109530000D01*
%TO.N,HP_L*%
X135115000Y-137655000D02*
X134620000Y-137160000D01*
X144240000Y-137655000D02*
X135115000Y-137655000D01*
%TO.N,VO1*%
X122555000Y-128905000D02*
X122555000Y-130175000D01*
X124182500Y-122942791D02*
X124182500Y-127585500D01*
X122863000Y-128905000D02*
X122555000Y-128905000D01*
X128905000Y-131445000D02*
X129540000Y-132080000D01*
X131445000Y-124778000D02*
X131445000Y-124605000D01*
X124987000Y-120184500D02*
X124987000Y-122138291D01*
X133042000Y-127154448D02*
X133042000Y-125813286D01*
X135255000Y-129367448D02*
X133042000Y-127154448D01*
X135255000Y-134025000D02*
X135255000Y-129367448D01*
X133042000Y-125813286D02*
X132397000Y-125168286D01*
X122555000Y-130175000D02*
X123825000Y-131445000D01*
X124182500Y-127585500D02*
X122863000Y-128905000D01*
X126365000Y-131445000D02*
X128905000Y-131445000D01*
X132397000Y-124980734D02*
X132194266Y-124778000D01*
X124987000Y-122138291D02*
X124182500Y-122942791D01*
X132397000Y-125168286D02*
X132397000Y-124980734D01*
X132194266Y-124778000D02*
X131445000Y-124778000D01*
X132120000Y-137160000D02*
X135255000Y-134025000D01*
X124182500Y-119380000D02*
X124987000Y-120184500D01*
%TO.N,VO2*%
X125203000Y-126257000D02*
X124568000Y-126892000D01*
X126155643Y-125304357D02*
X125622000Y-125838000D01*
X125095000Y-131445000D02*
X126365000Y-130175000D01*
X125866000Y-125014714D02*
X126155643Y-125304357D01*
X125622000Y-125838000D02*
X125622000Y-125948291D01*
X131445000Y-128905000D02*
X131445000Y-125905000D01*
X133350000Y-130810000D02*
X131445000Y-128905000D01*
X130002448Y-137160000D02*
X131445000Y-135717448D01*
X125313291Y-126257000D02*
X125203000Y-126257000D01*
X125866000Y-123545286D02*
X125866000Y-125014714D01*
X128985000Y-122228000D02*
X127183286Y-122228000D01*
X126655621Y-136734602D02*
X127257223Y-136133000D01*
X125182621Y-137160000D02*
X126655621Y-137160000D01*
X128108019Y-136133000D02*
X128709621Y-136734602D01*
X131445000Y-135717448D02*
X131445000Y-125905000D01*
X126365000Y-130175000D02*
X129540000Y-130175000D01*
X133985000Y-130810000D02*
X133350000Y-130810000D01*
X128985000Y-119380000D02*
X128985000Y-122228000D01*
X124568000Y-128162000D02*
X123825000Y-128905000D01*
X128709621Y-137160000D02*
X130002448Y-137160000D01*
X127257223Y-136133000D02*
X128108019Y-136133000D01*
X128709621Y-136734602D02*
X128709621Y-137160000D01*
X126655621Y-137160000D02*
X126655621Y-136734602D01*
X127183286Y-122228000D02*
X125866000Y-123545286D01*
X125622000Y-125948291D02*
X125313291Y-126257000D01*
X124568000Y-126892000D02*
X124568000Y-128162000D01*
%TO.N,HP_R*%
X127682621Y-137160000D02*
X132882621Y-142360000D01*
X141946181Y-143155000D02*
X144240000Y-143155000D01*
X132882621Y-142360000D02*
X141151181Y-142360000D01*
X141151181Y-142360000D02*
X141946181Y-143155000D01*
%TO.N,VDD*%
X80203000Y-151131448D02*
X80509552Y-151438000D01*
X91440000Y-84455000D02*
X91440000Y-85725000D01*
X78880000Y-151130000D02*
X80203000Y-151130000D01*
X83953000Y-149720000D02*
X83680000Y-149720000D01*
X85735552Y-151438000D02*
X84804934Y-150507382D01*
X76200000Y-141605000D02*
X79153000Y-144558000D01*
X82410000Y-151130000D02*
X82718000Y-151438000D01*
X76200000Y-89707552D02*
X76200000Y-141605000D01*
X80203000Y-151130000D02*
X80203000Y-151131448D01*
X84804934Y-150507382D02*
X84790316Y-150522000D01*
X78642552Y-87265000D02*
X76200000Y-89707552D01*
X79153000Y-144558000D02*
X79153000Y-149447000D01*
X78880000Y-149720000D02*
X78880000Y-151130000D01*
X91440000Y-85725000D02*
X90805000Y-86360000D01*
X81415448Y-151438000D02*
X81723448Y-151130000D01*
X84790316Y-150522000D02*
X84169684Y-150522000D01*
X79405000Y-86765000D02*
X80010000Y-86160000D01*
X82718000Y-151438000D02*
X85735552Y-151438000D01*
X80509552Y-151438000D02*
X81415448Y-151438000D01*
X79153000Y-149447000D02*
X78880000Y-149720000D01*
X83953000Y-150305316D02*
X83953000Y-149720000D01*
X79405000Y-86765000D02*
X79405000Y-87265000D01*
X79405000Y-87265000D02*
X78642552Y-87265000D01*
X80010000Y-86160000D02*
X80010000Y-84455000D01*
X84169684Y-150522000D02*
X83953000Y-150305316D01*
X81723448Y-151130000D02*
X82410000Y-151130000D01*
%TO.N,Net-(D1-K)*%
X86995000Y-70842500D02*
X89177500Y-73025000D01*
X86995000Y-69850000D02*
X86995000Y-70842500D01*
X79370000Y-61595000D02*
X79370000Y-66035000D01*
%TO.N,GPIO12*%
X120542000Y-119161709D02*
X120233291Y-118853000D01*
X119346000Y-119586552D02*
X119346000Y-121920000D01*
X113030000Y-121285000D02*
X112535000Y-121780000D01*
X121812000Y-117891709D02*
X121812000Y-118328291D01*
X120650000Y-117475000D02*
X120650000Y-117783000D01*
X121503291Y-118637000D02*
X121066709Y-118637000D01*
X119796709Y-118853000D02*
X119488000Y-119161709D01*
X119346000Y-121920000D02*
X118110000Y-121920000D01*
X120650000Y-117783000D02*
X120866709Y-117783000D01*
X125622000Y-110906709D02*
X125622000Y-111555448D01*
X125622000Y-111555448D02*
X122555000Y-114622448D01*
X120866709Y-117783000D02*
X121066709Y-117583000D01*
X120000000Y-119907000D02*
X120233291Y-119907000D01*
X121066709Y-118637000D02*
X120866709Y-118437000D01*
X120866709Y-118437000D02*
X120650000Y-118437000D01*
X123933000Y-109217709D02*
X125622000Y-110906709D01*
X122555000Y-115570000D02*
X120650000Y-117475000D01*
X113030000Y-120650000D02*
X113030000Y-121285000D01*
X121503291Y-117583000D02*
X121812000Y-117891709D01*
X119488000Y-119444552D02*
X119346000Y-119586552D01*
X121066709Y-117583000D02*
X121503291Y-117583000D01*
X119488000Y-119161709D02*
X119488000Y-119444552D01*
X120015000Y-121920000D02*
X120000000Y-121920000D01*
X120650000Y-121285000D02*
X120015000Y-121920000D01*
X121812000Y-118328291D02*
X121503291Y-118637000D01*
X123933000Y-107096709D02*
X123933000Y-109217709D01*
X112535000Y-121780000D02*
X112535000Y-123210000D01*
X120650000Y-118437000D02*
X120650000Y-121285000D01*
X120233291Y-118853000D02*
X119796709Y-118853000D01*
X120542000Y-119598291D02*
X120542000Y-119161709D01*
X122555000Y-114622448D02*
X122555000Y-115570000D01*
X126209709Y-104820000D02*
X123933000Y-107096709D01*
X120233291Y-119907000D02*
X120542000Y-119598291D01*
X127140000Y-104820000D02*
X126209709Y-104820000D01*
X120000000Y-121920000D02*
X120000000Y-119907000D01*
%TO.N,Net-(J1-DAT2)*%
X142339000Y-92889954D02*
X135631954Y-99597000D01*
X129876000Y-90469000D02*
X141547954Y-90469000D01*
X135631954Y-99597000D02*
X127963000Y-99597000D01*
X127963000Y-99597000D02*
X127140000Y-100420000D01*
X128270000Y-92075000D02*
X129876000Y-90469000D01*
X142339000Y-91260046D02*
X142339000Y-92889954D01*
X141547954Y-90469000D02*
X142339000Y-91260046D01*
%TO.N,Net-(J1-DAT1)*%
X127140000Y-108120000D02*
X125265000Y-108120000D01*
X120650000Y-107315000D02*
X120650000Y-106045000D01*
X120650000Y-106045000D02*
X122555000Y-104140000D01*
X125265000Y-108120000D02*
X124460000Y-107315000D01*
%TO.N,GPIO13*%
X120650000Y-95527500D02*
X120650000Y-95885000D01*
X119737500Y-95527500D02*
X120650000Y-95527500D01*
X113030000Y-119380000D02*
X114935000Y-119380000D01*
X111265000Y-121145000D02*
X113030000Y-119380000D01*
X120650000Y-95885000D02*
X121285000Y-96520000D01*
X111265000Y-123210000D02*
X111265000Y-121145000D01*
X129245000Y-107020000D02*
X129540000Y-107315000D01*
X118745000Y-96520000D02*
X119737500Y-95527500D01*
X127140000Y-107020000D02*
X129245000Y-107020000D01*
X120650000Y-95527500D02*
X122555000Y-95527500D01*
X114935000Y-119380000D02*
X111125000Y-115570000D01*
%TO.N,GPIO11*%
X117294506Y-117157000D02*
X117567000Y-116884506D01*
X120123000Y-114359552D02*
X119212029Y-115270523D01*
X118285494Y-115253000D02*
X118013000Y-115525494D01*
X118013000Y-116884506D02*
X118285494Y-117157000D01*
X119212029Y-115270523D02*
X119194506Y-115253000D01*
X117543253Y-115501747D02*
X119053000Y-113992000D01*
X121900494Y-100225500D02*
X124493500Y-100225500D01*
X115070448Y-119707000D02*
X115262000Y-119515448D01*
X118013000Y-115525494D02*
X118013000Y-116884506D01*
X122555000Y-111371552D02*
X122363448Y-111180000D01*
X117567000Y-116884506D02*
X117567000Y-115525494D01*
X115262000Y-119244552D02*
X114531224Y-118513776D01*
X119331552Y-117112552D02*
X119602448Y-117112552D01*
X119602448Y-117112552D02*
X122555000Y-114160000D01*
X119285253Y-117066253D02*
X119331552Y-117112552D01*
X119194506Y-115253000D02*
X118285494Y-115253000D01*
X113805000Y-119707000D02*
X115070448Y-119707000D01*
X120212709Y-113992000D02*
X120123000Y-114081709D01*
X116136747Y-116908253D02*
X116385494Y-117157000D01*
X119053000Y-113992000D02*
X120212709Y-113992000D01*
X119380000Y-102745994D02*
X121900494Y-100225500D01*
X117567000Y-115525494D02*
X117543253Y-115501747D01*
X122277500Y-110767500D02*
X122555000Y-110767500D01*
X126888000Y-102620000D02*
X127140000Y-102620000D01*
X120123000Y-114081709D02*
X120123000Y-114359552D01*
X122363448Y-111180000D02*
X122035942Y-111180000D01*
X115262000Y-119515448D02*
X115262000Y-119244552D01*
X122035942Y-111180000D02*
X121955000Y-111099058D01*
X124493500Y-100225500D02*
X126888000Y-102620000D01*
X113805000Y-123210000D02*
X113805000Y-119707000D01*
X121955000Y-111090000D02*
X122277500Y-110767500D01*
X114531224Y-118513776D02*
X116136747Y-116908253D01*
X122555000Y-110767500D02*
X119380000Y-107592500D01*
X119380000Y-107592500D02*
X119380000Y-102745994D01*
X121955000Y-111099058D02*
X121955000Y-111090000D01*
X118285494Y-117157000D02*
X119194506Y-117157000D01*
X122555000Y-114160000D02*
X122555000Y-111371552D01*
X116385494Y-117157000D02*
X117294506Y-117157000D01*
X119194506Y-117157000D02*
X119285253Y-117066253D01*
%TO.N,GPIO10*%
X128350000Y-101520000D02*
X128905000Y-100965000D01*
X122555000Y-97155000D02*
X122555000Y-99140000D01*
X115075000Y-123210000D02*
X115075000Y-122260000D01*
X115075000Y-122260000D02*
X116205000Y-121130000D01*
X119460000Y-99140000D02*
X122555000Y-99140000D01*
X118745000Y-98425000D02*
X119460000Y-99140000D01*
X127140000Y-101520000D02*
X128350000Y-101520000D01*
X116205000Y-121130000D02*
X116205000Y-118745000D01*
%TO.N,Net-(J3-CC2)*%
X79530000Y-149720000D02*
X79530000Y-138030000D01*
X79530000Y-138030000D02*
X79295000Y-137795000D01*
%TO.N,USB_DN*%
X82203000Y-141952000D02*
X82203000Y-148972001D01*
X81280000Y-144145000D02*
X81280000Y-142240000D01*
X81030000Y-149145001D02*
X80010000Y-148125001D01*
X81915000Y-142240000D02*
X82203000Y-141952000D01*
X81280000Y-142240000D02*
X81915000Y-142240000D01*
X120650000Y-125730000D02*
X118745000Y-125730000D01*
X80010000Y-148125001D02*
X80010000Y-142240000D01*
X82203000Y-148972001D02*
X82030000Y-149145001D01*
X80010000Y-142240000D02*
X81280000Y-142240000D01*
X118745000Y-125730000D02*
X118110000Y-126365000D01*
X82030000Y-149145001D02*
X82030000Y-149720000D01*
X81030000Y-149720000D02*
X81030000Y-149145001D01*
%TO.N,Net-(J3-CC1)*%
X82530000Y-140632500D02*
X82530000Y-149720000D01*
X85367500Y-137795000D02*
X82530000Y-140632500D01*
%TO.N,USB_DP*%
X121920000Y-123190000D02*
X120650000Y-124460000D01*
X80530000Y-150996000D02*
X80645000Y-151111000D01*
X92075000Y-119380000D02*
X96520000Y-119380000D01*
X81530000Y-147570000D02*
X81280000Y-147320000D01*
X80530000Y-149720000D02*
X80530000Y-150996000D01*
X96520000Y-119380000D02*
X98425000Y-121285000D01*
X81280000Y-151111000D02*
X81530000Y-150861000D01*
X81530000Y-149720000D02*
X81530000Y-147570000D01*
X81530000Y-150861000D02*
X81530000Y-149720000D01*
X80645000Y-151111000D02*
X81280000Y-151111000D01*
%TO.N,DAC_MUTE*%
X116522000Y-109681948D02*
X118073052Y-111233000D01*
X117312029Y-115270523D02*
X117294506Y-115253000D01*
X112813291Y-115243000D02*
X112613291Y-115043000D01*
X120431709Y-113557000D02*
X120714552Y-113557000D01*
X118328291Y-112287000D02*
X118637000Y-111978291D01*
X117891709Y-112287000D02*
X118328291Y-112287000D01*
X117294506Y-115253000D02*
X116385494Y-115253000D01*
X120456157Y-113773000D02*
X120348157Y-113665000D01*
X117583000Y-111978291D02*
X117891709Y-112287000D01*
X114618000Y-108880000D02*
X114618000Y-109674506D01*
X116522000Y-109674506D02*
X116522000Y-109681948D01*
X118637000Y-111978291D02*
X118637000Y-111796948D01*
X112082500Y-108880000D02*
X114618000Y-108880000D01*
X117583000Y-111541709D02*
X117583000Y-111978291D01*
X112613291Y-115043000D02*
X112176709Y-115043000D01*
X116249506Y-109947000D02*
X116522000Y-109674506D01*
X117891709Y-111233000D02*
X117583000Y-111541709D01*
X101600000Y-111045000D02*
X104220000Y-113665000D01*
X111529780Y-108880000D02*
X112082500Y-108880000D01*
X120714552Y-113557000D02*
X120822552Y-113665000D01*
X111868000Y-115351709D02*
X111868000Y-115538000D01*
X114890494Y-109947000D02*
X116249506Y-109947000D01*
X116340448Y-115243000D02*
X112813291Y-115243000D01*
X120348157Y-113665000D02*
X118917552Y-113665000D01*
X116385494Y-115253000D02*
X116367971Y-115270523D01*
X104220000Y-113665000D02*
X109995000Y-113665000D01*
X120123000Y-113248291D02*
X120431709Y-113557000D01*
X114618000Y-109674506D02*
X114890494Y-109947000D01*
X120714551Y-113773000D02*
X120456157Y-113773000D01*
X116367971Y-115270523D02*
X116340448Y-115243000D01*
X112176709Y-115043000D02*
X111868000Y-115351709D01*
X120088343Y-113248291D02*
X120123000Y-113248291D01*
X120822552Y-113665000D02*
X120714551Y-113773000D01*
X109995000Y-123210000D02*
X109995000Y-113665000D01*
X111868000Y-115538000D02*
X109995000Y-113665000D01*
X118637000Y-111796948D02*
X120088343Y-113248291D01*
X118917552Y-113665000D02*
X117312029Y-115270523D01*
X118073052Y-111233000D02*
X117891709Y-111233000D01*
%TO.N,Net-(U3-IN2-)*%
X125095000Y-124460000D02*
X124895000Y-124260000D01*
X140335000Y-119380000D02*
X140335000Y-118110000D01*
X128517994Y-120307000D02*
X128245500Y-120034506D01*
X130175000Y-118745000D02*
X130810000Y-119380000D01*
X127047838Y-121901000D02*
X128658000Y-121901000D01*
X128658000Y-120307000D02*
X128517994Y-120307000D01*
X124895000Y-124260000D02*
X125539000Y-124260000D01*
X126365000Y-128270000D02*
X126365000Y-126685000D01*
X128245500Y-118725494D02*
X128517994Y-118453000D01*
X125095000Y-125730000D02*
X125095000Y-124460000D01*
X126365000Y-126685000D02*
X127145000Y-125905000D01*
X129724500Y-118725494D02*
X129724500Y-118745000D01*
X140335000Y-118110000D02*
X138430000Y-116205000D01*
X125539000Y-123409838D02*
X127047838Y-121901000D01*
X128245500Y-120034506D02*
X128245500Y-118725494D01*
X128517994Y-118453000D02*
X129452006Y-118453000D01*
X129452006Y-118453000D02*
X129724500Y-118725494D01*
X130810000Y-115570000D02*
X130810000Y-119380000D01*
X128658000Y-121901000D02*
X128658000Y-120307000D01*
X129724500Y-118745000D02*
X130175000Y-118745000D01*
X125539000Y-124260000D02*
X125539000Y-123409838D01*
%TO.N,Net-(U3-IN1-)*%
X136525000Y-122555000D02*
X136525000Y-123190000D01*
X131445000Y-123955000D02*
X131618000Y-124128000D01*
X136525000Y-123190000D02*
X137160000Y-123825000D01*
X132194266Y-124128000D02*
X132397000Y-124330734D01*
X132397000Y-124330734D02*
X132397000Y-124518286D01*
X132724000Y-124845286D02*
X132724000Y-125032838D01*
X132397000Y-124518286D02*
X132724000Y-124845286D01*
X131618000Y-124128000D02*
X132194266Y-124128000D01*
X126007500Y-119380000D02*
X126007500Y-121642500D01*
X126007500Y-121642500D02*
X125730000Y-121920000D01*
X132724000Y-125032838D02*
X133369000Y-125677838D01*
X137160000Y-123825000D02*
X137160000Y-124540000D01*
X134025000Y-127675000D02*
X137160000Y-124540000D01*
X133369000Y-127019000D02*
X134025000Y-127675000D01*
X133369000Y-125677838D02*
X133369000Y-127019000D01*
%TO.N,AMP_ENABLE*%
X129425104Y-127000000D02*
X126577104Y-129848000D01*
X128097000Y-125630734D02*
X128097000Y-126179266D01*
X127145000Y-125255000D02*
X126568734Y-125255000D01*
X134540000Y-122555000D02*
X135810000Y-121285000D01*
X126568734Y-125255000D02*
X126193000Y-124879266D01*
X124568000Y-131663291D02*
X124664906Y-131760198D01*
X133985000Y-123190000D02*
X134540000Y-122635000D01*
X124664906Y-131760198D02*
X123767552Y-132657552D01*
X124568000Y-131226709D02*
X124568000Y-131663291D01*
X134540000Y-122635000D02*
X134540000Y-122555000D01*
X123767552Y-132657552D02*
X121627000Y-130517000D01*
X127145000Y-125255000D02*
X127145000Y-125428000D01*
X126193000Y-124879266D02*
X126193000Y-123680734D01*
X126229552Y-129848000D02*
X125159552Y-130918000D01*
X126577104Y-129848000D02*
X126229552Y-129848000D01*
X128917734Y-127000000D02*
X129425104Y-127000000D01*
X127894266Y-125428000D02*
X128097000Y-125630734D01*
X127145000Y-125428000D02*
X127894266Y-125428000D01*
X125159552Y-130918000D02*
X124876709Y-130918000D01*
X121627000Y-130517000D02*
X121627000Y-130133000D01*
X127318734Y-122555000D02*
X129540000Y-122555000D01*
X124876709Y-130918000D02*
X124568000Y-131226709D01*
X121627000Y-130133000D02*
X121243000Y-130133000D01*
X126193000Y-123680734D02*
X127318734Y-122555000D01*
X128097000Y-126179266D02*
X128917734Y-127000000D01*
X121243000Y-130133000D02*
X120650000Y-129540000D01*
%TO.N,I2C_SCL*%
X123190000Y-127000000D02*
X120650000Y-127000000D01*
X95337000Y-67121109D02*
X95337000Y-66228891D01*
X94615000Y-67752000D02*
X94706109Y-67752000D01*
X94260000Y-69215000D02*
X94615000Y-69215000D01*
X100965000Y-75920000D02*
X100965000Y-80010000D01*
X94260000Y-69215000D02*
X100965000Y-75920000D01*
X95577000Y-63808000D02*
X98425000Y-60960000D01*
X94706109Y-67752000D02*
X95337000Y-67121109D01*
X94615000Y-69215000D02*
X94615000Y-67752000D01*
X95337000Y-66228891D02*
X95252778Y-66144669D01*
X95252778Y-66144669D02*
X95577000Y-65820448D01*
X95577000Y-65820448D02*
X95577000Y-63808000D01*
%TO.N,I2C_SDA*%
X91440000Y-66675000D02*
X90805000Y-66040000D01*
X94260000Y-66675000D02*
X95250000Y-65685000D01*
X95250000Y-65685000D02*
X95250000Y-60960000D01*
X94260000Y-66675000D02*
X91440000Y-66675000D01*
X117475000Y-120650000D02*
X116345000Y-121780000D01*
X116345000Y-121780000D02*
X116345000Y-123210000D01*
%TO.N,ENC_A*%
X141247500Y-80922500D02*
X141247500Y-80010000D01*
X142875000Y-82550000D02*
X141247500Y-80922500D01*
X103150000Y-139700000D02*
X103505000Y-139700000D01*
X141247500Y-59742500D02*
X144105000Y-56885000D01*
X103505000Y-139700000D02*
X105410000Y-137795000D01*
X141247500Y-80010000D02*
X141247500Y-59742500D01*
%TO.N,ENC_B*%
X135810000Y-78660000D02*
X133350000Y-76200000D01*
X135810000Y-80010000D02*
X135810000Y-78660000D01*
X101305073Y-138679781D02*
X102900219Y-138679781D01*
X102900219Y-138679781D02*
X103150000Y-138430000D01*
X137878000Y-77942000D02*
X135810000Y-80010000D01*
X139105000Y-56885000D02*
X137878000Y-58112000D01*
X137878000Y-58112000D02*
X137878000Y-77942000D01*
%TO.N,BTN_PLAY*%
X78633000Y-97833000D02*
X78633000Y-94051759D01*
X90805000Y-99350000D02*
X91730000Y-99350000D01*
X86868241Y-93333000D02*
X87587000Y-94051759D01*
X90805000Y-99350000D02*
X86650000Y-99350000D01*
X95250000Y-115570000D02*
X95250000Y-102870000D01*
X87587000Y-94051759D02*
X87587000Y-97833000D01*
X91730000Y-99350000D02*
X95250000Y-102870000D01*
X96520000Y-116840000D02*
X95250000Y-115570000D01*
X78633000Y-94051759D02*
X79351759Y-93333000D01*
X86650000Y-99350000D02*
X86360000Y-99060000D01*
X79860000Y-99060000D02*
X78633000Y-97833000D01*
X120650000Y-128270000D02*
X121920000Y-128270000D01*
X79351759Y-93333000D02*
X86868241Y-93333000D01*
X87587000Y-97833000D02*
X86360000Y-99060000D01*
%TO.N,Net-(U5-PROG)*%
X79375000Y-78740000D02*
X82550000Y-81915000D01*
X82550000Y-86520000D02*
X82305000Y-86765000D01*
X82550000Y-81915000D02*
X82550000Y-86520000D01*
%TO.N,ENC_BTN*%
X144105000Y-79255000D02*
X144860000Y-80010000D01*
X144860000Y-80010000D02*
X144860000Y-82470000D01*
X144860000Y-82470000D02*
X144780000Y-82550000D01*
X117475000Y-130175000D02*
X119380000Y-132080000D01*
X119380000Y-132080000D02*
X120650000Y-132080000D01*
X144105000Y-71385000D02*
X144105000Y-79255000D01*
%TO.N,Net-(U5-STAT)*%
X87352500Y-73025000D02*
X85840500Y-74537000D01*
X83820000Y-88265000D02*
X82305000Y-88265000D01*
X85840500Y-82838052D02*
X87630000Y-84627552D01*
X87630000Y-84627552D02*
X87630000Y-85090000D01*
X85840500Y-74537000D02*
X85840500Y-82838052D01*
%TO.N,BTN_NEXT*%
X119673000Y-119722000D02*
X120015000Y-119380000D01*
X120650000Y-130810000D02*
X120266000Y-130810000D01*
X88900000Y-108597500D02*
X88265000Y-109232500D01*
X120266000Y-130810000D02*
X117583000Y-128127000D01*
X79860000Y-110490000D02*
X86360000Y-110490000D01*
X117583000Y-128127000D02*
X117583000Y-126146709D01*
X117583000Y-126146709D02*
X119673000Y-124056709D01*
X88900000Y-107950000D02*
X88900000Y-108597500D01*
X86995000Y-110490000D02*
X88252500Y-109232500D01*
X88252500Y-109232500D02*
X88265000Y-109232500D01*
X119673000Y-124056709D02*
X119673000Y-119722000D01*
X86360000Y-110490000D02*
X86995000Y-110490000D01*
X88265000Y-109232500D02*
X90805000Y-109232500D01*
%TO.N,Net-(U1-IO0)*%
X105937000Y-138013291D02*
X105628291Y-138322000D01*
X105628291Y-137268000D02*
X105937000Y-137576709D01*
X105815448Y-141297000D02*
X105718000Y-141297000D01*
X105083000Y-140643000D02*
X105544552Y-140643000D01*
X105544552Y-140643000D02*
X111223000Y-134964552D01*
X105628291Y-138322000D02*
X105345448Y-138322000D01*
X105937000Y-137576709D02*
X105937000Y-138013291D01*
X100102000Y-141647000D02*
X97865000Y-139410000D01*
X115577000Y-131073000D02*
X115577000Y-142240000D01*
X105083000Y-137376709D02*
X105191709Y-137268000D01*
X103150000Y-124460000D02*
X103150000Y-125053000D01*
X105191709Y-137268000D02*
X105628291Y-137268000D01*
X105345448Y-138322000D02*
X105083000Y-138584448D01*
X103150000Y-125053000D02*
X105083000Y-125053000D01*
X105083000Y-138584448D02*
X105083000Y-140643000D01*
X106758448Y-142240000D02*
X105815448Y-141297000D01*
X111223000Y-134964552D02*
X111223000Y-131073000D01*
X105718000Y-141297000D02*
X105368000Y-141647000D01*
X97865000Y-139410000D02*
X91365000Y-139410000D01*
X105083000Y-125053000D02*
X105083000Y-137376709D01*
X105368000Y-141647000D02*
X100102000Y-141647000D01*
X111223000Y-131073000D02*
X115577000Y-131073000D01*
X115577000Y-142240000D02*
X106758448Y-142240000D01*
%TO.N,I2S_LRCK*%
X104775000Y-118745000D02*
X105410000Y-118745000D01*
X116948000Y-131519104D02*
X111793896Y-126365000D01*
X104775000Y-120015000D02*
X104775000Y-118745000D01*
X113355000Y-110180000D02*
X112082500Y-110180000D01*
X113665000Y-110490000D02*
X113355000Y-110180000D01*
X120015000Y-137160000D02*
X116948000Y-134093000D01*
X116948000Y-134093000D02*
X116948000Y-131519104D01*
X111793896Y-126365000D02*
X107950000Y-126365000D01*
X103505000Y-121285000D02*
X104775000Y-120015000D01*
X120650000Y-137160000D02*
X120015000Y-137160000D01*
%TO.N,I2S_DIN*%
X114300000Y-111125000D02*
X114935000Y-111760000D01*
X122555000Y-140335000D02*
X121920000Y-140335000D01*
X123190000Y-140970000D02*
X122555000Y-140335000D01*
X136525000Y-133350000D02*
X133593000Y-136282000D01*
X136525000Y-130064709D02*
X136525000Y-133350000D01*
X138957000Y-127632709D02*
X136525000Y-130064709D01*
X135365291Y-119380000D02*
X138957000Y-122971709D01*
X122555000Y-135255000D02*
X121920000Y-134620000D01*
X112930220Y-111125000D02*
X114300000Y-111125000D01*
X138957000Y-122971709D02*
X138957000Y-127632709D01*
X116205000Y-111760000D02*
X117475000Y-113030000D01*
X112305500Y-111053000D02*
X112858220Y-111053000D01*
X135255000Y-119380000D02*
X135365291Y-119380000D01*
X112082500Y-110830000D02*
X112305500Y-111053000D01*
X133593000Y-136282000D02*
X133593000Y-138038000D01*
X133593000Y-138038000D02*
X136525000Y-140970000D01*
X112858220Y-111053000D02*
X112930220Y-111125000D01*
X121920000Y-134620000D02*
X120650000Y-134620000D01*
X114935000Y-111760000D02*
X116205000Y-111760000D01*
%TO.N,I2S_BCK*%
X122971709Y-127527000D02*
X123408291Y-127527000D01*
X122555000Y-132715000D02*
X125095000Y-135255000D01*
X122971709Y-126473000D02*
X122771709Y-126673000D01*
X122958776Y-128038776D02*
X122848485Y-128038776D01*
X121627000Y-124753000D02*
X124460000Y-121920000D01*
X124208667Y-135890000D02*
X120650000Y-135890000D01*
X113385000Y-111480000D02*
X114300000Y-112395000D01*
X122771709Y-126673000D02*
X121627000Y-126673000D01*
X123717000Y-126781709D02*
X123408291Y-126473000D01*
X122771709Y-127327000D02*
X122971709Y-127527000D01*
X112082500Y-111480000D02*
X113385000Y-111480000D01*
X123408291Y-127527000D02*
X123717000Y-127218291D01*
X121627000Y-126673000D02*
X121627000Y-125137000D01*
X125095000Y-135806000D02*
X124292667Y-135806000D01*
X123717000Y-127218291D02*
X123717000Y-126781709D01*
X125095000Y-135255000D02*
X125095000Y-135806000D01*
X123408291Y-126473000D02*
X122971709Y-126473000D01*
X114300000Y-112395000D02*
X115570000Y-112395000D01*
X124292667Y-135806000D02*
X124208667Y-135890000D01*
X122136709Y-127327000D02*
X122771709Y-127327000D01*
X122848485Y-128038776D02*
X122136709Y-127327000D01*
X121627000Y-125053000D02*
X121627000Y-124753000D01*
X121627000Y-125137000D02*
X121627000Y-125053000D01*
%TO.N,I2S_SCK*%
X122336709Y-132188000D02*
X121174709Y-133350000D01*
X121920000Y-121920000D02*
X122555000Y-122555000D01*
X133985000Y-125095000D02*
X133985000Y-126365000D01*
X132080000Y-123190000D02*
X133985000Y-125095000D01*
X121920000Y-120015000D02*
X121920000Y-121920000D01*
X121174709Y-133350000D02*
X120650000Y-133350000D01*
X118110000Y-118110000D02*
X121285000Y-118110000D01*
X113400000Y-112130000D02*
X114300000Y-113030000D01*
X122773291Y-132188000D02*
X122336709Y-132188000D01*
X112082500Y-112130000D02*
X113400000Y-112130000D01*
X128270000Y-133350000D02*
X123935291Y-133350000D01*
X116840000Y-119380000D02*
X118110000Y-118110000D01*
X123935291Y-133350000D02*
X122773291Y-132188000D01*
%TD*%
M02*
