%TF.GenerationSoftware,KiCad,Pcbnew,10.0.3*%
%TF.CreationDate,2026-10-10T10:35:27+02:00*%
%TF.ProjectId,fuji-mini-v2,66756a69-2d6d-4696-9e69-2d76322e6b69,rev?*%
%TF.SameCoordinates,Original*%
%TF.FileFunction,Soldermask,Top*%
%TF.FilePolarity,Negative*%
%FSLAX46Y46*%
G04 Gerber Fmt 4.6, Leading zero omitted, Abs format (unit mm)*
G04 Created by KiCad (PCBNEW 10.0.3) date 2026-10-10 10:35:27*
%MOMM*%
%LPD*%
G01*
G04 APERTURE LIST*
G04 Aperture macros list*
%AMRoundRect*
0 Rectangle with rounded corners*
0 $1 Rounding radius*
0 $2 $3 $4 $5 $6 $7 $8 $9 X,Y pos of 4 corners*
0 Add a 4 corners polygon primitive as box body*
4,1,4,$2,$3,$4,$5,$6,$7,$8,$9,$2,$3,0*
0 Add four circle primitives for the rounded corners*
1,1,$1+$1,$2,$3*
1,1,$1+$1,$4,$5*
1,1,$1+$1,$6,$7*
1,1,$1+$1,$8,$9*
0 Add four rect primitives between the rounded corners*
20,1,$1+$1,$2,$3,$4,$5,0*
20,1,$1+$1,$4,$5,$6,$7,0*
20,1,$1+$1,$6,$7,$8,$9,0*
20,1,$1+$1,$8,$9,$2,$3,0*%
G04 Aperture macros list end*
%ADD10C,2.000000*%
%ADD11C,1.800000*%
%ADD12R,1.800000X1.800000*%
%ADD13R,2.000000X3.200000*%
%ADD14R,2.000000X2.000000*%
%ADD15RoundRect,0.250000X-0.250000X-0.475000X0.250000X-0.475000X0.250000X0.475000X-0.250000X0.475000X0*%
%ADD16RoundRect,0.250000X0.450000X-0.262500X0.450000X0.262500X-0.450000X0.262500X-0.450000X-0.262500X0*%
%ADD17RoundRect,0.250000X-0.262500X-0.450000X0.262500X-0.450000X0.262500X0.450000X-0.262500X0.450000X0*%
%ADD18RoundRect,0.125000X-0.600000X-0.125000X0.600000X-0.125000X0.600000X0.125000X-0.600000X0.125000X0*%
%ADD19R,1.570000X1.890000*%
%ADD20RoundRect,0.150000X-0.512500X-0.150000X0.512500X-0.150000X0.512500X0.150000X-0.512500X0.150000X0*%
%ADD21RoundRect,0.100000X-0.637500X-0.100000X0.637500X-0.100000X0.637500X0.100000X-0.637500X0.100000X0*%
%ADD22RoundRect,0.250000X-0.475000X0.250000X-0.475000X-0.250000X0.475000X-0.250000X0.475000X0.250000X0*%
%ADD23RoundRect,0.250000X-0.550000X-0.550000X0.550000X-0.550000X0.550000X0.550000X-0.550000X0.550000X0*%
%ADD24C,1.600000*%
%ADD25R,1.500000X0.900000*%
%ADD26R,0.900000X1.500000*%
%ADD27C,0.600000*%
%ADD28R,3.900000X3.900000*%
%ADD29RoundRect,0.250000X0.475000X-0.250000X0.475000X0.250000X-0.475000X0.250000X-0.475000X-0.250000X0*%
%ADD30R,1.200000X0.700000*%
%ADD31R,0.800000X1.000000*%
%ADD32R,1.200000X1.000000*%
%ADD33R,2.800000X1.000000*%
%ADD34R,1.900000X1.300000*%
%ADD35RoundRect,0.062500X-0.337500X-0.062500X0.337500X-0.062500X0.337500X0.062500X-0.337500X0.062500X0*%
%ADD36R,1.700000X1.400000*%
%ADD37C,0.650000*%
%ADD38RoundRect,0.150000X-0.150000X-0.425000X0.150000X-0.425000X0.150000X0.425000X-0.150000X0.425000X0*%
%ADD39RoundRect,0.075000X-0.075000X-0.500000X0.075000X-0.500000X0.075000X0.500000X-0.075000X0.500000X0*%
%ADD40O,1.000000X2.100000*%
%ADD41O,1.000000X1.600000*%
%ADD42O,2.800000X1.800000*%
%ADD43RoundRect,0.170000X0.680000X-0.680000X0.680000X0.680000X-0.680000X0.680000X-0.680000X-0.680000X0*%
%ADD44C,1.700000*%
%ADD45RoundRect,0.250000X-0.625000X0.350000X-0.625000X-0.350000X0.625000X-0.350000X0.625000X0.350000X0*%
%ADD46O,1.750000X1.200000*%
G04 APERTURE END LIST*
D10*
%TO.C,SW1*%
X97865000Y-128615000D03*
X91365000Y-128615000D03*
X97865000Y-124115000D03*
X91365000Y-124115000D03*
%TD*%
%TO.C,SW2*%
X97865000Y-139410000D03*
X91365000Y-139410000D03*
X97865000Y-134910000D03*
X91365000Y-134910000D03*
%TD*%
%TO.C,SW3*%
X79860000Y-94560000D03*
X86360000Y-94560000D03*
X79860000Y-99060000D03*
X86360000Y-99060000D03*
%TD*%
%TO.C,SW5*%
X79860000Y-105990000D03*
X86360000Y-105990000D03*
X79860000Y-110490000D03*
X86360000Y-110490000D03*
%TD*%
D11*
%TO.C,D1*%
X81910000Y-61595000D03*
D12*
X79370000Y-61595000D03*
%TD*%
D10*
%TO.C,SW4*%
X144105000Y-71385000D03*
X139105000Y-71385000D03*
D13*
X136005000Y-64385000D03*
X147205000Y-64385000D03*
D10*
X141605000Y-56885000D03*
X139105000Y-56885000D03*
D14*
X144105000Y-56885000D03*
%TD*%
D15*
%TO.C,C9*%
X115250000Y-94615000D03*
X113350000Y-94615000D03*
%TD*%
%TO.C,C12*%
X133985000Y-115570000D03*
X135885000Y-115570000D03*
%TD*%
D16*
%TO.C,R17*%
X90805000Y-99350000D03*
X90805000Y-97525000D03*
%TD*%
D15*
%TO.C,C6*%
X106045000Y-102235000D03*
X107945000Y-102235000D03*
%TD*%
%TO.C,C3*%
X107000000Y-118110000D03*
X108900000Y-118110000D03*
%TD*%
%TO.C,C7*%
X100965000Y-102235000D03*
X102865000Y-102235000D03*
%TD*%
D17*
%TO.C,R9*%
X128985000Y-119380000D03*
X130810000Y-119380000D03*
%TD*%
%TO.C,R20*%
X87352500Y-73025000D03*
X89177500Y-73025000D03*
%TD*%
D16*
%TO.C,R21*%
X90805000Y-111057500D03*
X90805000Y-109232500D03*
%TD*%
D15*
%TO.C,C11*%
X111125000Y-102235000D03*
X113025000Y-102235000D03*
%TD*%
D16*
%TO.C,R10*%
X137160000Y-126365000D03*
X137160000Y-124540000D03*
%TD*%
D17*
%TO.C,R15*%
X139422500Y-80010000D03*
X141247500Y-80010000D03*
%TD*%
D15*
%TO.C,C21*%
X95570000Y-81915000D03*
X97470000Y-81915000D03*
%TD*%
%TO.C,C1*%
X134625000Y-92075000D03*
X136525000Y-92075000D03*
%TD*%
%TO.C,C2*%
X139385000Y-92075000D03*
X141285000Y-92075000D03*
%TD*%
D16*
%TO.C,R2*%
X122555000Y-100965000D03*
X122555000Y-99140000D03*
%TD*%
D18*
%TO.C,U3*%
X127145000Y-123955000D03*
X127145000Y-124605000D03*
X127145000Y-125255000D03*
X127145000Y-125905000D03*
X131445000Y-125905000D03*
X131445000Y-125255000D03*
X131445000Y-124605000D03*
X131445000Y-123955000D03*
D19*
X129295000Y-124930000D03*
%TD*%
D20*
%TO.C,U6*%
X84455000Y-80015000D03*
X84455000Y-80965000D03*
X84455000Y-81915000D03*
X86730000Y-81915000D03*
X86730000Y-80015000D03*
%TD*%
D15*
%TO.C,C5*%
X144145000Y-86360000D03*
X146045000Y-86360000D03*
%TD*%
D17*
%TO.C,R13*%
X98425000Y-60960000D03*
X100250000Y-60960000D03*
%TD*%
D15*
%TO.C,C22*%
X90490000Y-80010000D03*
X92390000Y-80010000D03*
%TD*%
%TO.C,C10*%
X143830000Y-115570000D03*
X145730000Y-115570000D03*
%TD*%
D21*
%TO.C,U2*%
X106357500Y-106930000D03*
X106357500Y-107580000D03*
X106357500Y-108230000D03*
X106357500Y-108880000D03*
X106357500Y-109530000D03*
X106357500Y-110180000D03*
X106357500Y-110830000D03*
X106357500Y-111480000D03*
X106357500Y-112130000D03*
X106357500Y-112780000D03*
X112082500Y-112780000D03*
X112082500Y-112130000D03*
X112082500Y-111480000D03*
X112082500Y-110830000D03*
X112082500Y-110180000D03*
X112082500Y-109530000D03*
X112082500Y-108880000D03*
X112082500Y-108230000D03*
X112082500Y-107580000D03*
X112082500Y-106930000D03*
%TD*%
D15*
%TO.C,C14*%
X116840000Y-116205000D03*
X118740000Y-116205000D03*
%TD*%
%TO.C,C8*%
X142245000Y-123190000D03*
X144145000Y-123190000D03*
%TD*%
%TO.C,C15*%
X115890000Y-100965000D03*
X117790000Y-100965000D03*
%TD*%
D22*
%TO.C,C16*%
X115570000Y-107320000D03*
X115570000Y-109220000D03*
%TD*%
D17*
%TO.C,R23*%
X77470000Y-137795000D03*
X79295000Y-137795000D03*
%TD*%
%TO.C,R16*%
X133985000Y-80010000D03*
X135810000Y-80010000D03*
%TD*%
%TO.C,R11*%
X124182500Y-119380000D03*
X126007500Y-119380000D03*
%TD*%
%TO.C,R6*%
X126445000Y-92075000D03*
X128270000Y-92075000D03*
%TD*%
D23*
%TO.C,C18*%
X125182621Y-137160000D03*
D24*
X127682621Y-137160000D03*
%TD*%
D16*
%TO.C,R3*%
X122555000Y-95527500D03*
X122555000Y-93702500D03*
%TD*%
D17*
%TO.C,R4*%
X100052500Y-118110000D03*
X101877500Y-118110000D03*
%TD*%
D23*
%TO.C,C17*%
X132120000Y-137160000D03*
D24*
X134620000Y-137160000D03*
%TD*%
D17*
%TO.C,R14*%
X93425000Y-60960000D03*
X95250000Y-60960000D03*
%TD*%
%TO.C,R8*%
X138510000Y-119380000D03*
X140335000Y-119380000D03*
%TD*%
D16*
%TO.C,R5*%
X122555000Y-105965000D03*
X122555000Y-104140000D03*
%TD*%
D17*
%TO.C,R19*%
X144860000Y-80010000D03*
X146685000Y-80010000D03*
%TD*%
D25*
%TO.C,U1*%
X120650000Y-140970000D03*
X120650000Y-139700000D03*
X120650000Y-138430000D03*
X120650000Y-137160000D03*
X120650000Y-135890000D03*
X120650000Y-134620000D03*
X120650000Y-133350000D03*
X120650000Y-132080000D03*
X120650000Y-130810000D03*
X120650000Y-129540000D03*
X120650000Y-128270000D03*
X120650000Y-127000000D03*
X120650000Y-125730000D03*
X120650000Y-124460000D03*
D26*
X118885000Y-123210000D03*
X117615000Y-123210000D03*
X116345000Y-123210000D03*
X115075000Y-123210000D03*
X113805000Y-123210000D03*
X112535000Y-123210000D03*
X111265000Y-123210000D03*
X109995000Y-123210000D03*
X108725000Y-123210000D03*
X107455000Y-123210000D03*
X106185000Y-123210000D03*
X104915000Y-123210000D03*
D25*
X103150000Y-124460000D03*
X103150000Y-125730000D03*
X103150000Y-127000000D03*
X103150000Y-128270000D03*
X103150000Y-129540000D03*
X103150000Y-130810000D03*
X103150000Y-132080000D03*
X103150000Y-133350000D03*
X103150000Y-134620000D03*
X103150000Y-135890000D03*
X103150000Y-137160000D03*
X103150000Y-138430000D03*
X103150000Y-139700000D03*
X103150000Y-140970000D03*
D27*
X114800000Y-133950000D03*
X114800000Y-132550000D03*
X114100000Y-134650000D03*
X114100000Y-133250000D03*
X114100000Y-131850000D03*
X113400000Y-133950000D03*
D28*
X113400000Y-133250000D03*
D27*
X113400000Y-132550000D03*
X112700000Y-134650000D03*
X112700000Y-133250000D03*
X112700000Y-131850000D03*
X112000000Y-133950000D03*
X112000000Y-132550000D03*
%TD*%
D17*
%TO.C,R18*%
X77550000Y-78740000D03*
X79375000Y-78740000D03*
%TD*%
%TO.C,R12*%
X133985000Y-121285000D03*
X135810000Y-121285000D03*
%TD*%
D29*
%TO.C,C19*%
X90805000Y-88260000D03*
X90805000Y-86360000D03*
%TD*%
D15*
%TO.C,C20*%
X85090000Y-87630000D03*
X86990000Y-87630000D03*
%TD*%
%TO.C,C13*%
X96205000Y-114300000D03*
X98105000Y-114300000D03*
%TD*%
D30*
%TO.C,J1*%
X127140000Y-100420000D03*
X127140000Y-101520000D03*
X127140000Y-102620000D03*
X127140000Y-103720000D03*
X127140000Y-104820000D03*
X127140000Y-105920000D03*
X127140000Y-107020000D03*
X127140000Y-108120000D03*
X127140000Y-109070000D03*
D31*
X137640000Y-110020000D03*
D32*
X131440000Y-110020000D03*
D33*
X141790000Y-110020000D03*
D32*
X127140000Y-98870000D03*
D34*
X142240000Y-96520000D03*
%TD*%
D35*
%TO.C,U5*%
X79405000Y-86765000D03*
X79405000Y-87265000D03*
X79405000Y-87765000D03*
X79405000Y-88265000D03*
X82305000Y-88265000D03*
X82305000Y-87765000D03*
X82305000Y-87265000D03*
X82305000Y-86765000D03*
D36*
X80855000Y-87515000D03*
%TD*%
D37*
%TO.C,J3*%
X78655000Y-145680000D03*
X84435000Y-145680000D03*
D38*
X78345000Y-144615000D03*
X79145000Y-144615000D03*
D39*
X80295000Y-144615000D03*
X81295000Y-144615000D03*
X81795000Y-144615000D03*
X82795000Y-144615000D03*
D38*
X83945000Y-144615000D03*
X84745000Y-144615000D03*
X84745000Y-144615000D03*
X83945000Y-144615000D03*
D39*
X83295000Y-144615000D03*
X82295000Y-144615000D03*
X80795000Y-144615000D03*
X79795000Y-144615000D03*
D38*
X79145000Y-144615000D03*
X78345000Y-144615000D03*
D40*
X77225000Y-145180000D03*
D41*
X77225000Y-149360000D03*
D40*
X85865000Y-145180000D03*
D41*
X85865000Y-149360000D03*
%TD*%
D42*
%TO.C,J2*%
X141610000Y-138775000D03*
X143610000Y-140575000D03*
X143610000Y-146675000D03*
X141610000Y-144275000D03*
X143610000Y-135075000D03*
%TD*%
D16*
%TO.C,R7*%
X101600000Y-111045000D03*
X101600000Y-109220000D03*
%TD*%
D43*
%TO.C,U4*%
X94260000Y-74295000D03*
D44*
X94260000Y-71755000D03*
X94260000Y-69215000D03*
X94260000Y-66675000D03*
%TD*%
D17*
%TO.C,R22*%
X83542500Y-137795000D03*
X85367500Y-137795000D03*
%TD*%
D15*
%TO.C,C4*%
X86045000Y-119380000D03*
X87945000Y-119380000D03*
%TD*%
D16*
%TO.C,R1*%
X122555000Y-110767500D03*
X122555000Y-108942500D03*
%TD*%
D45*
%TO.C,BT1*%
X78195000Y-69485000D03*
D46*
X78195000Y-71485000D03*
%TD*%
M02*
