M48
; DRILL file KiCad 10.0.3 date 2026-10-07T18:49:45
; FORMAT={-:-/ absolute / metric / decimal}
; #@! TF.CreationDate,2026-10-07T18:49:45+02:00
; #@! TF.GenerationSoftware,Kicad,Pcbnew,10.0.3
; #@! TF.FileFunction,Plated,1,2,PTH
FMAT,2
METRIC
; #@! TA.AperFunction,Plated,PTH,ViaDrill
T1C0.300
; #@! TA.AperFunction,Plated,PTH,ComponentDrill
T2C0.300
; #@! TA.AperFunction,Plated,PTH,ComponentDrill
T3C0.600
; #@! TA.AperFunction,Plated,PTH,ComponentDrill
T4C0.750
; #@! TA.AperFunction,Plated,PTH,ComponentDrill
T5C0.800
; #@! TA.AperFunction,Plated,PTH,ComponentDrill
T6C0.900
; #@! TA.AperFunction,Plated,PTH,ComponentDrill
T7C1.000
; #@! TA.AperFunction,Plated,PTH,ComponentDrill
T8C1.100
; #@! TA.AperFunction,Plated,PTH,ComponentDrill
T9C1.500
%
G90
G05
T1
X79.37Y-66.035
X80.01Y-84.455
X81.28Y-144.145
X81.28Y-147.32
X83.82Y-88.265
X85.09Y-89.535
X86.995Y-69.85
X87.63Y-85.09
X88.9Y-107.95
X90.805Y-66.04
X90.805Y-90.17
X91.44Y-84.455
X92.075Y-119.38
X95.25Y-102.87
X96.52Y-116.84
X98.425Y-121.285
X99.695Y-105.41
X100.012Y-114.617
X100.965Y-80.01
X101.305Y-138.68
X102.235Y-114.935
X103.505Y-111.76
X103.505Y-121.285
X104.14Y-104.14
X104.14Y-107.315
X105.41Y-118.745
X105.41Y-137.795
X107.315Y-105.41
X107.361Y-115.492
X107.95Y-126.365
X109.22Y-112.395
X109.855Y-107.95
X111.125Y-115.57
X112.395Y-106.045
X112.395Y-115.57
X113.03Y-120.65
X113.665Y-110.49
X113.665Y-137.16
X114.3Y-113.03
X115.57Y-112.395
X116.205Y-118.745
X116.84Y-119.38
X117.475Y-113.03
X117.475Y-120.65
X117.475Y-130.175
X117.475Y-137.795
X118.11Y-109.22
X118.11Y-111.76
X118.11Y-121.92
X118.11Y-126.365
X118.745Y-96.52
X118.745Y-98.425
X119.38Y-109.22
X120.015Y-119.38
X120.65Y-107.315
X120.65Y-113.03
X120.65Y-114.3
X121.285Y-96.52
X121.285Y-112.395
X121.285Y-118.11
X121.92Y-120.015
X121.92Y-123.19
X121.92Y-128.27
X121.92Y-140.335
X122.555Y-97.155
X122.555Y-122.555
X122.555Y-132.715
X122.555Y-135.255
X122.959Y-128.039
X123.19Y-127.0
X123.19Y-140.97
X123.825Y-128.905
X123.825Y-131.445
X124.46Y-101.6
X124.46Y-107.315
X124.46Y-121.92
X125.095Y-98.425
X125.095Y-111.125
X125.095Y-125.73
X125.095Y-131.445
X125.73Y-121.92
X126.365Y-128.27
X126.365Y-131.445
X127.0Y-112.395
X128.27Y-113.03
X128.27Y-133.35
X128.905Y-100.965
X129.54Y-107.315
X129.54Y-122.555
X129.54Y-130.175
X129.54Y-132.08
X130.81Y-100.965
X130.81Y-115.57
X131.445Y-113.665
X132.08Y-97.79
X132.08Y-123.19
X132.715Y-128.905
X133.35Y-76.2
X133.985Y-123.19
X133.985Y-126.365
X133.985Y-130.81
X135.255Y-119.38
X135.89Y-118.745
X136.525Y-122.555
X136.525Y-140.97
X137.795Y-92.71
X138.43Y-116.205
X138.43Y-123.19
X139.065Y-128.27
X140.97Y-85.09
X141.605Y-117.475
X142.875Y-82.55
X144.78Y-82.55
T2
X112.0Y-132.55
X112.0Y-133.95
X112.7Y-131.85
X112.7Y-133.25
X112.7Y-134.65
X113.4Y-132.55
X113.4Y-133.95
X114.1Y-131.85
X114.1Y-133.25
X114.1Y-134.65
X114.8Y-132.55
X114.8Y-133.95
T4
X78.195Y-69.485
X78.195Y-71.485
T5
X125.183Y-137.16
X127.683Y-137.16
X132.12Y-137.16
X134.62Y-137.16
T6
X79.37Y-61.595
X81.91Y-61.595
T7
X94.26Y-66.675
X94.26Y-69.215
X94.26Y-71.755
X94.26Y-74.295
X139.105Y-56.885
X139.105Y-71.385
X141.605Y-56.885
X144.105Y-56.885
X144.105Y-71.385
T8
X79.86Y-94.56
X79.86Y-99.06
X79.86Y-105.99
X79.86Y-110.49
X86.36Y-94.56
X86.36Y-99.06
X86.36Y-105.99
X86.36Y-110.49
X91.365Y-124.115
X91.365Y-128.615
X91.365Y-134.91
X91.365Y-139.41
X97.865Y-124.115
X97.865Y-128.615
X97.865Y-134.91
X97.865Y-139.41
T3
G00X76.96Y-145.275
M15
G01X76.96Y-144.675
M16
G05
G00X76.96Y-149.705
M15
G01X76.96Y-148.605
M16
G05
G00X85.6Y-145.275
M15
G01X85.6Y-144.675
M16
G05
G00X85.6Y-149.705
M15
G01X85.6Y-148.605
M16
G05
T7
G00X141.74Y-135.255
M15
G01X142.74Y-135.255
M16
G05
G00X141.74Y-141.355
M15
G01X142.74Y-141.355
M16
G05
G00X141.74Y-146.855
M15
G01X142.74Y-146.855
M16
G05
G00X143.74Y-137.655
M15
G01X144.74Y-137.655
M16
G05
G00X143.74Y-143.155
M15
G01X144.74Y-143.155
M16
G05
T9
G00X136.005Y-63.735
M15
G01X136.005Y-65.035
M16
G05
G00X147.205Y-63.735
M15
G01X147.205Y-65.035
M16
G05
M30
