%TF.GenerationSoftware,KiCad,Pcbnew,10.0.3*%
%TF.CreationDate,2026-09-27T21:05:20+02:00*%
%TF.ProjectId,fuji-mini-v2,66756a69-2d6d-4696-9e69-2d76322e6b69,rev?*%
%TF.SameCoordinates,Original*%
%TF.FileFunction,Copper,L1,Top*%
%TF.FilePolarity,Positive*%
%FSLAX46Y46*%
G04 Gerber Fmt 4.6, Leading zero omitted, Abs format (unit mm)*
G04 Created by KiCad (PCBNEW 10.0.3) date 2026-09-27 21:05:20*
%MOMM*%
%LPD*%
G01*
G04 APERTURE LIST*
G04 Aperture macros list*
%AMRoundRect*
0 Rectangle with rounded corners*
0 $1 Rounding radius*
0 $2 $3 $4 $5 $6 $7 $8 $9 X,Y pos of 4 corners*
0 Add a 4 corners polygon primitive as box body*
4,1,4,$2,$3,$4,$5,$6,$7,$8,$9,$2,$3,0*
0 Add four circle primitives for the rounded corners*
1,1,$1+$1,$2,$3*
1,1,$1+$1,$4,$5*
1,1,$1+$1,$6,$7*
1,1,$1+$1,$8,$9*
0 Add four rect primitives between the rounded corners*
20,1,$1+$1,$2,$3,$4,$5,0*
20,1,$1+$1,$4,$5,$6,$7,0*
20,1,$1+$1,$6,$7,$8,$9,0*
20,1,$1+$1,$8,$9,$2,$3,0*%
G04 Aperture macros list end*
%TA.AperFunction,SMDPad,CuDef*%
%ADD10RoundRect,0.250000X0.475000X-0.250000X0.475000X0.250000X-0.475000X0.250000X-0.475000X-0.250000X0*%
%TD*%
%TA.AperFunction,ComponentPad*%
%ADD11C,2.000000*%
%TD*%
%TA.AperFunction,SMDPad,CuDef*%
%ADD12RoundRect,0.050000X-0.350000X-0.050000X0.350000X-0.050000X0.350000X0.050000X-0.350000X0.050000X0*%
%TD*%
%TA.AperFunction,SMDPad,CuDef*%
%ADD13RoundRect,0.050000X-0.050000X-0.350000X0.050000X-0.350000X0.050000X0.350000X-0.050000X0.350000X0*%
%TD*%
%TA.AperFunction,HeatsinkPad*%
%ADD14R,4.000000X4.000000*%
%TD*%
%TA.AperFunction,SMDPad,CuDef*%
%ADD15RoundRect,0.250000X-0.250000X-0.475000X0.250000X-0.475000X0.250000X0.475000X-0.250000X0.475000X0*%
%TD*%
%TA.AperFunction,SMDPad,CuDef*%
%ADD16RoundRect,0.100000X-0.637500X-0.100000X0.637500X-0.100000X0.637500X0.100000X-0.637500X0.100000X0*%
%TD*%
%TA.AperFunction,SMDPad,CuDef*%
%ADD17RoundRect,0.375000X-0.625000X-0.375000X0.625000X-0.375000X0.625000X0.375000X-0.625000X0.375000X0*%
%TD*%
%TA.AperFunction,SMDPad,CuDef*%
%ADD18RoundRect,0.500000X-0.500000X-1.400000X0.500000X-1.400000X0.500000X1.400000X-0.500000X1.400000X0*%
%TD*%
%TA.AperFunction,ComponentPad*%
%ADD19RoundRect,0.250000X-0.550000X-0.550000X0.550000X-0.550000X0.550000X0.550000X-0.550000X0.550000X0*%
%TD*%
%TA.AperFunction,ComponentPad*%
%ADD20C,1.600000*%
%TD*%
%TA.AperFunction,SMDPad,CuDef*%
%ADD21RoundRect,0.125000X-0.600000X-0.125000X0.600000X-0.125000X0.600000X0.125000X-0.600000X0.125000X0*%
%TD*%
%TA.AperFunction,HeatsinkPad*%
%ADD22R,1.570000X1.890000*%
%TD*%
%TA.AperFunction,SMDPad,CuDef*%
%ADD23RoundRect,0.062500X-0.337500X-0.062500X0.337500X-0.062500X0.337500X0.062500X-0.337500X0.062500X0*%
%TD*%
%TA.AperFunction,HeatsinkPad*%
%ADD24R,1.700000X1.400000*%
%TD*%
%TA.AperFunction,ComponentPad*%
%ADD25O,2.800000X1.800000*%
%TD*%
%TA.AperFunction,ComponentPad*%
%ADD26R,1.800000X1.800000*%
%TD*%
%TA.AperFunction,ComponentPad*%
%ADD27C,1.800000*%
%TD*%
%TA.AperFunction,SMDPad,CuDef*%
%ADD28RoundRect,0.150000X-0.150000X-0.425000X0.150000X-0.425000X0.150000X0.425000X-0.150000X0.425000X0*%
%TD*%
%TA.AperFunction,SMDPad,CuDef*%
%ADD29RoundRect,0.075000X-0.075000X-0.500000X0.075000X-0.500000X0.075000X0.500000X-0.075000X0.500000X0*%
%TD*%
%TA.AperFunction,ComponentPad*%
%ADD30O,1.000000X2.100000*%
%TD*%
%TA.AperFunction,ComponentPad*%
%ADD31O,1.000000X1.600000*%
%TD*%
%TA.AperFunction,ComponentPad*%
%ADD32R,2.000000X2.000000*%
%TD*%
%TA.AperFunction,ComponentPad*%
%ADD33R,3.200000X2.000000*%
%TD*%
%TA.AperFunction,ComponentPad*%
%ADD34RoundRect,0.250000X0.625000X-0.350000X0.625000X0.350000X-0.625000X0.350000X-0.625000X-0.350000X0*%
%TD*%
%TA.AperFunction,ComponentPad*%
%ADD35O,1.750000X1.200000*%
%TD*%
%TA.AperFunction,ComponentPad*%
%ADD36RoundRect,0.170000X0.680000X-0.680000X0.680000X0.680000X-0.680000X0.680000X-0.680000X-0.680000X0*%
%TD*%
%TA.AperFunction,ComponentPad*%
%ADD37C,1.700000*%
%TD*%
%TA.AperFunction,ViaPad*%
%ADD38C,0.600000*%
%TD*%
%TA.AperFunction,Conductor*%
%ADD39C,0.200000*%
%TD*%
G04 APERTURE END LIST*
D10*
%TO.P,C13,1*%
%TO.N,Net-(U3-BYPASS)*%
X107442000Y-102550000D03*
%TO.P,C13,2*%
%TO.N,3V3*%
X107442000Y-100650000D03*
%TD*%
D11*
%TO.P,PLAY/PAUSE1,1,1_1*%
%TO.N,3V3*%
X121210000Y-91730000D03*
X127710000Y-91730000D03*
%TO.P,PLAY/PAUSE1,2,2_2*%
%TO.N,BTN_PLAY*%
X121210000Y-96230000D03*
X127710000Y-96230000D03*
%TD*%
D12*
%TO.P,U1,1,LNA_IN_1*%
%TO.N,unconnected-(U1-LNA_IN-Pad1)*%
X104500000Y-91380000D03*
%TO.P,U1,2,VDD3P3_2*%
%TO.N,3V3*%
X104500000Y-91780000D03*
%TO.P,U1,3,VDD3P3_3*%
X104500000Y-92180000D03*
%TO.P,U1,4,CHIP_PU_4*%
%TO.N,Net-(U1-CHIP_PU)*%
X104500000Y-92580000D03*
%TO.P,U1,5,GPIO0_5*%
%TO.N,unconnected-(U1-GPIO0-Pad5)*%
X104500000Y-92980000D03*
%TO.P,U1,6,GPIO1_6*%
%TO.N,unconnected-(U1-GPIO1-Pad6)*%
X104500000Y-93380000D03*
%TO.P,U1,7,GPIO2_7*%
%TO.N,unconnected-(U1-GPIO2-Pad7)*%
X104500000Y-93780000D03*
%TO.P,U1,8,GPIO3_8*%
%TO.N,unconnected-(U1-GPIO3-Pad8)*%
X104500000Y-94180000D03*
%TO.P,U1,9,GPIO4_9*%
%TO.N,I2S_LRCK*%
X104500000Y-94580000D03*
%TO.P,U1,10,GPIO5_10*%
%TO.N,I2S_BCK*%
X104500000Y-94980000D03*
%TO.P,U1,11,GPIO6_11*%
%TO.N,I2S_DIN*%
X104500000Y-95380000D03*
%TO.P,U1,12,GPIO7_12*%
%TO.N,I2S_SCK*%
X104500000Y-95780000D03*
%TO.P,U1,13,GPIO8_13*%
%TO.N,I2C_SCL*%
X104500000Y-96180000D03*
%TO.P,U1,14,GPIO9_14*%
%TO.N,I2C_SDA*%
X104500000Y-96580000D03*
D13*
%TO.P,U1,15,GPIO10_15*%
%TO.N,GPIO10*%
X105350000Y-97430000D03*
%TO.P,U1,16,GPIO11_16*%
%TO.N,GPIO11*%
X105750000Y-97430000D03*
%TO.P,U1,17,GPIO12_17*%
%TO.N,GPIO12*%
X106150000Y-97430000D03*
%TO.P,U1,18,GPIO13_18*%
%TO.N,GPIO13*%
X106550000Y-97430000D03*
%TO.P,U1,19,GPIO14_19*%
%TO.N,DAC_MUTE*%
X106950000Y-97430000D03*
%TO.P,U1,20,VDD3P3_RTC_20*%
%TO.N,3V3*%
X107350000Y-97430000D03*
%TO.P,U1,21,XTAL_32K_P_21*%
%TO.N,unconnected-(U1-XTAL_32K_P-Pad21)*%
X107750000Y-97430000D03*
%TO.P,U1,22,XTAL_32K_N_22*%
%TO.N,unconnected-(U1-XTAL_32K_N-Pad22)*%
X108150000Y-97430000D03*
%TO.P,U1,23,GPIO17_23*%
%TO.N,AMP_ENABLE*%
X108550000Y-97430000D03*
%TO.P,U1,24,GPIO18_24*%
%TO.N,unconnected-(U1-GPIO18-Pad24)*%
X108950000Y-97430000D03*
%TO.P,U1,25,GPIO19/USB_D-_25*%
%TO.N,USB_DN*%
X109350000Y-97430000D03*
%TO.P,U1,26,GPIO20/USB_D+_26*%
%TO.N,USB_DP*%
X109750000Y-97430000D03*
%TO.P,U1,27,GPIO21_27*%
%TO.N,unconnected-(U1-GPIO21-Pad27)*%
X110150000Y-97430000D03*
%TO.P,U1,28,SPICS1_28*%
%TO.N,unconnected-(U1-SPICS1-Pad28)*%
X110550000Y-97430000D03*
D12*
%TO.P,U1,29,VDD_SPI_29*%
%TO.N,3V3*%
X111400000Y-96580000D03*
%TO.P,U1,30,SPIHD_30*%
%TO.N,unconnected-(U1-SPIHD-Pad30)*%
X111400000Y-96180000D03*
%TO.P,U1,31,SPIWP_31*%
%TO.N,unconnected-(U1-SPIWP-Pad31)*%
X111400000Y-95780000D03*
%TO.P,U1,32,SPICS0_32*%
%TO.N,unconnected-(U1-SPICS0-Pad32)*%
X111400000Y-95380000D03*
%TO.P,U1,33,SPICLK_33*%
%TO.N,unconnected-(U1-SPICLK-Pad33)*%
X111400000Y-94980000D03*
%TO.P,U1,34,SPIQ_34*%
%TO.N,unconnected-(U1-SPIQ-Pad34)*%
X111400000Y-94580000D03*
%TO.P,U1,35,SPID_35*%
%TO.N,unconnected-(U1-SPID-Pad35)*%
X111400000Y-94180000D03*
%TO.P,U1,36,SPICLK_N_36*%
%TO.N,unconnected-(U1-SPICLK_N-Pad36)*%
X111400000Y-93780000D03*
%TO.P,U1,37,SPICLK_P_37*%
%TO.N,unconnected-(U1-SPICLK_P-Pad37)*%
X111400000Y-93380000D03*
%TO.P,U1,38,GPIO33_38*%
%TO.N,unconnected-(U1-GPIO33-Pad38)*%
X111400000Y-92980000D03*
%TO.P,U1,39,GPIO34_39*%
%TO.N,unconnected-(U1-GPIO34-Pad39)*%
X111400000Y-92580000D03*
%TO.P,U1,40,GPIO35_40*%
%TO.N,unconnected-(U1-GPIO35-Pad40)*%
X111400000Y-92180000D03*
%TO.P,U1,41,GPIO36_41*%
%TO.N,unconnected-(U1-GPIO36-Pad41)*%
X111400000Y-91780000D03*
%TO.P,U1,42,GPIO37_42*%
%TO.N,unconnected-(U1-GPIO37-Pad42)*%
X111400000Y-91380000D03*
D13*
%TO.P,U1,43,GPIO38_43*%
%TO.N,unconnected-(U1-GPIO38-Pad43)*%
X110550000Y-90530000D03*
%TO.P,U1,44,MTCK_44*%
%TO.N,unconnected-(U1-MTCK-Pad44)*%
X110150000Y-90530000D03*
%TO.P,U1,45,MTDO_45*%
%TO.N,unconnected-(U1-MTDO-Pad45)*%
X109750000Y-90530000D03*
%TO.P,U1,46,VDD3P3_CPU_46*%
%TO.N,3V3*%
X109350000Y-90530000D03*
%TO.P,U1,47,MTDI_47*%
%TO.N,unconnected-(U1-MTDI-Pad47)*%
X108950000Y-90530000D03*
%TO.P,U1,48,MTMS_48*%
%TO.N,unconnected-(U1-MTMS-Pad48)*%
X108550000Y-90530000D03*
%TO.P,U1,49,U0TXD_49*%
%TO.N,unconnected-(U1-U0TXD-Pad49)*%
X108150000Y-90530000D03*
%TO.P,U1,50,U0RXD_50*%
%TO.N,unconnected-(U1-U0RXD-Pad50)*%
X107750000Y-90530000D03*
%TO.P,U1,51,GPIO45_51*%
%TO.N,unconnected-(U1-GPIO45-Pad51)*%
X107350000Y-90530000D03*
%TO.P,U1,52,GPIO46_52*%
%TO.N,unconnected-(U1-GPIO46-Pad52)*%
X106950000Y-90530000D03*
%TO.P,U1,53,XTAL_N_53*%
%TO.N,unconnected-(U1-XTAL_N-Pad53)*%
X106550000Y-90530000D03*
%TO.P,U1,54,XTAL_P_54*%
%TO.N,unconnected-(U1-XTAL_P-Pad54)*%
X106150000Y-90530000D03*
%TO.P,U1,55,VDDA_55*%
%TO.N,3V3*%
X105750000Y-90530000D03*
%TO.P,U1,56,VDDA_56*%
X105350000Y-90530000D03*
D14*
%TO.P,U1,57,GND_57*%
X107950000Y-93980000D03*
%TD*%
D15*
%TO.P,C11,1*%
%TO.N,3V3*%
X124714000Y-84836000D03*
%TO.P,C11,2*%
X126614000Y-84836000D03*
%TD*%
D10*
%TO.P,C12,1*%
%TO.N,Net-(U2-CAPP)*%
X134874000Y-99248000D03*
%TO.P,C12,2*%
%TO.N,Net-(U2-CAPM)*%
X134874000Y-97348000D03*
%TD*%
D16*
%TO.P,U2,1,CPVDD_1*%
%TO.N,3V3*%
X96197500Y-104009000D03*
%TO.P,U2,2,CAPP_2*%
%TO.N,Net-(U2-CAPP)*%
X96197500Y-104659000D03*
%TO.P,U2,3,CPGND_3*%
%TO.N,3V3*%
X96197500Y-105309000D03*
%TO.P,U2,4,CAPM_4*%
%TO.N,Net-(U2-CAPM)*%
X96197500Y-105959000D03*
%TO.P,U2,5,VNEG_5*%
%TO.N,Net-(U2-VNEG)*%
X96197500Y-106609000D03*
%TO.P,U2,6,OUTL_6*%
%TO.N,Net-(U2-OUTL)*%
X96197500Y-107259000D03*
%TO.P,U2,7,OUTR_7*%
%TO.N,Net-(U2-OUTR)*%
X96197500Y-107909000D03*
%TO.P,U2,8,AVDD_8*%
%TO.N,3V3*%
X96197500Y-108559000D03*
%TO.P,U2,9,AGND_9*%
X96197500Y-109209000D03*
%TO.P,U2,10,DEMP_10*%
X96197500Y-109859000D03*
%TO.P,U2,11,FLT_11*%
X101922500Y-109859000D03*
%TO.P,U2,12,SCK_12*%
%TO.N,I2S_SCK*%
X101922500Y-109209000D03*
%TO.P,U2,13,BCK_13*%
%TO.N,I2S_BCK*%
X101922500Y-108559000D03*
%TO.P,U2,14,DIN_14*%
%TO.N,I2S_DIN*%
X101922500Y-107909000D03*
%TO.P,U2,15,LRCK_15*%
%TO.N,I2S_LRCK*%
X101922500Y-107259000D03*
%TO.P,U2,16,FMT_16*%
%TO.N,3V3*%
X101922500Y-106609000D03*
%TO.P,U2,17,XSMT_17*%
%TO.N,DAC_MUTE*%
X101922500Y-105959000D03*
%TO.P,U2,18,LDOO_18*%
%TO.N,Net-(U2-LDOO)*%
X101922500Y-105309000D03*
%TO.P,U2,19,DGND_19*%
%TO.N,3V3*%
X101922500Y-104659000D03*
%TO.P,U2,20,DVDD_20*%
X101922500Y-104009000D03*
%TD*%
D15*
%TO.P,C10,1*%
%TO.N,3V3*%
X112842000Y-86614000D03*
%TO.P,C10,2*%
X114742000Y-86614000D03*
%TD*%
%TO.P,C3,1*%
%TO.N,3V3*%
X98684000Y-90678000D03*
%TO.P,C3,2*%
X100584000Y-90678000D03*
%TD*%
D17*
%TO.P,U6,1,GND_1*%
%TO.N,3V3*%
X85496000Y-104888000D03*
%TO.P,U6,2,VO_2*%
X85496000Y-107188000D03*
D18*
X91796000Y-107188000D03*
D17*
%TO.P,U6,3,VI_3*%
%TO.N,VBAT*%
X85496000Y-109488000D03*
%TD*%
D15*
%TO.P,C1,1*%
%TO.N,3V3*%
X114874000Y-92710000D03*
%TO.P,C1,2*%
%TO.N,Net-(J1-VDD)*%
X116774000Y-92710000D03*
%TD*%
%TO.P,C2,1*%
%TO.N,3V3*%
X90556000Y-86106000D03*
%TO.P,C2,2*%
X92456000Y-86106000D03*
%TD*%
%TO.P,C16,1*%
%TO.N,Net-(U2-LDOO)*%
X81666000Y-99568000D03*
%TO.P,C16,2*%
%TO.N,3V3*%
X83566000Y-99568000D03*
%TD*%
%TO.P,C9,1*%
%TO.N,3V3*%
X132146000Y-84074000D03*
%TO.P,C9,2*%
X134046000Y-84074000D03*
%TD*%
D10*
%TO.P,C5,1*%
%TO.N,3V3*%
X134874000Y-103698000D03*
%TO.P,C5,2*%
X134874000Y-101798000D03*
%TD*%
D15*
%TO.P,C22,1*%
%TO.N,3V3*%
X91252000Y-114554000D03*
%TO.P,C22,2*%
X93152000Y-114554000D03*
%TD*%
D10*
%TO.P,C21,1*%
%TO.N,3V3*%
X107950000Y-119568000D03*
%TO.P,C21,2*%
%TO.N,VBAT*%
X107950000Y-117668000D03*
%TD*%
D19*
%TO.P,C19,1*%
%TO.N,VO2*%
X96520000Y-130532000D03*
D20*
%TO.P,C19,2*%
%TO.N,HP_R*%
X99020000Y-130532000D03*
%TD*%
D11*
%TO.P,BCKWRD/FRWD1,1,1_1*%
%TO.N,3V3*%
X88190000Y-91730000D03*
X94690000Y-91730000D03*
%TO.P,BCKWRD/FRWD1,2,2_2*%
%TO.N,BTN_NEXT*%
X88190000Y-96230000D03*
X94690000Y-96230000D03*
%TD*%
D21*
%TO.P,U3,1,BYPASS_1*%
%TO.N,Net-(U3-BYPASS)*%
X107206000Y-106759000D03*
%TO.P,U3,2,GND_2*%
%TO.N,3V3*%
X107206000Y-107409000D03*
%TO.P,U3,3,SHDN_3*%
%TO.N,AMP_ENABLE*%
X107206000Y-108059000D03*
%TO.P,U3,4,IN2-_4*%
%TO.N,Net-(U3-IN2-)*%
X107206000Y-108709000D03*
%TO.P,U3,5,VO2_5*%
%TO.N,VO2*%
X111506000Y-108709000D03*
%TO.P,U3,6,VDD_6*%
%TO.N,3V3*%
X111506000Y-108059000D03*
%TO.P,U3,7,VO1_7*%
%TO.N,VO1*%
X111506000Y-107409000D03*
%TO.P,U3,8,IN1-_8*%
%TO.N,Net-(U3-IN1-)*%
X111506000Y-106759000D03*
D22*
%TO.P,U3,9,GND_9*%
%TO.N,3V3*%
X109356000Y-107734000D03*
%TD*%
D23*
%TO.P,U5,1,V_{DD}_1*%
%TO.N,VDD*%
X119283000Y-117518000D03*
%TO.P,U5,2,V_{DD}_2*%
X119283000Y-118018000D03*
%TO.P,U5,3,V_{BAT}_3*%
%TO.N,VBAT*%
X119283000Y-118518000D03*
%TO.P,U5,4,V_{BAT}_4*%
X119283000Y-119018000D03*
%TO.P,U5,5,STAT_5*%
%TO.N,Net-(U5-STAT)*%
X122183000Y-119018000D03*
%TO.P,U5,6,V_{SS}_6*%
%TO.N,3V3*%
X122183000Y-118518000D03*
%TO.P,U5,7,NC_7*%
%TO.N,unconnected-(U5-NC-Pad7)*%
X122183000Y-118018000D03*
%TO.P,U5,8,PROG_8*%
%TO.N,Net-(U5-PROG)*%
X122183000Y-117518000D03*
D24*
%TO.P,U5,9*%
%TO.N,N/C*%
X120733000Y-118268000D03*
%TD*%
D25*
%TO.P,J2,R*%
%TO.N,HP_R*%
X86265000Y-123291000D03*
%TO.P,J2,RN*%
%TO.N,N/C*%
X88265000Y-125091000D03*
%TO.P,J2,S*%
%TO.N,3V3*%
X88265000Y-131191000D03*
%TO.P,J2,T*%
%TO.N,HP_L*%
X86265000Y-128791000D03*
%TO.P,J2,TN*%
%TO.N,HP_DETECT*%
X88265000Y-119591000D03*
%TD*%
D26*
%TO.P,D1,1,K_1*%
%TO.N,Net-(D1-K)*%
X132588000Y-58928000D03*
D27*
%TO.P,D1,2,A_2*%
%TO.N,3V3*%
X135128000Y-58928000D03*
%TD*%
D28*
%TO.P,J4,A1,GND_A1*%
%TO.N,3V3*%
X104750000Y-129045000D03*
%TO.P,J4,A4,VBUS_A4*%
%TO.N,VDD*%
X105550000Y-129045000D03*
D29*
%TO.P,J4,A5,CC1_A5*%
%TO.N,Net-(J4-CC1)*%
X106700000Y-129045000D03*
%TO.P,J4,A6,D+_A6*%
%TO.N,USB_DP*%
X107700000Y-129045000D03*
%TO.P,J4,A7,D-_A7*%
%TO.N,USB_DN*%
X108200000Y-129045000D03*
%TO.P,J4,A8*%
%TO.N,N/C*%
X109200000Y-129045000D03*
D28*
%TO.P,J4,A9,VBUS_A9*%
%TO.N,VDD*%
X110350000Y-129045000D03*
%TO.P,J4,A12,GND_A12*%
%TO.N,3V3*%
X111150000Y-129045000D03*
%TO.P,J4,B1,GND_B1*%
X111150000Y-129045000D03*
%TO.P,J4,B4,VBUS_B4*%
%TO.N,VDD*%
X110350000Y-129045000D03*
D29*
%TO.P,J4,B5,CC2_B5*%
%TO.N,Net-(J4-CC2)*%
X109700000Y-129045000D03*
%TO.P,J4,B6,D+_B6*%
%TO.N,unconnected-(J4-D+-PadB6)*%
X108700000Y-129045000D03*
%TO.P,J4,B7,D-_B7*%
%TO.N,unconnected-(J4-D--PadB7)*%
X107200000Y-129045000D03*
%TO.P,J4,B8*%
%TO.N,N/C*%
X106200000Y-129045000D03*
D28*
%TO.P,J4,B9,VBUS_B9*%
%TO.N,VDD*%
X105550000Y-129045000D03*
%TO.P,J4,B12,GND_B12*%
%TO.N,3V3*%
X104750000Y-129045000D03*
D30*
%TO.P,J4,SH,SHIELD_SH*%
X103630000Y-129610000D03*
D31*
X103630000Y-133790000D03*
D30*
X112270000Y-129610000D03*
D31*
X112270000Y-133790000D03*
%TD*%
D32*
%TO.P,SW1,A,A_A*%
%TO.N,ENC_A*%
X121147000Y-127040000D03*
D11*
%TO.P,SW1,B,B_B*%
%TO.N,ENC_B*%
X121147000Y-132040000D03*
%TO.P,SW1,C,C_C*%
%TO.N,3V3*%
X121147000Y-129540000D03*
D33*
%TO.P,SW1,MP*%
%TO.N,N/C*%
X128647000Y-123940000D03*
X128647000Y-135140000D03*
D11*
%TO.P,SW1,S1,S1_S1*%
%TO.N,3V3*%
X135647000Y-132040000D03*
%TO.P,SW1,S2,S2_S2*%
%TO.N,Net-(R17-Pad1)*%
X135647000Y-127040000D03*
%TD*%
D34*
%TO.P,BT1,1,+_1*%
%TO.N,VBAT*%
X130392000Y-119872000D03*
D35*
%TO.P,BT1,2,-_2*%
%TO.N,3V3*%
X130392000Y-117872000D03*
%TD*%
D36*
%TO.P,U4,1,GND_1*%
%TO.N,3V3*%
X90450000Y-73914000D03*
D37*
%TO.P,U4,2,VCC_2*%
X90450000Y-71374000D03*
%TO.P,U4,3,SCL_3*%
%TO.N,I2C_SCL*%
X90450000Y-68834000D03*
%TO.P,U4,4,SDA_4*%
%TO.N,I2C_SDA*%
X90450000Y-66294000D03*
%TD*%
D15*
%TO.P,C4,1*%
%TO.N,3V3*%
X120264000Y-84836000D03*
%TO.P,C4,2*%
X122164000Y-84836000D03*
%TD*%
%TO.P,C15,1*%
%TO.N,Net-(U2-OUTR)*%
X81666000Y-94488000D03*
%TO.P,C15,2*%
%TO.N,DAC_OUTR*%
X83566000Y-94488000D03*
%TD*%
D10*
%TO.P,C6,1*%
%TO.N,3V3*%
X134874000Y-109154000D03*
%TO.P,C6,2*%
X134874000Y-107254000D03*
%TD*%
D15*
%TO.P,C17,1*%
%TO.N,Net-(U2-VNEG)*%
X132654000Y-89916000D03*
%TO.P,C17,2*%
%TO.N,3V3*%
X134554000Y-89916000D03*
%TD*%
%TO.P,C8,1*%
%TO.N,3V3*%
X132146000Y-78994000D03*
%TO.P,C8,2*%
X134046000Y-78994000D03*
%TD*%
D19*
%TO.P,C18,1*%
%TO.N,VO1*%
X96520000Y-122682000D03*
D20*
%TO.P,C18,2*%
%TO.N,HP_L*%
X99020000Y-122682000D03*
%TD*%
D10*
%TO.P,C20,1*%
%TO.N,3V3*%
X103124000Y-120396000D03*
%TO.P,C20,2*%
%TO.N,VDD*%
X103124000Y-118496000D03*
%TD*%
D38*
%TO.N,3V3*%
X117348000Y-83058000D03*
X103124000Y-122428000D03*
X103378000Y-107696000D03*
X105410000Y-89154000D03*
X108966000Y-122936000D03*
X98917000Y-106856554D03*
X122174000Y-81280000D03*
X112776000Y-94234000D03*
X105664000Y-120650000D03*
X105918000Y-106680000D03*
X104648000Y-112776000D03*
X110744000Y-122936000D03*
X108458000Y-125730000D03*
X99403000Y-101765000D03*
X107969000Y-93980000D03*
X106680000Y-99060000D03*
%TO.N,VBAT*%
X94488000Y-112776000D03*
X106680000Y-115062000D03*
X106680000Y-112014000D03*
X89408000Y-114808000D03*
X113792000Y-120904000D03*
X117348000Y-118618000D03*
%TO.N,Net-(J1-VDD)*%
X114554000Y-103378000D03*
X118364000Y-93218000D03*
X118872000Y-96012000D03*
%TO.N,Net-(U2-CAPM)*%
X136398000Y-96012000D03*
X97536000Y-105959000D03*
%TO.N,Net-(U2-CAPP)*%
X93726000Y-104902000D03*
X103632000Y-102616000D03*
%TO.N,Net-(U2-OUTL)*%
X97642833Y-108362926D03*
X100584000Y-105156000D03*
X97536000Y-106934000D03*
%TO.N,DAC_OUTR*%
X90170000Y-100330000D03*
%TO.N,Net-(U2-VNEG)*%
X94488000Y-105664000D03*
X80264000Y-97282000D03*
%TO.N,VO1*%
X113284000Y-107950000D03*
%TO.N,VO2*%
X110236000Y-112522000D03*
%TO.N,VDD*%
X119634000Y-121158000D03*
X118110000Y-116840000D03*
X105410000Y-118364000D03*
X106680000Y-121920000D03*
%TO.N,GPIO11*%
X111233000Y-105429000D03*
X116840000Y-106426000D03*
X106680000Y-103886000D03*
%TO.N,GPIO10*%
X114554000Y-108458000D03*
X106680000Y-104902000D03*
X111252000Y-110236000D03*
%TO.N,GPIO12*%
X117602000Y-105664000D03*
%TO.N,GPIO13*%
X117094000Y-102362000D03*
%TO.N,USB_DN*%
X109220000Y-99060000D03*
X117348000Y-119634000D03*
%TO.N,Net-(U1-CHIP_PU)*%
X106680000Y-91440000D03*
%TO.N,DAC_MUTE*%
X107696000Y-98806000D03*
X103632000Y-104140000D03*
X104375000Y-103632000D03*
%TO.N,Net-(U3-IN2-)*%
X108204000Y-122174000D03*
X108458000Y-114300000D03*
X108204000Y-111506000D03*
X105918000Y-109220000D03*
X108204000Y-113030000D03*
X107696000Y-125222000D03*
X106172000Y-110744000D03*
%TO.N,Net-(U3-IN1-)*%
X112268000Y-105664000D03*
%TO.N,AMP_ENABLE*%
X108966000Y-103378000D03*
X108966000Y-100330000D03*
X105156000Y-108712000D03*
%TO.N,I2C_SCL*%
X101854000Y-93726000D03*
%TO.N,I2C_SDA*%
X103632000Y-97790000D03*
%TO.N,Net-(U5-PROG)*%
X123190000Y-116332000D03*
%TO.N,Net-(U5-STAT)*%
X120904000Y-120396000D03*
X116332000Y-115824000D03*
X127000000Y-116332000D03*
%TO.N,I2S_BCK*%
X100584000Y-109332000D03*
X102708000Y-95253000D03*
X98044000Y-112522000D03*
X93726000Y-110236000D03*
X94234000Y-107696000D03*
X87376000Y-100838000D03*
%TO.N,I2S_SCK*%
X105410000Y-102362000D03*
X103632000Y-93218000D03*
X104648000Y-98298000D03*
%TO.N,I2S_LRCK*%
X100330000Y-108458000D03*
X85090000Y-98298000D03*
X99822000Y-117348000D03*
X103124000Y-94234000D03*
X94234000Y-117348000D03*
X89916000Y-116332000D03*
%TO.N,I2S_DIN*%
X104394000Y-99060000D03*
X105410000Y-94488000D03*
%TO.N,Net-(J4-CC1)*%
X106680000Y-127254000D03*
%TO.N,Net-(J4-CC2)*%
X110744000Y-127254000D03*
%TD*%
%TO.N,3V3*%
D39*
X101739000Y-131899000D02*
X103630000Y-133790000D01*
X97424552Y-131899000D02*
X101739000Y-131899000D01*
X95493000Y-127007448D02*
X95493000Y-131286506D01*
X95493000Y-131286506D02*
X95765494Y-131559000D01*
X97084552Y-131559000D02*
X97424552Y-131899000D01*
X95329952Y-126844400D02*
X95493000Y-127007448D01*
X90144600Y-126844400D02*
X95329952Y-126844400D01*
X95765494Y-131559000D02*
X97084552Y-131559000D01*
X90144600Y-131191000D02*
X90144600Y-126844400D01*
X88265000Y-131191000D02*
X90144600Y-131191000D01*
X88219000Y-123240800D02*
X88219000Y-122688733D01*
X95493000Y-123240800D02*
X88219000Y-123240800D01*
X95493000Y-121927494D02*
X95493000Y-123240800D01*
X95765494Y-121655000D02*
X95493000Y-121927494D01*
X97274506Y-121655000D02*
X95765494Y-121655000D01*
X97547000Y-121927494D02*
X97274506Y-121655000D01*
X97547000Y-123240800D02*
X97547000Y-121927494D01*
X97998752Y-123240800D02*
X97547000Y-123240800D01*
X98062577Y-123176975D02*
X97998752Y-123240800D01*
X97993000Y-123107398D02*
X98062577Y-123176975D01*
X99445398Y-121655000D02*
X98594602Y-121655000D01*
X97993000Y-122256602D02*
X97993000Y-123107398D01*
X100047000Y-122256602D02*
X99445398Y-121655000D01*
X98594602Y-121655000D02*
X97993000Y-122256602D01*
X99913598Y-123240800D02*
X100047000Y-123107398D01*
X100047000Y-123107398D02*
X100047000Y-122256602D01*
X100279200Y-123240800D02*
X99913598Y-123240800D01*
X103124000Y-120396000D02*
X100279200Y-123240800D01*
X87367267Y-121837000D02*
X85162733Y-121837000D01*
X88219000Y-122688733D02*
X87367267Y-121837000D01*
X88219000Y-123494800D02*
X88219000Y-122688733D01*
X93089448Y-116391448D02*
X93089448Y-123494800D01*
X93089448Y-123494800D02*
X88219000Y-123494800D01*
X85162733Y-121837000D02*
X84311000Y-122688733D01*
X91252000Y-114554000D02*
X93089448Y-116391448D01*
%TO.N,HP_L*%
X94499000Y-123709000D02*
X97993000Y-123709000D01*
X97993000Y-123709000D02*
X99020000Y-122682000D01*
X94306800Y-123901200D02*
X94499000Y-123709000D01*
X87892000Y-123757819D02*
X87748619Y-123901200D01*
X87748619Y-123901200D02*
X94306800Y-123901200D01*
X87892000Y-122824181D02*
X87892000Y-123757819D01*
X87231819Y-122164000D02*
X87892000Y-122824181D01*
X84638000Y-122824181D02*
X85298181Y-122164000D01*
X85298181Y-122164000D02*
X87231819Y-122164000D01*
X84638000Y-127164000D02*
X84638000Y-122824181D01*
X86265000Y-128791000D02*
X84638000Y-127164000D01*
%TO.N,HP_R*%
X87118090Y-124144090D02*
X86265000Y-123291000D01*
X89192000Y-126218000D02*
X87298181Y-126218000D01*
X87298181Y-126218000D02*
X86638000Y-125557819D01*
X89491400Y-126517400D02*
X89192000Y-126218000D01*
X86638000Y-125557819D02*
X86638000Y-124624181D01*
X95465400Y-126517400D02*
X89491400Y-126517400D01*
X99020000Y-130072000D02*
X95465400Y-126517400D01*
X86638000Y-124624181D02*
X87118090Y-124144090D01*
X99020000Y-130532000D02*
X99020000Y-130072000D01*
%TO.N,3V3*%
X134340600Y-78699400D02*
X134046000Y-78994000D01*
X134340600Y-59715400D02*
X134340600Y-78699400D01*
X135128000Y-58928000D02*
X134340600Y-59715400D01*
%TO.N,Net-(U2-VNEG)*%
X125391494Y-89916000D02*
X132654000Y-89916000D01*
X119809494Y-83884000D02*
X120718506Y-83884000D01*
X117766291Y-82731000D02*
X118621448Y-82731000D01*
X119791971Y-83901523D02*
X119809494Y-83884000D01*
X116821000Y-82839709D02*
X117129709Y-82531000D01*
X117566291Y-82531000D02*
X117766291Y-82731000D01*
X117129709Y-83585000D02*
X116821000Y-83276291D01*
X118350552Y-83385000D02*
X117766291Y-83385000D01*
X119537000Y-84571448D02*
X118350552Y-83385000D01*
X117566291Y-83585000D02*
X117129709Y-83585000D01*
X119537000Y-85100552D02*
X119537000Y-84571448D01*
X119122046Y-85515506D02*
X119537000Y-85100552D01*
X117129709Y-82531000D02*
X117566291Y-82531000D01*
X113169000Y-85515506D02*
X119122046Y-85515506D01*
X113169000Y-83889448D02*
X113169000Y-85515506D01*
X113357000Y-83701448D02*
X113169000Y-83889448D01*
X113165448Y-82731000D02*
X113357000Y-82922552D01*
X90003891Y-70297000D02*
X90896109Y-70297000D01*
X89373000Y-70927891D02*
X90003891Y-70297000D01*
X102269448Y-82731000D02*
X113165448Y-82731000D01*
X89373000Y-71820109D02*
X89373000Y-70927891D01*
X90896109Y-70297000D02*
X91527000Y-70927891D01*
X90123000Y-72837000D02*
X90123000Y-72451000D01*
X91442779Y-71904331D02*
X102269448Y-82731000D01*
X89373000Y-74763154D02*
X89373000Y-73064846D01*
X89600846Y-74991000D02*
X89373000Y-74763154D01*
X91527000Y-70927891D02*
X91527000Y-71820109D01*
X120991000Y-84156494D02*
X120991000Y-85515506D01*
X91299154Y-74991000D02*
X89600846Y-74991000D01*
X90123000Y-72451000D02*
X90003891Y-72451000D01*
X91527000Y-74763154D02*
X91299154Y-74991000D01*
X91527000Y-73176324D02*
X91527000Y-74763154D01*
X104272938Y-85922262D02*
X91527000Y-73176324D01*
X116821000Y-83276291D02*
X116821000Y-82839709D01*
X101574600Y-88620600D02*
X104272938Y-85922262D01*
X120718506Y-83884000D02*
X120991000Y-84156494D01*
X92783000Y-88620600D02*
X101574600Y-88620600D01*
X89600846Y-72837000D02*
X90123000Y-72837000D01*
X92783000Y-87058000D02*
X92783000Y-88620600D01*
X92910506Y-87058000D02*
X92783000Y-87058000D01*
X93183000Y-86785506D02*
X92910506Y-87058000D01*
X92910506Y-85154000D02*
X93183000Y-85426494D01*
X113357000Y-82922552D02*
X113357000Y-83701448D01*
X92001494Y-85154000D02*
X92910506Y-85154000D01*
X91527000Y-71820109D02*
X91442779Y-71904331D01*
X93183000Y-85426494D02*
X93183000Y-86785506D01*
X91729000Y-85779000D02*
X91729000Y-85426494D01*
X91283000Y-85426494D02*
X91283000Y-85779000D01*
X91010506Y-85154000D02*
X91283000Y-85426494D01*
X90101494Y-85154000D02*
X91010506Y-85154000D01*
X118621448Y-82731000D02*
X119791971Y-83901523D01*
X89373000Y-73064846D02*
X89600846Y-72837000D01*
X89829000Y-85426494D02*
X90101494Y-85154000D01*
X90101494Y-87058000D02*
X89829000Y-86785506D01*
X117766291Y-83385000D02*
X117566291Y-83585000D01*
X91729000Y-85426494D02*
X92001494Y-85154000D01*
X90229000Y-88620600D02*
X90229000Y-87058000D01*
X84734400Y-88620600D02*
X90229000Y-88620600D01*
X91283000Y-85779000D02*
X91729000Y-85779000D01*
X80264000Y-93091000D02*
X84734400Y-88620600D01*
X80264000Y-97282000D02*
X80264000Y-93091000D01*
X90003891Y-72451000D02*
X89373000Y-71820109D01*
X90229000Y-87058000D02*
X90101494Y-87058000D01*
X120991000Y-85515506D02*
X125391494Y-89916000D01*
X89829000Y-86785506D02*
X89829000Y-85426494D01*
%TO.N,3V3*%
X121147000Y-130813000D02*
X121147000Y-129540000D01*
X120638759Y-130813000D02*
X121147000Y-130813000D01*
X119920000Y-131531759D02*
X120638759Y-130813000D01*
X119920000Y-132548241D02*
X119920000Y-131531759D01*
X120638759Y-133267000D02*
X119920000Y-132548241D01*
X121147000Y-133267000D02*
X120638759Y-133267000D01*
X121147000Y-136250000D02*
X121147000Y-133267000D01*
X126820000Y-133913000D02*
X126820000Y-136250000D01*
X131619200Y-136067800D02*
X130474000Y-136067800D01*
X130474000Y-136067800D02*
X130474000Y-133913000D01*
X126820000Y-136250000D02*
X121147000Y-136250000D01*
X135647000Y-132040000D02*
X131619200Y-136067800D01*
X130474000Y-133913000D02*
X126820000Y-133913000D01*
X107423000Y-97503000D02*
X107277000Y-97503000D01*
X120264000Y-84836000D02*
X118486000Y-83058000D01*
X112842000Y-86614000D02*
X114742000Y-86614000D01*
X92456000Y-86106000D02*
X92456000Y-89496000D01*
X106153000Y-112078552D02*
X106153000Y-111795709D01*
X107200013Y-111788721D02*
X107612143Y-111376591D01*
X107583876Y-89903000D02*
X107916124Y-89903000D01*
X105953709Y-110217000D02*
X106390291Y-110217000D01*
X112270000Y-129610000D02*
X121077000Y-129610000D01*
X90450000Y-71374000D02*
X90450000Y-71636876D01*
X98079709Y-106136291D02*
X98063000Y-106153000D01*
X109350000Y-92580000D02*
X107950000Y-93980000D01*
X99704291Y-105309000D02*
X99486000Y-105527291D01*
X107423000Y-97896124D02*
X107423000Y-97503000D01*
X90450000Y-73914000D02*
X90450000Y-71374000D01*
X107612143Y-111376591D02*
X107306552Y-111071000D01*
X131384000Y-84836000D02*
X126614000Y-84836000D01*
X106461709Y-111487000D02*
X106898291Y-111487000D01*
X107442000Y-100650000D02*
X106680000Y-99888000D01*
X98063000Y-106177291D02*
X97793791Y-106446500D01*
X93167000Y-108559000D02*
X91796000Y-107188000D01*
X112776000Y-94234000D02*
X112776000Y-95604000D01*
X101686000Y-91780000D02*
X104500000Y-91780000D01*
X123190000Y-87122000D02*
X123190000Y-86614000D01*
X134874000Y-101798000D02*
X134874000Y-101298000D01*
X111800000Y-96580000D02*
X111400000Y-96580000D01*
X114874000Y-93506000D02*
X112776000Y-95604000D01*
X108350000Y-89936876D02*
X108383876Y-89903000D01*
X106390291Y-111271000D02*
X105953709Y-111271000D01*
X101686000Y-91780000D02*
X100584000Y-90678000D01*
X105823000Y-90530000D02*
X105823000Y-90063876D01*
X134046000Y-78994000D02*
X132146000Y-78994000D01*
X96973220Y-108336000D02*
X96197500Y-108336000D01*
X112842000Y-83754000D02*
X112842000Y-86614000D01*
X134046000Y-84074000D02*
X134046000Y-89408000D01*
X105953709Y-111271000D02*
X105645000Y-110962291D01*
X85496000Y-107188000D02*
X91796000Y-107188000D01*
X120264000Y-84836000D02*
X118486000Y-86614000D01*
X99403000Y-101765000D02*
X99678500Y-101765000D01*
X85496000Y-101498000D02*
X83566000Y-99568000D01*
X128719000Y-119545000D02*
X123210000Y-119545000D01*
X101369780Y-106609000D02*
X100911000Y-107067780D01*
X122164000Y-85588000D02*
X122164000Y-84836000D01*
X124714000Y-84836000D02*
X122164000Y-84836000D01*
X99637263Y-106136291D02*
X100095000Y-106136291D01*
X118486000Y-83058000D02*
X117348000Y-83058000D01*
X107983876Y-89903000D02*
X108316124Y-89903000D01*
X100911000Y-107067780D02*
X99771000Y-107067780D01*
X103124000Y-120396000D02*
X103124000Y-122428000D01*
X107916124Y-98057000D02*
X107583876Y-98057000D01*
X97793791Y-106446500D02*
X98063000Y-106715709D01*
X110744000Y-123444000D02*
X108458000Y-125730000D01*
X113030000Y-83566000D02*
X112842000Y-83754000D01*
X107577448Y-110417000D02*
X108074591Y-110914143D01*
X105664000Y-120650000D02*
X105918000Y-120650000D01*
X108316124Y-89903000D02*
X108350000Y-89936876D01*
X101922500Y-109859000D02*
X101922500Y-110050500D01*
X109350000Y-90530000D02*
X109350000Y-92580000D01*
X98684000Y-90678000D02*
X97632000Y-91730000D01*
X107183876Y-89903000D02*
X107516124Y-89903000D01*
X101922500Y-106609000D02*
X101369780Y-106609000D01*
X103630000Y-133790000D02*
X103630000Y-130165000D01*
X90450000Y-71374000D02*
X102134000Y-83058000D01*
X106590291Y-111071000D02*
X106390291Y-111271000D01*
X111150000Y-129045000D02*
X111705000Y-129045000D01*
X122331000Y-118666000D02*
X122183000Y-118518000D01*
X106316124Y-89903000D02*
X106350000Y-89936876D01*
X107503000Y-109747000D02*
X109356000Y-107894000D01*
X101922500Y-110050500D02*
X104648000Y-112776000D01*
X107583876Y-98057000D02*
X107423000Y-97896124D01*
X108783876Y-89903000D02*
X109116124Y-89903000D01*
X102659999Y-106609000D02*
X103378000Y-107327001D01*
X105983876Y-89903000D02*
X106316124Y-89903000D01*
X108750000Y-89936876D02*
X108783876Y-89903000D01*
X108716124Y-89903000D02*
X108750000Y-89936876D01*
X118486000Y-86614000D02*
X114742000Y-86614000D01*
X132146000Y-78994000D02*
X132146000Y-84074000D01*
X97632000Y-91730000D02*
X94690000Y-91730000D01*
X109277000Y-90063876D02*
X109277000Y-90530000D01*
X96197500Y-105309000D02*
X99704291Y-105309000D01*
X84311000Y-128930819D02*
X86571181Y-131191000D01*
X105918000Y-120650000D02*
X107000000Y-119568000D01*
X91796000Y-113198000D02*
X93152000Y-114554000D01*
X123210000Y-119545000D02*
X122810000Y-119145000D01*
X97162000Y-107670780D02*
X97162000Y-108147220D01*
X99161000Y-105309000D02*
X100076000Y-104394000D01*
X112776000Y-95604000D02*
X111800000Y-96580000D01*
X97077220Y-107586000D02*
X97162000Y-107670780D01*
X114874000Y-92710000D02*
X114874000Y-93506000D01*
X109116124Y-89903000D02*
X109277000Y-90063876D01*
X107277000Y-97503000D02*
X107350000Y-97430000D01*
X127710000Y-94134000D02*
X127710000Y-91730000D01*
X98917000Y-106856554D02*
X99637263Y-106136291D01*
X98684000Y-90678000D02*
X100584000Y-90678000D01*
X107916124Y-89903000D02*
X107950000Y-89936876D01*
X104100000Y-91780000D02*
X101686000Y-91780000D01*
X105602000Y-90678000D02*
X100584000Y-90678000D01*
X105918000Y-106845999D02*
X106481001Y-107409000D01*
X96197500Y-108559000D02*
X96197500Y-109859000D01*
X101081000Y-104659000D02*
X101922500Y-104659000D01*
X97754291Y-107461000D02*
X97471448Y-107461000D01*
X103378000Y-107327001D02*
X103378000Y-107696000D01*
X85496000Y-104888000D02*
X85496000Y-101498000D01*
X105918000Y-106680000D02*
X105918000Y-106845999D01*
X122810000Y-118833854D02*
X122642146Y-118666000D01*
X96197500Y-108559000D02*
X93167000Y-108559000D01*
X106153000Y-111795709D02*
X106461709Y-111487000D01*
X102134000Y-83058000D02*
X113030000Y-83058000D01*
X110744000Y-122936000D02*
X110744000Y-123444000D01*
X105713709Y-107409000D02*
X104629000Y-108493709D01*
X99771000Y-107210293D02*
X97394647Y-109586647D01*
X121077000Y-129610000D02*
X121147000Y-129540000D01*
X134874000Y-101798000D02*
X134874000Y-103698000D01*
X109277000Y-90063876D02*
X109350000Y-90136876D01*
X103630000Y-130165000D02*
X104750000Y-129045000D01*
X107983876Y-98057000D02*
X107950000Y-98023124D01*
X123190000Y-86614000D02*
X122164000Y-85588000D01*
X96197500Y-104009000D02*
X101922500Y-104009000D01*
X104750000Y-122768000D02*
X104750000Y-129045000D01*
X108074591Y-110914143D02*
X110929734Y-108059000D01*
X124328000Y-87122000D02*
X123190000Y-87122000D01*
X106762843Y-98860000D02*
X108223000Y-100320157D01*
X100076000Y-104394000D02*
X100816000Y-104394000D01*
X105350000Y-90530000D02*
X105823000Y-90530000D01*
X106680000Y-98860000D02*
X106762843Y-98860000D01*
X107206000Y-107409000D02*
X105713709Y-107409000D01*
X108223000Y-100320157D02*
X108223000Y-98057000D01*
X122810000Y-119145000D02*
X122810000Y-118833854D01*
X107516124Y-89903000D02*
X107550000Y-89936876D01*
X127710000Y-91730000D02*
X121210000Y-91730000D01*
X105410000Y-89154000D02*
X105410000Y-90470000D01*
X105750000Y-90530000D02*
X105602000Y-90678000D01*
X111705000Y-129045000D02*
X112270000Y-129610000D01*
X85496000Y-104888000D02*
X85496000Y-107188000D01*
X105823000Y-90063876D02*
X105983876Y-89903000D01*
X130392000Y-117872000D02*
X128719000Y-119545000D01*
X98063000Y-106153000D02*
X98063000Y-106177291D01*
X105645000Y-110962291D02*
X105645000Y-110525709D01*
X106716124Y-89903000D02*
X106750000Y-89936876D01*
X101922500Y-109859000D02*
X105147526Y-113084026D01*
X110929734Y-108059000D02*
X111506000Y-108059000D01*
X109350000Y-90136876D02*
X109350000Y-91186000D01*
X113030000Y-83058000D02*
X113030000Y-83566000D01*
X90556000Y-89364000D02*
X90556000Y-86106000D01*
X99678500Y-101765000D02*
X101922500Y-104009000D01*
X107116124Y-89903000D02*
X107150000Y-89936876D01*
X91796000Y-107188000D02*
X91796000Y-113198000D01*
X109277000Y-90530000D02*
X109350000Y-90530000D01*
X106680000Y-99888000D02*
X106680000Y-99060000D01*
X134874000Y-109154000D02*
X134874000Y-107254000D01*
X105645000Y-110525709D02*
X105953709Y-110217000D01*
X109356000Y-107894000D02*
X109356000Y-107734000D01*
X134874000Y-101298000D02*
X127710000Y-94134000D01*
X97346448Y-107586000D02*
X97077220Y-107586000D01*
X107306552Y-111071000D02*
X106590291Y-111071000D01*
X106898291Y-111487000D02*
X107200013Y-111788721D01*
X98063000Y-106715709D02*
X98063000Y-107152291D01*
X107950000Y-119568000D02*
X104750000Y-122768000D01*
X101922500Y-106609000D02*
X102659999Y-106609000D01*
X104629000Y-108493709D02*
X104629000Y-108930291D01*
X108966000Y-120584000D02*
X108966000Y-122936000D01*
X107969000Y-93980000D02*
X107950000Y-93980000D01*
X134874000Y-103698000D02*
X134874000Y-107254000D01*
X96197500Y-108336000D02*
X96197500Y-108559000D01*
X93152000Y-114554000D02*
X91252000Y-114554000D01*
X122642146Y-118666000D02*
X122331000Y-118666000D01*
X101922500Y-104009000D02*
X101922500Y-104659000D01*
X97394647Y-109586647D02*
X97667000Y-109859000D01*
X107950000Y-89936876D02*
X107983876Y-89903000D01*
X97471448Y-107461000D02*
X97346448Y-107586000D01*
X112270000Y-133790000D02*
X112270000Y-129610000D01*
X121210000Y-91730000D02*
X115854000Y-91730000D01*
X108223000Y-98057000D02*
X107983876Y-98057000D01*
X105445709Y-109747000D02*
X107503000Y-109747000D01*
X100816000Y-104394000D02*
X101081000Y-104659000D01*
X106481001Y-107409000D02*
X107206000Y-107409000D01*
X98063000Y-107152291D02*
X97754291Y-107461000D01*
X97667000Y-109859000D02*
X101922500Y-109859000D01*
X107150000Y-89936876D02*
X107183876Y-89903000D01*
X90556000Y-86106000D02*
X92456000Y-86106000D01*
X107950000Y-119568000D02*
X108966000Y-120584000D01*
X99486000Y-105527291D02*
X100095000Y-106136291D01*
X107000000Y-119568000D02*
X107950000Y-119568000D01*
X122164000Y-81290000D02*
X122164000Y-84836000D01*
X134046000Y-89408000D02*
X134554000Y-89916000D01*
X130392000Y-111736000D02*
X130392000Y-117872000D01*
X107550000Y-89936876D02*
X107583876Y-89903000D01*
X132146000Y-84074000D02*
X131384000Y-84836000D01*
X104629000Y-108930291D02*
X105445709Y-109747000D01*
X106590291Y-110417000D02*
X107577448Y-110417000D01*
X90450000Y-71636876D02*
X107950000Y-89136876D01*
X106750000Y-89936876D02*
X106783876Y-89903000D01*
X106783876Y-89903000D02*
X107116124Y-89903000D01*
X115854000Y-91730000D02*
X114874000Y-92710000D01*
X105147526Y-113084026D02*
X106153000Y-112078552D01*
X96197500Y-105309000D02*
X99161000Y-105309000D01*
X122174000Y-81280000D02*
X122164000Y-81290000D01*
X106350000Y-89936876D02*
X106383876Y-89903000D01*
X126614000Y-84836000D02*
X124328000Y-87122000D01*
X106383876Y-89903000D02*
X106716124Y-89903000D01*
X107950000Y-89136876D02*
X107950000Y-89936876D01*
X100095000Y-106136291D02*
X98079709Y-106136291D01*
X97162000Y-108147220D02*
X96973220Y-108336000D01*
X108383876Y-89903000D02*
X108716124Y-89903000D01*
X106390291Y-110217000D02*
X106590291Y-110417000D01*
X105410000Y-90470000D02*
X105350000Y-90530000D01*
X134046000Y-84074000D02*
X132146000Y-84074000D01*
X88190000Y-91730000D02*
X90556000Y-89364000D01*
X104500000Y-92180000D02*
X104100000Y-91780000D01*
X107950000Y-98023124D02*
X107916124Y-98057000D01*
X134874000Y-107254000D02*
X130392000Y-111736000D01*
X92456000Y-89496000D02*
X94690000Y-91730000D01*
X84311000Y-122688733D02*
X84311000Y-128930819D01*
X86571181Y-131191000D02*
X88265000Y-131191000D01*
X106680000Y-99822000D02*
X106680000Y-98860000D01*
X99771000Y-107067780D02*
X99771000Y-107210293D01*
%TO.N,BTN_NEXT*%
X94690000Y-96230000D02*
X88190000Y-96230000D01*
%TO.N,VBAT*%
X119283000Y-119018000D02*
X117884000Y-119018000D01*
X119415709Y-120631000D02*
X119283000Y-120763709D01*
X117884000Y-118082000D02*
X117884000Y-117668000D01*
X106671000Y-115071000D02*
X106671000Y-118257954D01*
X117884000Y-117668000D02*
X107950000Y-117668000D01*
X106680000Y-115062000D02*
X106671000Y-115071000D01*
X111717224Y-118829224D02*
X113792000Y-120904000D01*
X120161000Y-121158000D02*
X120161000Y-120939709D01*
X95250000Y-113538000D02*
X105156000Y-113538000D01*
X119283000Y-120763709D02*
X119283000Y-119018000D01*
X105156000Y-113538000D02*
X106680000Y-112014000D01*
X117348000Y-118618000D02*
X117884000Y-118082000D01*
X106671000Y-118257954D02*
X107242270Y-118829224D01*
X117884000Y-119018000D02*
X117884000Y-117668000D01*
X107242270Y-118829224D02*
X111717224Y-118829224D01*
X121158000Y-121158000D02*
X120161000Y-121158000D01*
X85496000Y-109488000D02*
X89408000Y-113400000D01*
X121920000Y-120396000D02*
X121158000Y-121158000D01*
X119852291Y-120631000D02*
X119415709Y-120631000D01*
X89408000Y-113400000D02*
X89408000Y-114808000D01*
X120161000Y-120939709D02*
X119852291Y-120631000D01*
X130392000Y-119872000D02*
X129868000Y-120396000D01*
X129868000Y-120396000D02*
X121920000Y-120396000D01*
X119283000Y-118518000D02*
X119283000Y-119018000D01*
X94488000Y-112776000D02*
X95250000Y-113538000D01*
%TO.N,Net-(J1-VDD)*%
X117282000Y-93218000D02*
X116774000Y-92710000D01*
X114554000Y-103378000D02*
X116823291Y-103378000D01*
X116823291Y-103378000D02*
X118872000Y-101329291D01*
X118872000Y-101329291D02*
X118872000Y-96012000D01*
X118364000Y-93218000D02*
X117282000Y-93218000D01*
%TO.N,Net-(U2-CAPM)*%
X136398000Y-96012000D02*
X136210000Y-96012000D01*
X136210000Y-96012000D02*
X134874000Y-97348000D01*
X97536000Y-105959000D02*
X96197500Y-105959000D01*
%TO.N,Net-(U2-CAPP)*%
X110806876Y-93580000D02*
X110773000Y-93613876D01*
X110773000Y-93213876D02*
X110773000Y-93546124D01*
X128937000Y-93311000D02*
X128937000Y-91221759D01*
X104966124Y-96907000D02*
X104635448Y-96907000D01*
X105127000Y-96746124D02*
X104966124Y-96907000D01*
X110773000Y-92746124D02*
X110806876Y-92780000D01*
X110773000Y-93613876D02*
X110773000Y-93946124D01*
X110806876Y-93980000D02*
X110773000Y-94013876D01*
X128937000Y-91221759D02*
X128218241Y-90503000D01*
X110773000Y-95213876D02*
X110773000Y-95546124D01*
X110806876Y-92780000D02*
X110773000Y-92813876D01*
X110806876Y-96380000D02*
X110773000Y-96413876D01*
X105127000Y-96413876D02*
X105127000Y-96746124D01*
X110773000Y-93146124D02*
X110806876Y-93180000D01*
X110773000Y-96013876D02*
X110773000Y-96346124D01*
X134874000Y-99248000D02*
X128937000Y-93311000D01*
X105127000Y-96413876D02*
X105127000Y-96346124D01*
X103124000Y-98862876D02*
X103124000Y-101854000D01*
X110773000Y-94013876D02*
X110773000Y-94346124D01*
X103669876Y-98317000D02*
X103124000Y-98862876D01*
X103124000Y-101854000D02*
X103632000Y-102362000D01*
X110806876Y-95180000D02*
X110773000Y-95213876D01*
X110773000Y-96346124D02*
X110806876Y-96380000D01*
X111483876Y-90503000D02*
X110773000Y-91213876D01*
X110773000Y-95946124D02*
X110806876Y-95980000D01*
X110806876Y-93180000D02*
X110773000Y-93213876D01*
X103850291Y-98317000D02*
X103669876Y-98317000D01*
X93969000Y-104659000D02*
X93726000Y-104902000D01*
X110773000Y-92813876D02*
X110773000Y-93146124D01*
X110806876Y-95580000D02*
X110773000Y-95613876D01*
X110773000Y-94813876D02*
X110773000Y-95146124D01*
X110773000Y-96413876D02*
X110773000Y-96476000D01*
X110773000Y-94746124D02*
X110806876Y-94780000D01*
X110806876Y-94380000D02*
X110773000Y-94413876D01*
X110773000Y-93546124D02*
X110806876Y-93580000D01*
X105779876Y-96207000D02*
X105319324Y-96667552D01*
X110773000Y-95546124D02*
X110806876Y-95580000D01*
X103632000Y-102362000D02*
X103632000Y-102616000D01*
X110773000Y-94346124D02*
X110806876Y-94380000D01*
X110773000Y-94413876D02*
X110773000Y-94746124D01*
X128218241Y-90503000D02*
X111483876Y-90503000D01*
X104635448Y-96907000D02*
X104159000Y-97383448D01*
X110773000Y-93946124D02*
X110806876Y-93980000D01*
X105319324Y-96667552D02*
X105319324Y-96803000D01*
X110700000Y-96476000D02*
X110177000Y-95953000D01*
X110806876Y-95980000D02*
X110773000Y-96013876D01*
X110773000Y-95613876D02*
X110773000Y-95946124D01*
X105319324Y-96803000D02*
X105183876Y-96803000D01*
X105127000Y-96346124D02*
X105093124Y-96380000D01*
X105093124Y-96380000D02*
X105127000Y-96413876D01*
X110806876Y-94780000D02*
X110773000Y-94813876D01*
X110773000Y-95146124D02*
X110806876Y-95180000D01*
X110773000Y-96476000D02*
X110700000Y-96476000D01*
X110177000Y-96207000D02*
X105779876Y-96207000D01*
X110773000Y-91213876D02*
X110773000Y-92746124D01*
X104159000Y-98008291D02*
X103850291Y-98317000D01*
X104159000Y-97383448D02*
X104159000Y-98008291D01*
X110177000Y-95953000D02*
X110177000Y-96207000D01*
X105183876Y-96803000D02*
X105127000Y-96859876D01*
X105127000Y-96859876D02*
X105127000Y-96413876D01*
X96197500Y-104659000D02*
X93969000Y-104659000D01*
%TO.N,Net-(U3-BYPASS)*%
X107442000Y-102550000D02*
X107442000Y-106523000D01*
X107442000Y-106523000D02*
X107206000Y-106759000D01*
%TO.N,Net-(U2-OUTL)*%
X100031291Y-105444448D02*
X100031291Y-105262970D01*
X99772711Y-106463291D02*
X100230448Y-106463291D01*
X99948448Y-105527291D02*
X100031291Y-105444448D01*
X97642833Y-108362926D02*
X98139074Y-108362926D01*
X99444000Y-107074845D02*
X99444000Y-106792002D01*
X98139074Y-108362926D02*
X98806000Y-107696000D01*
X99444000Y-106792002D02*
X99772711Y-106463291D01*
X100422000Y-106271739D02*
X100422000Y-106000843D01*
X97211000Y-107259000D02*
X96197500Y-107259000D01*
X100076000Y-105156000D02*
X100584000Y-105156000D01*
X98822845Y-107696000D02*
X99444000Y-107074845D01*
X100422000Y-106000843D02*
X99948448Y-105527291D01*
X100230448Y-106463291D02*
X100422000Y-106271739D01*
X97536000Y-106934000D02*
X97211000Y-107259000D01*
X98806000Y-107696000D02*
X98822845Y-107696000D01*
X100076000Y-105218261D02*
X100076000Y-105156000D01*
X100031291Y-105262970D02*
X100076000Y-105218261D01*
%TO.N,Net-(U2-OUTR)*%
X95015000Y-105445709D02*
X94706291Y-105137000D01*
X95317780Y-106936000D02*
X95233000Y-107020780D01*
X90415646Y-100829646D02*
X93918000Y-104332000D01*
X82839000Y-95167506D02*
X83111494Y-95440000D01*
X96197500Y-107686000D02*
X96197500Y-107909000D01*
X89951709Y-100857000D02*
X90388291Y-100857000D01*
X94269709Y-106191000D02*
X94552552Y-106191000D01*
X83111494Y-95440000D02*
X84020506Y-95440000D01*
X89272552Y-100657000D02*
X89751709Y-100657000D01*
X93199000Y-104683709D02*
X93199000Y-105120291D01*
X93790552Y-104375000D02*
X93507709Y-104375000D01*
X95233000Y-107020780D02*
X95233000Y-107497220D01*
X94552552Y-106191000D02*
X95297552Y-106936000D01*
X95015000Y-105728552D02*
X95015000Y-105445709D01*
X94253000Y-104986000D02*
X94572000Y-104986000D01*
X95233000Y-105720780D02*
X95233000Y-105946552D01*
X93507709Y-105429000D02*
X93944291Y-105429000D01*
X94706291Y-105137000D02*
X94269709Y-105137000D01*
X82839000Y-94488000D02*
X82839000Y-95167506D01*
X93961000Y-105882291D02*
X94269709Y-106191000D01*
X94572000Y-104986000D02*
X95269890Y-105683890D01*
X94269709Y-105137000D02*
X93961000Y-105445709D01*
X95233000Y-105946552D02*
X95015000Y-105728552D01*
X93961000Y-105445709D02*
X93961000Y-105882291D01*
X93507709Y-104375000D02*
X93199000Y-104683709D01*
X84038029Y-95422477D02*
X89272552Y-100657000D01*
X95421780Y-107686000D02*
X96197500Y-107686000D01*
X93199000Y-105120291D02*
X93507709Y-105429000D01*
X93918000Y-104332000D02*
X93833552Y-104332000D01*
X93944291Y-105429000D02*
X94253000Y-105120291D01*
X95233000Y-107497220D02*
X95421780Y-107686000D01*
X93833552Y-104332000D02*
X93790552Y-104375000D01*
X94253000Y-105120291D02*
X94253000Y-104986000D01*
X95269890Y-105683890D02*
X95233000Y-105720780D01*
X90388291Y-100857000D02*
X90415646Y-100829646D01*
X95297552Y-106936000D02*
X95317780Y-106936000D01*
X84020506Y-95440000D02*
X84038029Y-95422477D01*
X81666000Y-94488000D02*
X82839000Y-94488000D01*
X89751709Y-100657000D02*
X89951709Y-100857000D01*
%TO.N,DAC_OUTR*%
X83566000Y-94488000D02*
X89408000Y-100330000D01*
X89408000Y-100330000D02*
X90170000Y-100330000D01*
%TO.N,Net-(U2-LDOO)*%
X81666000Y-99568000D02*
X80939000Y-98841000D01*
X80939000Y-98841000D02*
X80939000Y-93808494D01*
X102887000Y-104897220D02*
X102475220Y-105309000D01*
X93731241Y-93536000D02*
X102887000Y-102691759D01*
X80939000Y-93808494D02*
X81211494Y-93536000D01*
X102475220Y-105309000D02*
X101922500Y-105309000D01*
X81211494Y-93536000D02*
X93731241Y-93536000D01*
X102887000Y-102691759D02*
X102887000Y-104897220D01*
%TO.N,Net-(U2-VNEG)*%
X95433000Y-106609000D02*
X96197500Y-106609000D01*
X94488000Y-105664000D02*
X95433000Y-106609000D01*
%TO.N,VO1*%
X113284000Y-107950000D02*
X112743000Y-107409000D01*
X112743000Y-107409000D02*
X111506000Y-107409000D01*
%TO.N,VO2*%
X106864552Y-119241000D02*
X106998000Y-119241000D01*
X96520000Y-130532000D02*
X97560000Y-131572000D01*
X107075422Y-114712131D02*
X107795552Y-113992000D01*
X107677000Y-113248291D02*
X107677000Y-112811709D01*
X102903000Y-130461133D02*
X102903000Y-128758867D01*
X104223000Y-128624867D02*
X104223000Y-128459684D01*
X105137000Y-120431709D02*
X105445709Y-120123000D01*
X105932422Y-120173130D02*
X106864552Y-119241000D01*
X106898291Y-114535000D02*
X107075422Y-114712131D01*
X107795552Y-113992000D02*
X108020709Y-113992000D01*
X106344000Y-118393402D02*
X106344000Y-115471291D01*
X107985709Y-112503000D02*
X108422291Y-112503000D01*
X108841104Y-113092261D02*
X108966000Y-113092261D01*
X107677000Y-112811709D02*
X107985709Y-112503000D01*
X105882291Y-120123000D02*
X105932422Y-120173130D01*
X106998000Y-119241000D02*
X106998000Y-119113494D01*
X107031046Y-119080448D02*
X106344000Y-118393402D01*
X109220000Y-112522000D02*
X108966000Y-112268000D01*
X108731000Y-113094551D02*
X108784907Y-113148458D01*
X103303000Y-131393000D02*
X103303000Y-130861133D01*
X106998000Y-119113494D02*
X107031046Y-119080448D01*
X105137000Y-120868291D02*
X105137000Y-120431709D01*
X108131000Y-113557000D02*
X107985709Y-113557000D01*
X105445709Y-121177000D02*
X105137000Y-120868291D01*
X103124000Y-131572000D02*
X103303000Y-131393000D01*
X106344000Y-115471291D02*
X106153000Y-115280291D01*
X105445709Y-120123000D02*
X105882291Y-120123000D01*
X104423000Y-122632552D02*
X105878552Y-121177000D01*
X104223000Y-128459684D02*
X104423000Y-128259684D01*
X103328867Y-128333000D02*
X103931133Y-128333000D01*
X106153000Y-115280291D02*
X106153000Y-114843709D01*
X105878552Y-121177000D02*
X105445709Y-121177000D01*
X97560000Y-131572000D02*
X103124000Y-131572000D01*
X108966000Y-112268000D02*
X108966000Y-111249000D01*
X103931133Y-128333000D02*
X104223000Y-128624867D01*
X108422291Y-112503000D02*
X108731000Y-112811709D01*
X108131000Y-113881709D02*
X108131000Y-113557000D01*
X108784907Y-113148458D02*
X108841104Y-113092261D01*
X108731000Y-112811709D02*
X108731000Y-113094551D01*
X106153000Y-114843709D02*
X106461709Y-114535000D01*
X102903000Y-128758867D02*
X103328867Y-128333000D01*
X108020709Y-113992000D02*
X108131000Y-113881709D01*
X108966000Y-111249000D02*
X111506000Y-108709000D01*
X108966000Y-113092261D02*
X108966000Y-112268000D01*
X104423000Y-128259684D02*
X104423000Y-122632552D01*
X103303000Y-130861133D02*
X102903000Y-130461133D01*
X107985709Y-113557000D02*
X107677000Y-113248291D01*
X106461709Y-114535000D02*
X106898291Y-114535000D01*
X110236000Y-112522000D02*
X109220000Y-112522000D01*
%TO.N,VDD*%
X105550000Y-129045000D02*
X105550000Y-123050000D01*
X110350000Y-129426000D02*
X109929000Y-129847000D01*
X105278000Y-118496000D02*
X105410000Y-118364000D01*
X109929000Y-129847000D02*
X105777001Y-129847000D01*
X118110000Y-116840000D02*
X118605000Y-116840000D01*
X117662001Y-121158000D02*
X119634000Y-121158000D01*
X119283000Y-117518000D02*
X119283000Y-118018000D01*
X105777001Y-129847000D02*
X105550000Y-129619999D01*
X110350000Y-129045000D02*
X110350000Y-128470001D01*
X118605000Y-116840000D02*
X119283000Y-117518000D01*
X103124000Y-118496000D02*
X105278000Y-118496000D01*
X105550000Y-129619999D02*
X105550000Y-129045000D01*
X110350000Y-129045000D02*
X110350000Y-129426000D01*
X110350000Y-128470001D02*
X117662001Y-121158000D01*
X105550000Y-123050000D02*
X106680000Y-121920000D01*
%TO.N,GPIO11*%
X105823000Y-97503000D02*
X105823000Y-100899954D01*
X113538000Y-105410000D02*
X115824000Y-105410000D01*
X106490000Y-103004506D02*
X106762494Y-103277000D01*
X105750000Y-97430000D02*
X105823000Y-97503000D01*
X111525000Y-105137000D02*
X113265000Y-105137000D01*
X106754270Y-101831224D02*
X106490000Y-102095494D01*
X113265000Y-105137000D02*
X113538000Y-105410000D01*
X107115000Y-103277000D02*
X107115000Y-103451000D01*
X107115000Y-103451000D02*
X106680000Y-103886000D01*
X106490000Y-102095494D02*
X106490000Y-103004506D01*
X115824000Y-105410000D02*
X116840000Y-106426000D01*
X111233000Y-105429000D02*
X111525000Y-105137000D01*
X105823000Y-100899954D02*
X106754270Y-101831224D01*
X106762494Y-103277000D02*
X107115000Y-103277000D01*
%TO.N,GPIO10*%
X106163000Y-101960046D02*
X106163000Y-103139954D01*
X105423000Y-97503000D02*
X105423000Y-97896124D01*
X105496000Y-97969124D02*
X105496000Y-101035402D01*
X106421878Y-103398832D02*
X106153000Y-103667709D01*
X105350000Y-97430000D02*
X105423000Y-97503000D01*
X105496000Y-101035402D02*
X106291822Y-101831224D01*
X111252000Y-110236000D02*
X112776000Y-110236000D01*
X106153000Y-104104291D02*
X106461709Y-104413000D01*
X106291822Y-101831224D02*
X106163000Y-101960046D01*
X106153000Y-103667709D02*
X106153000Y-104104291D01*
X112776000Y-110236000D02*
X114554000Y-108458000D01*
X106163000Y-103139954D02*
X106421878Y-103398832D01*
X106461709Y-104413000D02*
X106680000Y-104413000D01*
X105423000Y-97896124D02*
X105496000Y-97969124D01*
X106680000Y-104413000D02*
X106680000Y-104902000D01*
%TO.N,GPIO12*%
X108747709Y-102851000D02*
X109184291Y-102851000D01*
X108394000Y-103004506D02*
X108392000Y-103006506D01*
X116727328Y-105060224D02*
X116998224Y-105060224D01*
X112014000Y-104394000D02*
X112430000Y-104810000D01*
X109493000Y-103596291D02*
X109237393Y-103851899D01*
X106150000Y-100764506D02*
X107208494Y-101823000D01*
X109493000Y-103159709D02*
X109493000Y-103596291D01*
X113673448Y-105083000D02*
X115959448Y-105083000D01*
X109779494Y-104394000D02*
X112014000Y-104394000D01*
X117402000Y-105464000D02*
X117402000Y-105664000D01*
X116332000Y-105455552D02*
X116727328Y-105060224D01*
X116998224Y-105060224D02*
X117402000Y-105464000D01*
X109184291Y-102851000D02*
X109493000Y-103159709D01*
X107208494Y-101823000D02*
X108121506Y-101823000D01*
X108394000Y-102095494D02*
X108394000Y-103004506D01*
X115959448Y-105083000D02*
X116332000Y-105455552D01*
X112430000Y-104810000D02*
X113400448Y-104810000D01*
X117402000Y-105664000D02*
X117602000Y-105664000D01*
X109237393Y-103851899D02*
X109779494Y-104394000D01*
X113400448Y-104810000D02*
X113673448Y-105083000D01*
X108121506Y-101823000D02*
X108394000Y-102095494D01*
X108492102Y-103106608D02*
X108747709Y-102851000D01*
X108392000Y-103006506D02*
X108492102Y-103106608D01*
X106150000Y-97430000D02*
X106150000Y-100764506D01*
%TO.N,GPIO13*%
X116586000Y-95504000D02*
X114554000Y-95504000D01*
X117945709Y-92891000D02*
X117501000Y-92891000D01*
X115328506Y-93967494D02*
X115328506Y-93662000D01*
X117345506Y-93545000D02*
X117945709Y-93545000D01*
X116713000Y-95631000D02*
X116586000Y-95504000D01*
X110829876Y-96803000D02*
X110933876Y-96907000D01*
X119983000Y-92057000D02*
X119983000Y-92238241D01*
X106426000Y-96537562D02*
X106429562Y-96534000D01*
X114046000Y-95250000D02*
X115328506Y-93967494D01*
X115601000Y-93389506D02*
X115601000Y-92445448D01*
X105950000Y-96836876D02*
X105983876Y-96803000D01*
X106550000Y-97430000D02*
X106550000Y-97036876D01*
X106426000Y-96693124D02*
X106426000Y-96537562D01*
X110295552Y-96534000D02*
X110564552Y-96803000D01*
X118582291Y-93745000D02*
X118891000Y-93436291D01*
X106623000Y-96963876D02*
X107052876Y-96534000D01*
X105983876Y-96803000D02*
X106316124Y-96803000D01*
X116047000Y-93389506D02*
X116319494Y-93662000D01*
X117228506Y-93662000D02*
X117345506Y-93545000D01*
X107052876Y-96534000D02*
X105915324Y-96534000D01*
X106429562Y-96534000D02*
X106429562Y-96770438D01*
X115601000Y-92445448D02*
X115989448Y-92057000D01*
X105915324Y-96534000D02*
X105646324Y-96803000D01*
X118891000Y-93436291D02*
X118891000Y-92999709D01*
X118145709Y-92691000D02*
X117945709Y-92891000D01*
X106316124Y-96803000D02*
X106426000Y-96693124D01*
X105915324Y-96534000D02*
X110295552Y-96534000D01*
X115989448Y-92057000D02*
X116047000Y-92057000D01*
X114554000Y-95504000D02*
X114300000Y-95758000D01*
X111935448Y-96907000D02*
X113592448Y-95250000D01*
X106550000Y-97036876D02*
X106623000Y-96963876D01*
X116319494Y-93662000D02*
X117228506Y-93662000D01*
X115328506Y-93662000D02*
X115601000Y-93389506D01*
X110564552Y-96803000D02*
X110829876Y-96803000D01*
X116586000Y-102362000D02*
X117094000Y-102362000D01*
X119983000Y-92238241D02*
X120044379Y-92299621D01*
X117945709Y-93545000D02*
X118145709Y-93745000D01*
X116047000Y-92057000D02*
X116047000Y-93389506D01*
X106429562Y-96770438D02*
X106623000Y-96963876D01*
X117501000Y-92891000D02*
X117501000Y-92057000D01*
X117501000Y-92057000D02*
X119983000Y-92057000D01*
X114300000Y-95758000D02*
X114300000Y-100076000D01*
X110933876Y-96907000D02*
X111935448Y-96907000D01*
X105916124Y-96803000D02*
X105950000Y-96836876D01*
X113592448Y-95250000D02*
X114046000Y-95250000D01*
X118891000Y-92999709D02*
X118582291Y-92691000D01*
X105646324Y-96803000D02*
X105916124Y-96803000D01*
X118582291Y-92691000D02*
X118145709Y-92691000D01*
X120044379Y-92299621D02*
X116713000Y-95631000D01*
X114300000Y-100076000D02*
X116586000Y-102362000D01*
X118145709Y-93745000D02*
X118582291Y-93745000D01*
%TO.N,USB_DP*%
X112341000Y-109909000D02*
X116100776Y-106149224D01*
X116094896Y-104756000D02*
X113808896Y-104756000D01*
X110417000Y-104067000D02*
X109977000Y-103627000D01*
X117058291Y-106953000D02*
X117367000Y-106644291D01*
X116591880Y-104733224D02*
X116332000Y-104993104D01*
X107700000Y-129045000D02*
X107700000Y-128470001D01*
X110725000Y-110017709D02*
X111033709Y-109709000D01*
X116563224Y-105686776D02*
X116862776Y-105387224D01*
X109977000Y-98057000D02*
X109750000Y-97830000D01*
X113167001Y-118395000D02*
X107270494Y-118395000D01*
X109750000Y-97830000D02*
X109750000Y-97430000D01*
X115471001Y-120699000D02*
X113167001Y-118395000D01*
X111670291Y-109909000D02*
X112341000Y-109909000D01*
X111470291Y-109709000D02*
X111670291Y-109909000D01*
X112149448Y-104067000D02*
X110417000Y-104067000D01*
X117820291Y-105137000D02*
X117537448Y-105137000D01*
X111470291Y-110763000D02*
X111033709Y-110763000D01*
X107700000Y-128470001D02*
X115471001Y-120699000D01*
X117367000Y-106644291D02*
X117367000Y-106207709D01*
X117537448Y-105137000D02*
X117133672Y-104733224D01*
X108985000Y-114518291D02*
X108985000Y-114081709D01*
X117367000Y-106207709D02*
X117058291Y-105899000D01*
X112565448Y-104483000D02*
X112149448Y-104067000D01*
X106998000Y-118122506D02*
X106998000Y-115489291D01*
X107931000Y-114319000D02*
X107931000Y-114518291D01*
X111687000Y-110563000D02*
X111670291Y-110563000D01*
X107207000Y-115043000D02*
X107931000Y-114319000D01*
X107270494Y-118395000D02*
X106998000Y-118122506D01*
X111033709Y-110763000D02*
X110725000Y-110454291D01*
X117133672Y-104733224D02*
X116591880Y-104733224D01*
X108239709Y-114827000D02*
X108676291Y-114827000D01*
X116313000Y-106644291D02*
X116621709Y-106953000D01*
X110908291Y-113419261D02*
X111687000Y-112640552D01*
X106998000Y-115489291D02*
X107207000Y-115280291D01*
X108785000Y-113610813D02*
X108976552Y-113419261D01*
X111687000Y-112640552D02*
X111687000Y-110563000D01*
X110725000Y-110454291D02*
X110725000Y-110017709D01*
X116332000Y-104993104D02*
X116094896Y-104756000D01*
X116313000Y-106361448D02*
X116313000Y-106644291D01*
X116775448Y-105899000D02*
X116563224Y-105686776D01*
X113808896Y-104756000D02*
X113535896Y-104483000D01*
X117383709Y-106191000D02*
X117820291Y-106191000D01*
X116862776Y-105387224D02*
X117075000Y-105599448D01*
X118129000Y-105445709D02*
X117820291Y-105137000D01*
X109977000Y-103627000D02*
X109977000Y-98057000D01*
X117058291Y-105899000D02*
X116775448Y-105899000D01*
X108985000Y-114081709D02*
X108785000Y-113881709D01*
X111033709Y-109709000D02*
X111470291Y-109709000D01*
X116100776Y-106149224D02*
X116313000Y-106361448D01*
X117075000Y-105882291D02*
X117383709Y-106191000D01*
X117820291Y-106191000D02*
X118129000Y-105882291D01*
X108676291Y-114827000D02*
X108985000Y-114518291D01*
X116621709Y-106953000D02*
X117058291Y-106953000D01*
X107207000Y-115280291D02*
X107207000Y-115043000D01*
X113535896Y-104483000D02*
X112565448Y-104483000D01*
X108785000Y-113881709D02*
X108785000Y-113610813D01*
X117075000Y-105599448D02*
X117075000Y-105882291D01*
X108976552Y-113419261D02*
X110908291Y-113419261D01*
X111670291Y-110563000D02*
X111470291Y-110763000D01*
X118129000Y-105882291D02*
X118129000Y-105445709D01*
X107931000Y-114518291D02*
X108239709Y-114827000D01*
%TO.N,USB_DN*%
X109220000Y-99060000D02*
X109350000Y-98930000D01*
X108200000Y-129045000D02*
X108200000Y-128540830D01*
X108200000Y-128540830D02*
X117106830Y-119634000D01*
X117106830Y-119634000D02*
X117348000Y-119634000D01*
X109350000Y-98930000D02*
X109350000Y-97430000D01*
%TO.N,Net-(U1-CHIP_PU)*%
X104500000Y-92580000D02*
X104900000Y-92580000D01*
X104900000Y-92580000D02*
X106040000Y-91440000D01*
X106040000Y-91440000D02*
X106680000Y-91440000D01*
%TO.N,DAC_MUTE*%
X101922500Y-105959000D02*
X103165000Y-105959000D01*
X104140000Y-103632000D02*
X104375000Y-103632000D01*
X103632000Y-104140000D02*
X104140000Y-103632000D01*
X106950000Y-97430000D02*
X106950000Y-98060000D01*
X103165000Y-105959000D02*
X103632000Y-105492000D01*
X103632000Y-105492000D02*
X103632000Y-104140000D01*
X106950000Y-98060000D02*
X107696000Y-98806000D01*
%TO.N,Net-(U3-IN2-)*%
X106429000Y-108709000D02*
X105918000Y-109220000D01*
X108204000Y-113030000D02*
X108458000Y-113284000D01*
X108458000Y-113284000D02*
X108458000Y-114300000D01*
X107206000Y-108709000D02*
X106429000Y-108709000D01*
X107696000Y-125222000D02*
X108204000Y-124714000D01*
X107442000Y-110744000D02*
X108204000Y-111506000D01*
X106172000Y-110744000D02*
X107442000Y-110744000D01*
X108204000Y-124714000D02*
X108204000Y-122174000D01*
%TO.N,Net-(U3-IN1-)*%
X112268000Y-105997000D02*
X111506000Y-106759000D01*
X112268000Y-105664000D02*
X112268000Y-105997000D01*
%TO.N,AMP_ENABLE*%
X105156000Y-108712000D02*
X105809000Y-108059000D01*
X105809000Y-108059000D02*
X107206000Y-108059000D01*
X108344000Y-104000000D02*
X108966000Y-103378000D01*
X108966000Y-100330000D02*
X108550000Y-99914000D01*
X107206000Y-108059000D02*
X107782266Y-108059000D01*
X108550000Y-99914000D02*
X108550000Y-97430000D01*
X107782266Y-108059000D02*
X108344000Y-107497266D01*
X108344000Y-107497266D02*
X108344000Y-104000000D01*
%TO.N,I2C_SCL*%
X101854000Y-96180000D02*
X101854000Y-93726000D01*
X104500000Y-96180000D02*
X101854000Y-96180000D01*
%TO.N,I2C_SDA*%
X103632000Y-97448000D02*
X104500000Y-96580000D01*
X103632000Y-97790000D02*
X103632000Y-97448000D01*
%TO.N,Net-(U5-PROG)*%
X123190000Y-116511000D02*
X123190000Y-116332000D01*
X122183000Y-117518000D02*
X123190000Y-116511000D01*
%TO.N,Net-(U5-STAT)*%
X122183000Y-119018000D02*
X122183000Y-119117000D01*
X122183000Y-119117000D02*
X120904000Y-120396000D01*
X116332000Y-115824000D02*
X116351000Y-115805000D01*
X116351000Y-115805000D02*
X126473000Y-115805000D01*
X126473000Y-115805000D02*
X127000000Y-116332000D01*
%TO.N,I2S_BCK*%
X102708000Y-95253000D02*
X102835000Y-95253000D01*
X102835000Y-95253000D02*
X103108000Y-94980000D01*
X98044000Y-112522000D02*
X95504000Y-112522000D01*
X95504000Y-112522000D02*
X93726000Y-110744000D01*
X88392000Y-100838000D02*
X87376000Y-100838000D01*
X103108000Y-94980000D02*
X104500000Y-94980000D01*
X94234000Y-107696000D02*
X94234000Y-106680000D01*
X100584000Y-109332000D02*
X101357000Y-108559000D01*
X101357000Y-108559000D02*
X101922500Y-108559000D01*
X93726000Y-110744000D02*
X93726000Y-110236000D01*
X94234000Y-106680000D02*
X88392000Y-100838000D01*
%TO.N,I2S_SCK*%
X105318000Y-111097739D02*
X105818261Y-111598000D01*
X102181000Y-94144291D02*
X102181000Y-95780000D01*
X103632000Y-93218000D02*
X102362000Y-93218000D01*
X105410000Y-102362000D02*
X104921000Y-101873000D01*
X102381000Y-93507709D02*
X102381000Y-93944291D01*
X105410000Y-102362000D02*
X105229000Y-102543000D01*
X104774948Y-112249000D02*
X102755084Y-110229136D01*
X105229000Y-107052739D02*
X105418261Y-107242000D01*
X105826000Y-111660261D02*
X105826000Y-111943104D01*
X102887000Y-110097220D02*
X102887000Y-109620780D01*
X105888261Y-111598000D02*
X105826000Y-111660261D01*
X104921000Y-101873000D02*
X104921000Y-98571000D01*
X102362000Y-93218000D02*
X102226645Y-93353355D01*
X105818261Y-111598000D02*
X105888261Y-111598000D01*
X105229000Y-102543000D02*
X105229000Y-107052739D01*
X102755084Y-110229136D02*
X102887000Y-110097220D01*
X102381000Y-93944291D02*
X102181000Y-94144291D01*
X101922500Y-109432000D02*
X101922500Y-109209000D01*
X104302000Y-108358261D02*
X104302000Y-109065739D01*
X105175000Y-112594103D02*
X105175000Y-112557709D01*
X102181000Y-95780000D02*
X104500000Y-95780000D01*
X104921000Y-98571000D02*
X104648000Y-98298000D01*
X105318000Y-110390261D02*
X105318000Y-111097739D01*
X105175000Y-112557709D02*
X104866291Y-112249000D01*
X104866291Y-112249000D02*
X104774948Y-112249000D01*
X105418261Y-107242000D02*
X104302000Y-108358261D01*
X105826000Y-111943104D02*
X105175000Y-112594103D01*
X105472261Y-110236000D02*
X105318000Y-110390261D01*
X102698220Y-109432000D02*
X101922500Y-109432000D01*
X102226645Y-93353355D02*
X102381000Y-93507709D01*
X104302000Y-109065739D02*
X105472261Y-110236000D01*
X102887000Y-109620780D02*
X102698220Y-109432000D01*
%TO.N,I2S_LRCK*%
X99822000Y-117348000D02*
X94234000Y-117348000D01*
X89916000Y-116332000D02*
X82839000Y-109255000D01*
X82839000Y-98888494D02*
X83429494Y-98298000D01*
X100932780Y-107696000D02*
X101369780Y-107259000D01*
X83429494Y-98298000D02*
X85090000Y-98298000D01*
X100330000Y-108458000D02*
X100330000Y-108204000D01*
X82839000Y-109255000D02*
X82839000Y-98888494D01*
X101369780Y-107259000D02*
X101922500Y-107259000D01*
X100330000Y-108204000D02*
X100838000Y-107696000D01*
X103124000Y-94234000D02*
X103470000Y-94580000D01*
X103470000Y-94580000D02*
X104500000Y-94580000D01*
X100838000Y-107696000D02*
X100932780Y-107696000D01*
%TO.N,I2S_DIN*%
X104883000Y-102297448D02*
X104594000Y-102008448D01*
X104902000Y-102599291D02*
X104883000Y-102580291D01*
X104883000Y-102580291D02*
X104883000Y-102297448D01*
X104594000Y-102008448D02*
X104594000Y-99260000D01*
X105410000Y-94870000D02*
X104900000Y-95380000D01*
X101922500Y-107909000D02*
X102845709Y-107909000D01*
X104900000Y-95380000D02*
X104500000Y-95380000D01*
X102845709Y-107909000D02*
X103159709Y-108223000D01*
X103159709Y-108223000D02*
X103596291Y-108223000D01*
X105410000Y-94488000D02*
X105410000Y-94870000D01*
X104594000Y-99260000D02*
X104394000Y-99060000D01*
X104902000Y-106917291D02*
X104902000Y-102599291D01*
X103596291Y-108223000D02*
X104902000Y-106917291D01*
%TO.N,Net-(J4-CC1)*%
X106680000Y-129025000D02*
X106700000Y-129045000D01*
X106680000Y-127254000D02*
X106680000Y-129025000D01*
%TO.N,Net-(J4-CC2)*%
X109577000Y-128922000D02*
X109577000Y-128421000D01*
X109577000Y-128421000D02*
X110744000Y-127254000D01*
X109700000Y-129045000D02*
X109577000Y-128922000D01*
%TD*%
M02*
