M48
; DRILL file KiCad 10.0.3 date 2026-09-27T21:05:10
; FORMAT={-:-/ absolute / metric / decimal}
; #@! TF.CreationDate,2026-09-27T21:05:10+02:00
; #@! TF.GenerationSoftware,Kicad,Pcbnew,10.0.3
; #@! TF.FileFunction,Plated,1,2,PTH
FMAT,2
METRIC
; #@! TA.AperFunction,Plated,PTH,ViaDrill
T1C0.300
; #@! TA.AperFunction,Plated,PTH,ComponentDrill
T2C0.600
; #@! TA.AperFunction,Plated,PTH,ComponentDrill
T3C0.750
; #@! TA.AperFunction,Plated,PTH,ComponentDrill
T4C0.800
; #@! TA.AperFunction,Plated,PTH,ComponentDrill
T5C0.900
; #@! TA.AperFunction,Plated,PTH,ComponentDrill
T6C1.000
; #@! TA.AperFunction,Plated,PTH,ComponentDrill
T7C1.100
; #@! TA.AperFunction,Plated,PTH,ComponentDrill
T8C1.500
%
G90
G05
T1
X80.264Y-97.282
X85.09Y-98.298
X87.376Y-100.838
X89.408Y-114.808
X89.916Y-116.332
X90.17Y-100.33
X93.726Y-104.902
X93.726Y-110.236
X94.234Y-107.696
X94.234Y-117.348
X94.488Y-105.664
X94.488Y-112.776
X97.536Y-105.959
X97.536Y-106.934
X97.643Y-108.363
X98.044Y-112.522
X98.917Y-106.857
X99.403Y-101.765
X99.822Y-117.348
X100.33Y-108.458
X100.584Y-105.156
X100.584Y-109.332
X101.854Y-93.726
X102.708Y-95.253
X103.124Y-94.234
X103.124Y-122.428
X103.378Y-107.696
X103.632Y-93.218
X103.632Y-97.79
X103.632Y-102.616
X103.632Y-104.14
X104.375Y-103.632
X104.394Y-99.06
X104.648Y-98.298
X104.648Y-112.776
X105.156Y-108.712
X105.41Y-89.154
X105.41Y-94.488
X105.41Y-102.362
X105.41Y-118.364
X105.664Y-120.65
X105.918Y-106.68
X105.918Y-109.22
X106.172Y-110.744
X106.68Y-91.44
X106.68Y-99.06
X106.68Y-103.886
X106.68Y-104.902
X106.68Y-112.014
X106.68Y-115.062
X106.68Y-121.92
X106.68Y-127.254
X107.696Y-98.806
X107.696Y-125.222
X107.969Y-93.98
X108.204Y-111.506
X108.204Y-113.03
X108.204Y-122.174
X108.458Y-114.3
X108.458Y-125.73
X108.966Y-100.33
X108.966Y-103.378
X108.966Y-122.936
X109.22Y-99.06
X110.236Y-112.522
X110.744Y-122.936
X110.744Y-127.254
X111.233Y-105.429
X111.252Y-110.236
X112.268Y-105.664
X112.776Y-94.234
X113.284Y-107.95
X113.792Y-120.904
X114.554Y-103.378
X114.554Y-108.458
X116.332Y-115.824
X116.84Y-106.426
X117.094Y-102.362
X117.348Y-83.058
X117.348Y-118.618
X117.348Y-119.634
X117.602Y-105.664
X118.11Y-116.84
X118.364Y-93.218
X118.872Y-96.012
X119.634Y-121.158
X120.904Y-120.396
X122.174Y-81.28
X123.19Y-116.332
X127.0Y-116.332
X136.398Y-96.012
T3
X130.392Y-117.872
X130.392Y-119.872
T4
X96.52Y-122.682
X96.52Y-130.532
X99.02Y-122.682
X99.02Y-130.532
T5
X132.588Y-58.928
X135.128Y-58.928
T6
X90.45Y-66.294
X90.45Y-68.834
X90.45Y-71.374
X90.45Y-73.914
X121.147Y-127.04
X121.147Y-129.54
X121.147Y-132.04
X135.647Y-127.04
X135.647Y-132.04
T7
X88.19Y-91.73
X88.19Y-96.23
X94.69Y-91.73
X94.69Y-96.23
X121.21Y-91.73
X121.21Y-96.23
X127.71Y-91.73
X127.71Y-96.23
T2
G00X103.63Y-129.06
M15
G01X103.63Y-130.16
M16
G05
G00X103.63Y-133.49
M15
G01X103.63Y-134.09
M16
G05
G00X112.27Y-129.06
M15
G01X112.27Y-130.16
M16
G05
G00X112.27Y-133.49
M15
G01X112.27Y-134.09
M16
G05
T6
G00X86.765Y-123.291
M15
G01X85.765Y-123.291
M16
G05
G00X86.765Y-128.791
M15
G01X85.765Y-128.791
M16
G05
G00X88.765Y-119.591
M15
G01X87.765Y-119.591
M16
G05
G00X88.765Y-125.091
M15
G01X87.765Y-125.091
M16
G05
G00X88.765Y-131.191
M15
G01X87.765Y-131.191
M16
G05
T8
G00X127.997Y-123.94
M15
G01X129.297Y-123.94
M16
G05
G00X127.997Y-135.14
M15
G01X129.297Y-135.14
M16
G05
M30
