%TF.GenerationSoftware,KiCad,Pcbnew,10.0.3*%
%TF.CreationDate,2026-09-27T21:05:20+02:00*%
%TF.ProjectId,fuji-mini-v2,66756a69-2d6d-4696-9e69-2d76322e6b69,rev?*%
%TF.SameCoordinates,Original*%
%TF.FileFunction,Copper,L2,Bot*%
%TF.FilePolarity,Positive*%
%FSLAX46Y46*%
G04 Gerber Fmt 4.6, Leading zero omitted, Abs format (unit mm)*
G04 Created by KiCad (PCBNEW 10.0.3) date 2026-09-27 21:05:20*
%MOMM*%
%LPD*%
G01*
G04 APERTURE LIST*
G04 Aperture macros list*
%AMRoundRect*
0 Rectangle with rounded corners*
0 $1 Rounding radius*
0 $2 $3 $4 $5 $6 $7 $8 $9 X,Y pos of 4 corners*
0 Add a 4 corners polygon primitive as box body*
4,1,4,$2,$3,$4,$5,$6,$7,$8,$9,$2,$3,0*
0 Add four circle primitives for the rounded corners*
1,1,$1+$1,$2,$3*
1,1,$1+$1,$4,$5*
1,1,$1+$1,$6,$7*
1,1,$1+$1,$8,$9*
0 Add four rect primitives between the rounded corners*
20,1,$1+$1,$2,$3,$4,$5,0*
20,1,$1+$1,$4,$5,$6,$7,0*
20,1,$1+$1,$6,$7,$8,$9,0*
20,1,$1+$1,$8,$9,$2,$3,0*%
G04 Aperture macros list end*
%TA.AperFunction,ComponentPad*%
%ADD10C,2.000000*%
%TD*%
%TA.AperFunction,ComponentPad*%
%ADD11RoundRect,0.250000X-0.550000X-0.550000X0.550000X-0.550000X0.550000X0.550000X-0.550000X0.550000X0*%
%TD*%
%TA.AperFunction,ComponentPad*%
%ADD12C,1.600000*%
%TD*%
%TA.AperFunction,ComponentPad*%
%ADD13O,2.800000X1.800000*%
%TD*%
%TA.AperFunction,ComponentPad*%
%ADD14R,1.800000X1.800000*%
%TD*%
%TA.AperFunction,ComponentPad*%
%ADD15C,1.800000*%
%TD*%
%TA.AperFunction,ComponentPad*%
%ADD16O,1.000000X2.100000*%
%TD*%
%TA.AperFunction,ComponentPad*%
%ADD17O,1.000000X1.600000*%
%TD*%
%TA.AperFunction,ComponentPad*%
%ADD18R,2.000000X2.000000*%
%TD*%
%TA.AperFunction,ComponentPad*%
%ADD19R,3.200000X2.000000*%
%TD*%
%TA.AperFunction,ComponentPad*%
%ADD20RoundRect,0.250000X0.625000X-0.350000X0.625000X0.350000X-0.625000X0.350000X-0.625000X-0.350000X0*%
%TD*%
%TA.AperFunction,ComponentPad*%
%ADD21O,1.750000X1.200000*%
%TD*%
%TA.AperFunction,ComponentPad*%
%ADD22RoundRect,0.170000X0.680000X-0.680000X0.680000X0.680000X-0.680000X0.680000X-0.680000X-0.680000X0*%
%TD*%
%TA.AperFunction,ComponentPad*%
%ADD23C,1.700000*%
%TD*%
%TA.AperFunction,SMDPad,CuDef*%
%ADD24RoundRect,0.250000X0.262500X0.450000X-0.262500X0.450000X-0.262500X-0.450000X0.262500X-0.450000X0*%
%TD*%
%TA.AperFunction,SMDPad,CuDef*%
%ADD25R,1.200000X0.700000*%
%TD*%
%TA.AperFunction,SMDPad,CuDef*%
%ADD26R,0.800000X1.000000*%
%TD*%
%TA.AperFunction,SMDPad,CuDef*%
%ADD27R,2.800000X1.000000*%
%TD*%
%TA.AperFunction,SMDPad,CuDef*%
%ADD28R,1.200000X1.000000*%
%TD*%
%TA.AperFunction,SMDPad,CuDef*%
%ADD29R,1.900000X1.300000*%
%TD*%
%TA.AperFunction,SMDPad,CuDef*%
%ADD30RoundRect,0.250000X-0.450000X0.262500X-0.450000X-0.262500X0.450000X-0.262500X0.450000X0.262500X0*%
%TD*%
%TA.AperFunction,SMDPad,CuDef*%
%ADD31RoundRect,0.250000X-0.250000X-0.475000X0.250000X-0.475000X0.250000X0.475000X-0.250000X0.475000X0*%
%TD*%
%TA.AperFunction,SMDPad,CuDef*%
%ADD32RoundRect,0.250000X0.250000X0.475000X-0.250000X0.475000X-0.250000X-0.475000X0.250000X-0.475000X0*%
%TD*%
%TA.AperFunction,SMDPad,CuDef*%
%ADD33RoundRect,0.250000X-0.475000X0.250000X-0.475000X-0.250000X0.475000X-0.250000X0.475000X0.250000X0*%
%TD*%
%TA.AperFunction,ViaPad*%
%ADD34C,0.600000*%
%TD*%
%TA.AperFunction,Conductor*%
%ADD35C,0.200000*%
%TD*%
G04 APERTURE END LIST*
D10*
%TO.P,PLAY/PAUSE1,1,1_1*%
%TO.N,3V3*%
X121210000Y-91730000D03*
X127710000Y-91730000D03*
%TO.P,PLAY/PAUSE1,2,2_2*%
%TO.N,BTN_PLAY*%
X121210000Y-96230000D03*
X127710000Y-96230000D03*
%TD*%
D11*
%TO.P,C19,1*%
%TO.N,VO2*%
X96520000Y-130532000D03*
D12*
%TO.P,C19,2*%
%TO.N,HP_R*%
X99020000Y-130532000D03*
%TD*%
D10*
%TO.P,BCKWRD/FRWD1,1,1_1*%
%TO.N,3V3*%
X88190000Y-91730000D03*
X94690000Y-91730000D03*
%TO.P,BCKWRD/FRWD1,2,2_2*%
%TO.N,BTN_NEXT*%
X88190000Y-96230000D03*
X94690000Y-96230000D03*
%TD*%
D13*
%TO.P,J2,R*%
%TO.N,HP_R*%
X86265000Y-123291000D03*
%TO.P,J2,RN*%
%TO.N,N/C*%
X88265000Y-125091000D03*
%TO.P,J2,S*%
%TO.N,3V3*%
X88265000Y-131191000D03*
%TO.P,J2,T*%
%TO.N,HP_L*%
X86265000Y-128791000D03*
%TO.P,J2,TN*%
%TO.N,HP_DETECT*%
X88265000Y-119591000D03*
%TD*%
D14*
%TO.P,D1,1,K_1*%
%TO.N,Net-(D1-K)*%
X132588000Y-58928000D03*
D15*
%TO.P,D1,2,A_2*%
%TO.N,3V3*%
X135128000Y-58928000D03*
%TD*%
D16*
%TO.P,J4,SH,SHIELD_SH*%
%TO.N,3V3*%
X103630000Y-129610000D03*
D17*
X103630000Y-133790000D03*
D16*
X112270000Y-129610000D03*
D17*
X112270000Y-133790000D03*
%TD*%
D18*
%TO.P,SW1,A,A_A*%
%TO.N,ENC_A*%
X121147000Y-127040000D03*
D10*
%TO.P,SW1,B,B_B*%
%TO.N,ENC_B*%
X121147000Y-132040000D03*
%TO.P,SW1,C,C_C*%
%TO.N,3V3*%
X121147000Y-129540000D03*
D19*
%TO.P,SW1,MP*%
%TO.N,N/C*%
X128647000Y-123940000D03*
X128647000Y-135140000D03*
D10*
%TO.P,SW1,S1,S1_S1*%
%TO.N,3V3*%
X135647000Y-132040000D03*
%TO.P,SW1,S2,S2_S2*%
%TO.N,Net-(R17-Pad1)*%
X135647000Y-127040000D03*
%TD*%
D20*
%TO.P,BT1,1,+_1*%
%TO.N,VBAT*%
X130392000Y-119872000D03*
D21*
%TO.P,BT1,2,-_2*%
%TO.N,3V3*%
X130392000Y-117872000D03*
%TD*%
D22*
%TO.P,U4,1,GND_1*%
%TO.N,3V3*%
X90450000Y-73914000D03*
D23*
%TO.P,U4,2,VCC_2*%
X90450000Y-71374000D03*
%TO.P,U4,3,SCL_3*%
%TO.N,I2C_SCL*%
X90450000Y-68834000D03*
%TO.P,U4,4,SDA_4*%
%TO.N,I2C_SDA*%
X90450000Y-66294000D03*
%TD*%
D11*
%TO.P,C18,1*%
%TO.N,VO1*%
X96520000Y-122682000D03*
D12*
%TO.P,C18,2*%
%TO.N,HP_L*%
X99020000Y-122682000D03*
%TD*%
D24*
%TO.P,R6,1*%
%TO.N,VO2*%
X113180500Y-112776000D03*
%TO.P,R6,2*%
%TO.N,Net-(U3-IN2-)*%
X111355500Y-112776000D03*
%TD*%
D25*
%TO.P,J1,1,DAT2_1*%
%TO.N,Net-(J1-DAT2)*%
X115719000Y-110217000D03*
%TO.P,J1,2,DAT3/CD_2*%
%TO.N,GPIO10*%
X115719000Y-109117000D03*
%TO.P,J1,3,CMD_3*%
%TO.N,GPIO11*%
X115719000Y-108017000D03*
%TO.P,J1,4,VDD_4*%
%TO.N,Net-(J1-VDD)*%
X115719000Y-106917000D03*
%TO.P,J1,5,CLK_5*%
%TO.N,GPIO12*%
X115719000Y-105817000D03*
%TO.P,J1,6,VSS_6*%
%TO.N,3V3*%
X115719000Y-104717000D03*
%TO.P,J1,7,DAT0_7*%
%TO.N,GPIO13*%
X115719000Y-103617000D03*
%TO.P,J1,8,DAT1_8*%
%TO.N,Net-(J1-DAT1)*%
X115719000Y-102517000D03*
%TO.P,J1,9*%
%TO.N,N/C*%
X115719000Y-101567000D03*
D26*
%TO.P,J1,10*%
X126219000Y-100617000D03*
D27*
%TO.P,J1,SH,SHIELD_SH*%
%TO.N,3V3*%
X130369000Y-100617000D03*
D28*
X120019000Y-100617000D03*
X115719000Y-111767000D03*
D29*
X130819000Y-114117000D03*
%TD*%
D24*
%TO.P,R9,1*%
%TO.N,3V3*%
X103632000Y-114554000D03*
%TO.P,R9,2*%
%TO.N,AMP_ENABLE*%
X101807000Y-114554000D03*
%TD*%
%TO.P,R19,1*%
%TO.N,3V3*%
X112268000Y-125476000D03*
%TO.P,R19,2*%
%TO.N,Net-(J4-CC2)*%
X110443000Y-125476000D03*
%TD*%
D30*
%TO.P,R10,1*%
%TO.N,I2C_SCL*%
X101092000Y-95758000D03*
%TO.P,R10,2*%
%TO.N,3V3*%
X101092000Y-97583000D03*
%TD*%
D24*
%TO.P,R21,1*%
%TO.N,Net-(U5-STAT)*%
X115824000Y-118364000D03*
%TO.P,R21,2*%
%TO.N,Net-(D1-K)*%
X113999000Y-118364000D03*
%TD*%
%TO.P,R16,1*%
%TO.N,3V3*%
X125984000Y-118110000D03*
%TO.P,R16,2*%
%TO.N,Net-(U5-PROG)*%
X124159000Y-118110000D03*
%TD*%
%TO.P,R7,1*%
%TO.N,DAC_OUTL*%
X112164500Y-103378000D03*
%TO.P,R7,2*%
%TO.N,Net-(U3-IN1-)*%
X110339500Y-103378000D03*
%TD*%
D30*
%TO.P,R17,1*%
%TO.N,Net-(R17-Pad1)*%
X117856000Y-123651000D03*
%TO.P,R17,2*%
%TO.N,3V3*%
X117856000Y-125476000D03*
%TD*%
%TO.P,R5,1*%
%TO.N,DAC_OUTR*%
X91948000Y-100179500D03*
%TO.P,R5,2*%
%TO.N,Net-(U3-IN2-)*%
X91948000Y-102004500D03*
%TD*%
D24*
%TO.P,R3,1*%
%TO.N,Net-(U1-CHIP_PU)*%
X106680000Y-87122000D03*
%TO.P,R3,2*%
%TO.N,3V3*%
X104855000Y-87122000D03*
%TD*%
%TO.P,R20,1*%
%TO.N,3V3*%
X98448500Y-99568000D03*
%TO.P,R20,2*%
%TO.N,BTN_NEXT*%
X96623500Y-99568000D03*
%TD*%
%TO.P,R8,1*%
%TO.N,VO1*%
X113030000Y-100076000D03*
%TO.P,R8,2*%
%TO.N,Net-(U3-IN1-)*%
X111205000Y-100076000D03*
%TD*%
%TO.P,R1,1*%
%TO.N,3V3*%
X111910500Y-116840000D03*
%TO.P,R1,2*%
%TO.N,Net-(J1-DAT2)*%
X110085500Y-116840000D03*
%TD*%
%TO.P,R2,1*%
%TO.N,3V3*%
X116840000Y-96774000D03*
%TO.P,R2,2*%
%TO.N,Net-(J1-DAT1)*%
X115015000Y-96774000D03*
%TD*%
%TO.P,R11,1*%
%TO.N,3V3*%
X103528500Y-100838000D03*
%TO.P,R11,2*%
%TO.N,I2C_SDA*%
X101703500Y-100838000D03*
%TD*%
D30*
%TO.P,R13,1*%
%TO.N,3V3*%
X117856000Y-132437500D03*
%TO.P,R13,2*%
%TO.N,ENC_B*%
X117856000Y-134262500D03*
%TD*%
D31*
%TO.P,C14,1*%
%TO.N,Net-(U2-OUTL)*%
X96774000Y-114554000D03*
%TO.P,C14,2*%
%TO.N,DAC_OUTL*%
X98674000Y-114554000D03*
%TD*%
D32*
%TO.P,C23,1*%
%TO.N,VBAT*%
X112164500Y-121158000D03*
%TO.P,C23,2*%
%TO.N,3V3*%
X110264500Y-121158000D03*
%TD*%
D30*
%TO.P,R15,1*%
%TO.N,3V3*%
X81280000Y-119079000D03*
%TO.P,R15,2*%
%TO.N,HP_DETECT*%
X81280000Y-120904000D03*
%TD*%
%TO.P,R14,1*%
%TO.N,BTN_PLAY*%
X132080000Y-94996000D03*
%TO.P,R14,2*%
%TO.N,3V3*%
X132080000Y-96821000D03*
%TD*%
D24*
%TO.P,R18,1*%
%TO.N,3V3*%
X105410000Y-125476000D03*
%TO.P,R18,2*%
%TO.N,Net-(J4-CC1)*%
X103585000Y-125476000D03*
%TD*%
D33*
%TO.P,C7,1*%
%TO.N,3V3*%
X134874000Y-111826000D03*
%TO.P,C7,2*%
X134874000Y-113726000D03*
%TD*%
D30*
%TO.P,R4,1*%
%TO.N,DAC_MUTE*%
X104648000Y-105513500D03*
%TO.P,R4,2*%
%TO.N,3V3*%
X104648000Y-107338500D03*
%TD*%
%TO.P,R12,1*%
%TO.N,3V3*%
X117856000Y-127762000D03*
%TO.P,R12,2*%
%TO.N,ENC_A*%
X117856000Y-129587000D03*
%TD*%
D34*
%TO.N,3V3*%
X117348000Y-83058000D03*
X103124000Y-122428000D03*
X103378000Y-107696000D03*
X105410000Y-89154000D03*
X108966000Y-122936000D03*
X98917000Y-106856554D03*
X122174000Y-81280000D03*
X112776000Y-94234000D03*
X105664000Y-120650000D03*
X105918000Y-106680000D03*
X104648000Y-112776000D03*
X110744000Y-122936000D03*
X108458000Y-125730000D03*
X99403000Y-101765000D03*
X107969000Y-93980000D03*
X106680000Y-99060000D03*
%TO.N,VBAT*%
X94488000Y-112776000D03*
X106680000Y-115062000D03*
X106680000Y-112014000D03*
X89408000Y-114808000D03*
X113792000Y-120904000D03*
X117348000Y-118618000D03*
%TO.N,Net-(J1-VDD)*%
X114554000Y-103378000D03*
X118364000Y-93218000D03*
X118872000Y-96012000D03*
%TO.N,Net-(U2-CAPM)*%
X136398000Y-96012000D03*
X97536000Y-105959000D03*
%TO.N,Net-(U2-CAPP)*%
X93726000Y-104902000D03*
X103632000Y-102616000D03*
%TO.N,Net-(U2-OUTL)*%
X97642833Y-108362926D03*
X100584000Y-105156000D03*
X97536000Y-106934000D03*
%TO.N,DAC_OUTR*%
X90170000Y-100330000D03*
%TO.N,Net-(U2-VNEG)*%
X94488000Y-105664000D03*
X80264000Y-97282000D03*
%TO.N,VO1*%
X113284000Y-107950000D03*
%TO.N,VO2*%
X110236000Y-112522000D03*
%TO.N,VDD*%
X119634000Y-121158000D03*
X118110000Y-116840000D03*
X105410000Y-118364000D03*
X106680000Y-121920000D03*
%TO.N,GPIO11*%
X111233000Y-105429000D03*
X116840000Y-106426000D03*
X106680000Y-103886000D03*
%TO.N,GPIO10*%
X114554000Y-108458000D03*
X106680000Y-104902000D03*
X111252000Y-110236000D03*
%TO.N,GPIO12*%
X117602000Y-105664000D03*
%TO.N,GPIO13*%
X117094000Y-102362000D03*
%TO.N,USB_DN*%
X109220000Y-99060000D03*
X117348000Y-119634000D03*
%TO.N,Net-(U1-CHIP_PU)*%
X106680000Y-91440000D03*
%TO.N,DAC_MUTE*%
X107696000Y-98806000D03*
X103632000Y-104140000D03*
X104375000Y-103632000D03*
%TO.N,Net-(U3-IN2-)*%
X108204000Y-122174000D03*
X108458000Y-114300000D03*
X108204000Y-111506000D03*
X105918000Y-109220000D03*
X108204000Y-113030000D03*
X107696000Y-125222000D03*
X106172000Y-110744000D03*
%TO.N,Net-(U3-IN1-)*%
X112268000Y-105664000D03*
%TO.N,AMP_ENABLE*%
X108966000Y-103378000D03*
X108966000Y-100330000D03*
X105156000Y-108712000D03*
%TO.N,I2C_SCL*%
X101854000Y-93726000D03*
%TO.N,I2C_SDA*%
X103632000Y-97790000D03*
%TO.N,Net-(U5-PROG)*%
X123190000Y-116332000D03*
%TO.N,Net-(U5-STAT)*%
X120904000Y-120396000D03*
X116332000Y-115824000D03*
X127000000Y-116332000D03*
%TO.N,I2S_BCK*%
X100584000Y-109332000D03*
X102708000Y-95253000D03*
X98044000Y-112522000D03*
X93726000Y-110236000D03*
X94234000Y-107696000D03*
X87376000Y-100838000D03*
%TO.N,I2S_SCK*%
X105410000Y-102362000D03*
X103632000Y-93218000D03*
X104648000Y-98298000D03*
%TO.N,I2S_LRCK*%
X100330000Y-108458000D03*
X85090000Y-98298000D03*
X99822000Y-117348000D03*
X103124000Y-94234000D03*
X94234000Y-117348000D03*
X89916000Y-116332000D03*
%TO.N,I2S_DIN*%
X104394000Y-99060000D03*
X105410000Y-94488000D03*
%TO.N,Net-(J4-CC1)*%
X106680000Y-127254000D03*
%TO.N,Net-(J4-CC2)*%
X110744000Y-127254000D03*
%TD*%
%TO.N,Net-(R17-Pad1)*%
D35*
X132203400Y-123596400D02*
X135647000Y-127040000D01*
X130474000Y-122713000D02*
X130474000Y-123596400D01*
X118995200Y-124790200D02*
X126820000Y-124790200D01*
X126820000Y-122713000D02*
X130474000Y-122713000D01*
X130474000Y-123596400D02*
X132203400Y-123596400D01*
X117856000Y-123651000D02*
X118995200Y-124790200D01*
X126820000Y-124790200D02*
X126820000Y-122713000D01*
%TO.N,3V3*%
X115396000Y-105240000D02*
X120019000Y-100617000D01*
X116546000Y-105240000D02*
X115396000Y-105240000D01*
X116546000Y-105337000D02*
X116546000Y-105240000D01*
X117183709Y-105337000D02*
X116546000Y-105337000D01*
X117383709Y-105137000D02*
X117183709Y-105337000D01*
X117820291Y-105137000D02*
X117383709Y-105137000D01*
X118129000Y-105445709D02*
X117820291Y-105137000D01*
X118129000Y-105882291D02*
X118129000Y-105445709D01*
X117820291Y-106191000D02*
X118129000Y-105882291D01*
X117383709Y-106191000D02*
X117820291Y-106191000D01*
X117183709Y-105991000D02*
X117383709Y-106191000D01*
X117367000Y-106207709D02*
X117150291Y-105991000D01*
X117367000Y-106644291D02*
X117367000Y-106207709D01*
X117167000Y-106844291D02*
X117367000Y-106644291D01*
X117150291Y-105991000D02*
X117183709Y-105991000D01*
X116546000Y-110794000D02*
X116546000Y-107956448D01*
X115604448Y-110794000D02*
X116546000Y-110794000D01*
X116546000Y-107956448D02*
X117167000Y-107335448D01*
X115219000Y-111179448D02*
X115604448Y-110794000D01*
X117167000Y-107335448D02*
X117167000Y-106844291D01*
X115219000Y-111267000D02*
X115219000Y-111179448D01*
X115719000Y-111767000D02*
X115219000Y-111267000D01*
%TO.N,Net-(D1-K)*%
X134061200Y-60401200D02*
X132588000Y-58928000D01*
X134061200Y-84531200D02*
X134061200Y-60401200D01*
X128089400Y-90503000D02*
X134061200Y-84531200D01*
X127201759Y-90503000D02*
X128089400Y-90503000D01*
X126483000Y-91221759D02*
X127201759Y-90503000D01*
X122689400Y-95903000D02*
X126483000Y-92109400D01*
X122437000Y-95903000D02*
X122689400Y-95903000D01*
X121718241Y-95003000D02*
X122437000Y-95721759D01*
X120701759Y-95003000D02*
X121718241Y-95003000D01*
X121135400Y-97457000D02*
X120701759Y-97457000D01*
X119560424Y-99031976D02*
X121135400Y-97457000D01*
X119983000Y-95721759D02*
X120701759Y-95003000D01*
X117579500Y-97051052D02*
X119560424Y-99031976D01*
X117579500Y-96119494D02*
X117579500Y-97051052D01*
X117167000Y-95847000D02*
X117307006Y-95847000D01*
X119983000Y-92238241D02*
X119983000Y-92057000D01*
X120701759Y-92957000D02*
X119983000Y-92238241D01*
X122437000Y-92238241D02*
X121718241Y-92957000D01*
X122437000Y-91221759D02*
X122437000Y-92238241D01*
X121718241Y-90503000D02*
X122437000Y-91221759D01*
X120701759Y-90503000D02*
X121718241Y-90503000D01*
X119983000Y-91221759D02*
X120701759Y-90503000D01*
X118446552Y-91403000D02*
X119983000Y-91403000D01*
X120701759Y-97457000D02*
X119983000Y-96738241D01*
X116513000Y-93336552D02*
X118446552Y-91403000D01*
X116100500Y-97428506D02*
X116100500Y-96119494D01*
X116372994Y-97701000D02*
X116100500Y-97428506D01*
X117304552Y-97701000D02*
X116372994Y-97701000D01*
X118717448Y-92057000D02*
X117167000Y-93607448D01*
X119097976Y-99494424D02*
X117304552Y-97701000D01*
X116127578Y-100117000D02*
X118475400Y-100117000D01*
X117167000Y-93607448D02*
X117167000Y-95847000D01*
X114892000Y-100990000D02*
X116069000Y-100990000D01*
X121718241Y-92957000D02*
X120701759Y-92957000D01*
X114892000Y-102027552D02*
X114892000Y-100990000D01*
X116513000Y-95847000D02*
X116513000Y-93336552D01*
X114653000Y-101788552D02*
X114892000Y-102027552D01*
X119983000Y-92057000D02*
X118717448Y-92057000D01*
X115482006Y-97701000D02*
X114653000Y-97701000D01*
X116069000Y-100175578D02*
X116127578Y-100117000D01*
X126483000Y-92109400D02*
X126483000Y-91221759D01*
X115754500Y-97428506D02*
X115482006Y-97701000D01*
X116069000Y-100990000D02*
X116069000Y-100175578D01*
X115754500Y-96119494D02*
X115754500Y-97428506D01*
X115482006Y-95847000D02*
X115754500Y-96119494D01*
X114547994Y-95847000D02*
X115482006Y-95847000D01*
X114275500Y-96119494D02*
X114547994Y-95847000D01*
X114275500Y-97051052D02*
X114275500Y-96119494D01*
X117307006Y-95847000D02*
X117579500Y-96119494D01*
X113999000Y-97327552D02*
X114275500Y-97051052D01*
X113999000Y-102059448D02*
X113999000Y-97327552D01*
X114892000Y-102844000D02*
X114783552Y-102844000D01*
X116100500Y-96119494D02*
X116372994Y-95847000D01*
X114892000Y-102970709D02*
X114892000Y-102844000D01*
X116372994Y-95847000D02*
X116513000Y-95847000D01*
X114772291Y-102851000D02*
X114892000Y-102970709D01*
X114783552Y-102844000D02*
X113999000Y-102059448D01*
X119983000Y-96738241D02*
X119983000Y-95721759D01*
X114027000Y-103159709D02*
X114335709Y-102851000D01*
X114027000Y-103596291D02*
X114027000Y-103159709D01*
X114227000Y-103796291D02*
X114027000Y-103596291D01*
X119983000Y-91403000D02*
X119983000Y-91221759D01*
X113999000Y-104593400D02*
X114227000Y-104365400D01*
X114653000Y-97701000D02*
X114653000Y-101788552D01*
X114227000Y-104365400D02*
X114227000Y-103796291D01*
X113999000Y-118364000D02*
X113999000Y-104593400D01*
X122437000Y-95721759D02*
X122437000Y-95903000D01*
X114335709Y-102851000D02*
X114772291Y-102851000D01*
X118475400Y-100117000D02*
X119097976Y-99494424D01*
%TO.N,I2C_SDA*%
X104121000Y-98420500D02*
X101703500Y-100838000D01*
X104321000Y-97879709D02*
X104121000Y-98079709D01*
X104321000Y-95099500D02*
X104321000Y-97879709D01*
X104121000Y-98079709D02*
X104121000Y-98420500D01*
X103235000Y-95099500D02*
X104321000Y-95099500D01*
X103235000Y-95034709D02*
X103235000Y-95099500D01*
X102961291Y-94761000D02*
X103235000Y-95034709D01*
X103342291Y-94761000D02*
X102961291Y-94761000D01*
X103651000Y-94452291D02*
X103342291Y-94761000D01*
X103651000Y-94015709D02*
X103651000Y-94452291D01*
X103342291Y-93707000D02*
X103651000Y-94015709D01*
X103059448Y-93707000D02*
X103342291Y-93707000D01*
X102913448Y-93561000D02*
X103059448Y-93707000D01*
X102708000Y-93561000D02*
X102913448Y-93561000D01*
X102708000Y-93372261D02*
X102708000Y-93561000D01*
X102207739Y-92872000D02*
X102708000Y-93372261D01*
X101746000Y-80018504D02*
X101746000Y-92872000D01*
X91498526Y-69771031D02*
X101746000Y-80018504D01*
X91854000Y-69415557D02*
X91498526Y-69771031D01*
X101746000Y-92872000D02*
X102207739Y-92872000D01*
X90450000Y-67430000D02*
X91031557Y-67430000D01*
X90450000Y-66294000D02*
X90450000Y-67430000D01*
X91031557Y-67430000D02*
X91854000Y-68252443D01*
X91854000Y-68252443D02*
X91854000Y-69415557D01*
%TO.N,I2S_LRCK*%
X102778000Y-93888000D02*
X103124000Y-94234000D01*
X102381000Y-93888000D02*
X102778000Y-93888000D01*
X102381000Y-93507709D02*
X102381000Y-93888000D01*
X102072291Y-93199000D02*
X102381000Y-93507709D01*
X101635709Y-93199000D02*
X102072291Y-93199000D01*
X101419000Y-93415709D02*
X101635709Y-93199000D01*
X91527000Y-69280109D02*
X91036078Y-69771031D01*
X91527000Y-68387891D02*
X91527000Y-69280109D01*
X101419000Y-80153952D02*
X101419000Y-93415709D01*
X90896109Y-67757000D02*
X91527000Y-68387891D01*
X91036078Y-69771031D02*
X101419000Y-80153952D01*
X90003891Y-67757000D02*
X90896109Y-67757000D01*
X88722200Y-69038691D02*
X90003891Y-67757000D01*
X88722200Y-90526959D02*
X88722200Y-69038691D01*
X89417000Y-91221759D02*
X88722200Y-90526959D01*
X88722200Y-92933041D02*
X89417000Y-92238241D01*
X87681759Y-95003000D02*
X88385000Y-95003000D01*
X88385000Y-95003000D02*
X88722200Y-94665800D01*
X88722200Y-94665800D02*
X88722200Y-92933041D01*
X86963000Y-95721759D02*
X87681759Y-95003000D01*
X86963000Y-96425000D02*
X86963000Y-95721759D01*
X89417000Y-92238241D02*
X89417000Y-91221759D01*
X85090000Y-98298000D02*
X86963000Y-96425000D01*
%TO.N,I2C_SCL*%
X101092000Y-80289400D02*
X101092000Y-95758000D01*
X90450000Y-69647400D02*
X101092000Y-80289400D01*
X90450000Y-68834000D02*
X90450000Y-69647400D01*
%TO.N,Net-(U2-CAPM)*%
X136398000Y-96774000D02*
X136398000Y-96012000D01*
X131996000Y-101176000D02*
X136398000Y-96774000D01*
X131996000Y-110758422D02*
X131996000Y-101176000D01*
X131869000Y-110758422D02*
X131996000Y-110758422D01*
X131869000Y-110325578D02*
X131869000Y-110758422D01*
X130377578Y-110267000D02*
X131810422Y-110267000D01*
X130319000Y-110325578D02*
X130377578Y-110267000D01*
X130319000Y-114994000D02*
X129642000Y-114994000D01*
X130319000Y-115392200D02*
X130319000Y-114994000D01*
X120218200Y-115392200D02*
X130319000Y-115392200D01*
X118637000Y-116904552D02*
X118671424Y-116938976D01*
X117583000Y-116621709D02*
X117891709Y-116313000D01*
X117583000Y-117058291D02*
X117583000Y-116621709D01*
X117891709Y-117367000D02*
X117583000Y-117058291D01*
X117762755Y-117847645D02*
X118208976Y-117401424D01*
X129642000Y-114994000D02*
X129642000Y-113240000D01*
X116594355Y-117847645D02*
X117762755Y-117847645D01*
X118637000Y-116621709D02*
X118637000Y-116904552D01*
X116563500Y-117878500D02*
X116594355Y-117847645D01*
X117891709Y-116313000D02*
X118328291Y-116313000D01*
X116563500Y-119018506D02*
X116563500Y-117878500D01*
X116291006Y-119291000D02*
X116563500Y-119018506D01*
X118174552Y-117367000D02*
X117891709Y-117367000D01*
X115253997Y-119188003D02*
X115356994Y-119291000D01*
X114210291Y-120577000D02*
X114037646Y-120404354D01*
X115197261Y-120577000D02*
X114210291Y-120577000D01*
X116879485Y-118894776D02*
X115197261Y-120577000D01*
X116821000Y-118836291D02*
X116879485Y-118894776D01*
X116821000Y-118399709D02*
X116821000Y-118836291D01*
X117566291Y-118091000D02*
X117129709Y-118091000D01*
X117875000Y-118399709D02*
X117566291Y-118091000D01*
X117875000Y-118836291D02*
X117875000Y-118399709D01*
X114037646Y-120404354D02*
X115253997Y-119188003D01*
X117875000Y-119415709D02*
X117585291Y-119126000D01*
X129642000Y-113240000D02*
X130319000Y-113240000D01*
X117283448Y-120161000D02*
X117566291Y-120161000D01*
X131810422Y-110267000D02*
X131869000Y-110325578D01*
X112815227Y-124629221D02*
X117283448Y-120161000D01*
X118671424Y-116938976D02*
X120218200Y-115392200D01*
X112735006Y-124549000D02*
X112815227Y-124629221D01*
X111803448Y-124549000D02*
X112735006Y-124549000D01*
X115356994Y-119291000D02*
X116291006Y-119291000D01*
X111476448Y-124222000D02*
X111803448Y-124549000D01*
X109503552Y-124222000D02*
X111476448Y-124222000D01*
X108522552Y-125203000D02*
X109503552Y-124222000D01*
X118208976Y-117401424D02*
X118174552Y-117367000D01*
X108239709Y-125203000D02*
X108522552Y-125203000D01*
X130319000Y-113240000D02*
X130319000Y-110325578D01*
X108223000Y-125219709D02*
X108239709Y-125203000D01*
X108223000Y-125003709D02*
X108223000Y-125219709D01*
X107914291Y-124695000D02*
X108223000Y-125003709D01*
X107631448Y-124695000D02*
X107914291Y-124695000D01*
X107158448Y-124222000D02*
X107631448Y-124695000D01*
X95816046Y-124222000D02*
X107158448Y-124222000D01*
X95166000Y-123571954D02*
X95816046Y-124222000D01*
X95166000Y-107261000D02*
X95166000Y-123571954D01*
X97117709Y-107261000D02*
X95166000Y-107261000D01*
X117875000Y-119852291D02*
X117875000Y-119415709D01*
X117585291Y-119126000D02*
X117875000Y-118836291D01*
X97754291Y-107461000D02*
X97317709Y-107461000D01*
X118328291Y-116313000D02*
X118637000Y-116621709D01*
X98063000Y-107152291D02*
X97754291Y-107461000D01*
X98063000Y-106715709D02*
X98063000Y-107152291D01*
X117129709Y-118091000D02*
X116821000Y-118399709D01*
X97773291Y-106426000D02*
X98063000Y-106715709D01*
X97317709Y-107461000D02*
X97117709Y-107261000D01*
X117566291Y-120161000D02*
X117875000Y-119852291D01*
X97536000Y-105959000D02*
X97773291Y-106196291D01*
X97773291Y-106196291D02*
X97773291Y-106426000D01*
%TO.N,3V3*%
X108007948Y-94018948D02*
X108007948Y-94996000D01*
X118249500Y-132437500D02*
X121147000Y-129540000D01*
X116929000Y-128689000D02*
X116929000Y-130054006D01*
X103124000Y-122428000D02*
X103886000Y-122428000D01*
X103378000Y-104705948D02*
X103378000Y-107696000D01*
X105410000Y-125476000D02*
X105683000Y-125749000D01*
X110983500Y-115913000D02*
X111910500Y-116840000D01*
X103528500Y-100838000D02*
X102601500Y-101765000D01*
X120019000Y-99953000D02*
X120019000Y-100617000D01*
X130369000Y-100617000D02*
X130369000Y-98532000D01*
X107969000Y-93980000D02*
X108007948Y-94018948D01*
X101600000Y-101765000D02*
X99403000Y-101765000D01*
X109346000Y-120239500D02*
X109346000Y-116185494D01*
X81934506Y-120164500D02*
X80625494Y-120164500D01*
X125984000Y-118110000D02*
X130154000Y-118110000D01*
X120746000Y-99890000D02*
X120019000Y-100617000D01*
X108458000Y-125730000D02*
X109639000Y-124549000D01*
X108007948Y-94996000D02*
X106680000Y-96323948D01*
X130369000Y-98532000D02*
X132080000Y-96821000D01*
X98917000Y-106856554D02*
X100632603Y-106856554D01*
X81934506Y-121643500D02*
X82207000Y-121371006D01*
X115719000Y-104717000D02*
X115969000Y-104717000D01*
X100632603Y-106856554D02*
X103117933Y-104371224D01*
X116840000Y-96774000D02*
X120019000Y-99953000D01*
X80353000Y-120436994D02*
X80353000Y-121371006D01*
X106680000Y-99060000D02*
X104902000Y-100838000D01*
X80353000Y-121371006D02*
X80625494Y-121643500D01*
X130819000Y-117445000D02*
X130392000Y-117872000D01*
X109618494Y-115913000D02*
X110983500Y-115913000D01*
X80625494Y-120164500D02*
X80353000Y-120436994D01*
X109346000Y-116185494D02*
X109618494Y-115913000D01*
X107969000Y-93980000D02*
X111506000Y-93980000D01*
X120147000Y-130540000D02*
X121147000Y-129540000D01*
X99107000Y-99568000D02*
X98448500Y-99568000D01*
X80625494Y-121643500D02*
X81934506Y-121643500D01*
X104648000Y-107338500D02*
X105259500Y-107338500D01*
X108966000Y-122936000D02*
X108966000Y-122456500D01*
X103117933Y-104371224D02*
X103305000Y-104558291D01*
X104290500Y-107696000D02*
X104648000Y-107338500D01*
X86571181Y-131191000D02*
X88265000Y-131191000D01*
X119126000Y-81280000D02*
X122174000Y-81280000D01*
X100964000Y-101492506D02*
X100964000Y-97711000D01*
X101600000Y-101765000D02*
X101236494Y-101765000D01*
X117348000Y-83058000D02*
X119126000Y-81280000D01*
X108966000Y-122456500D02*
X110264500Y-121158000D01*
X103305000Y-104558291D02*
X103305000Y-104632948D01*
X82207000Y-120577000D02*
X82207000Y-120436994D01*
X117414994Y-130540000D02*
X120147000Y-130540000D01*
X83432000Y-121231000D02*
X84582000Y-122381000D01*
X105259500Y-107338500D02*
X105918000Y-106680000D01*
X130819000Y-114117000D02*
X130819000Y-117445000D01*
X103305000Y-104632948D02*
X103378000Y-104705948D01*
X81280000Y-119079000D02*
X82778000Y-120577000D01*
X104648000Y-112776000D02*
X103632000Y-113792000D01*
X112268000Y-125476000D02*
X112268000Y-129608000D01*
X82207000Y-120436994D02*
X81934506Y-120164500D01*
X102601500Y-101765000D02*
X101600000Y-101765000D01*
X84582000Y-122381000D02*
X84582000Y-129201819D01*
X116840000Y-96774000D02*
X116840000Y-93472000D01*
X117856000Y-125476000D02*
X117856000Y-127762000D01*
X111506000Y-94234000D02*
X112776000Y-94234000D01*
X82207000Y-121371006D02*
X82207000Y-121231000D01*
X120019000Y-100667000D02*
X120019000Y-100617000D01*
X134874000Y-113726000D02*
X130728000Y-117872000D01*
X100964000Y-97711000D02*
X101092000Y-97583000D01*
X104855000Y-88599000D02*
X105410000Y-89154000D01*
X117856000Y-127762000D02*
X116929000Y-128689000D01*
X103886000Y-122428000D02*
X105664000Y-120650000D01*
X101092000Y-97583000D02*
X99107000Y-99568000D01*
X118582000Y-91730000D02*
X121210000Y-91730000D01*
X104902000Y-100838000D02*
X103528500Y-100838000D01*
X110264500Y-121158000D02*
X109346000Y-120239500D01*
X116929000Y-130054006D02*
X117414994Y-130540000D01*
X105683000Y-125749000D02*
X108439000Y-125749000D01*
X110298000Y-123382000D02*
X110744000Y-122936000D01*
X117856000Y-132437500D02*
X118249500Y-132437500D01*
X130154000Y-118110000D02*
X130392000Y-117872000D01*
X108966000Y-122936000D02*
X109412000Y-123382000D01*
X84582000Y-129201819D02*
X86571181Y-131191000D01*
X129642000Y-99890000D02*
X120746000Y-99890000D01*
X82207000Y-121231000D02*
X83432000Y-121231000D01*
X109412000Y-123382000D02*
X110298000Y-123382000D01*
X101236494Y-101765000D02*
X100964000Y-101492506D01*
X111506000Y-93980000D02*
X111506000Y-94234000D01*
X106680000Y-96323948D02*
X106680000Y-99060000D01*
X103378000Y-107696000D02*
X104290500Y-107696000D01*
X111341000Y-124549000D02*
X112268000Y-125476000D01*
X115969000Y-104717000D02*
X120019000Y-100667000D01*
X104855000Y-87122000D02*
X104855000Y-88599000D01*
X112268000Y-129608000D02*
X112270000Y-129610000D01*
X130369000Y-100617000D02*
X129642000Y-99890000D01*
X82778000Y-120577000D02*
X82207000Y-120577000D01*
X130728000Y-117872000D02*
X130392000Y-117872000D01*
X103632000Y-113792000D02*
X103632000Y-114554000D01*
X116840000Y-93472000D02*
X118582000Y-91730000D01*
X134874000Y-111826000D02*
X133110000Y-111826000D01*
X133110000Y-111826000D02*
X130819000Y-114117000D01*
X108439000Y-125749000D02*
X108458000Y-125730000D01*
X109639000Y-124549000D02*
X111341000Y-124549000D01*
%TO.N,BTN_NEXT*%
X96623500Y-99568000D02*
X96623500Y-98163500D01*
X96623500Y-98163500D02*
X94690000Y-96230000D01*
%TO.N,VBAT*%
X113792000Y-120904000D02*
X115332709Y-120904000D01*
X117348000Y-118888709D02*
X117348000Y-118618000D01*
X106680000Y-112014000D02*
X106680000Y-115062000D01*
X113538000Y-121158000D02*
X113792000Y-120904000D01*
X89408000Y-114808000D02*
X92456000Y-114808000D01*
X92456000Y-114808000D02*
X94488000Y-112776000D01*
X112164500Y-121158000D02*
X113538000Y-121158000D01*
X115332709Y-120904000D02*
X117348000Y-118888709D01*
%TO.N,Net-(J1-VDD)*%
X115415000Y-106917000D02*
X114554000Y-106056000D01*
X118872000Y-93726000D02*
X118364000Y-93218000D01*
X114554000Y-106056000D02*
X114554000Y-103378000D01*
X118872000Y-96012000D02*
X118872000Y-93726000D01*
X115719000Y-106917000D02*
X115415000Y-106917000D01*
%TO.N,Net-(U2-CAPP)*%
X93726000Y-103378000D02*
X93726000Y-104902000D01*
X94488000Y-102616000D02*
X93726000Y-103378000D01*
X103632000Y-102616000D02*
X94488000Y-102616000D01*
%TO.N,Net-(U2-OUTL)*%
X96774000Y-112014000D02*
X96774000Y-114554000D01*
X97282000Y-111506000D02*
X96774000Y-112014000D01*
X100584000Y-105156000D02*
X95187739Y-105156000D01*
X95342000Y-105310261D02*
X95342000Y-106017739D01*
X97642833Y-108362926D02*
X97282000Y-108723759D01*
X95187739Y-105156000D02*
X95342000Y-105310261D01*
X95342000Y-106017739D02*
X94425739Y-106934000D01*
X94425739Y-106934000D02*
X97536000Y-106934000D01*
X97282000Y-108723759D02*
X97282000Y-111506000D01*
%TO.N,DAC_OUTL*%
X107190291Y-111487000D02*
X101741000Y-111487000D01*
X101741000Y-111487000D02*
X98674000Y-114554000D01*
X112795000Y-104008500D02*
X112795000Y-105882291D01*
X112164500Y-103378000D02*
X112795000Y-104008500D01*
X112795000Y-105882291D02*
X107190291Y-111487000D01*
%TO.N,DAC_OUTR*%
X90170000Y-100330000D02*
X91797500Y-100330000D01*
X91797500Y-100330000D02*
X91948000Y-100179500D01*
%TO.N,Net-(U2-VNEG)*%
X93726000Y-106426000D02*
X94488000Y-105664000D01*
X88646000Y-106426000D02*
X93726000Y-106426000D01*
X80264000Y-98044000D02*
X88646000Y-106426000D01*
X80264000Y-97282000D02*
X80264000Y-98044000D01*
%TO.N,VO1*%
X111751646Y-109990354D02*
X111760000Y-109982000D01*
X99833000Y-121655000D02*
X106180355Y-115307645D01*
X109493506Y-111486494D02*
X110126494Y-110853506D01*
X112776000Y-109982000D02*
X113284000Y-109474000D01*
X107007000Y-114481000D02*
X107958355Y-113529645D01*
X109493506Y-112121494D02*
X109493506Y-111486494D01*
X110126494Y-110853506D02*
X110888494Y-110853506D01*
X106898291Y-115589000D02*
X107207000Y-115280291D01*
X113449000Y-100495000D02*
X113449000Y-107785000D01*
X111779000Y-110017709D02*
X111751646Y-109990354D01*
X106180355Y-115307645D02*
X106461709Y-115589000D01*
X106461709Y-115589000D02*
X106898291Y-115589000D01*
X108731000Y-113248291D02*
X108731000Y-112884000D01*
X113030000Y-100076000D02*
X113449000Y-100495000D01*
X110888494Y-110853506D02*
X111006355Y-110735645D01*
X107007000Y-114643708D02*
X107007000Y-114481000D01*
X113449000Y-107785000D02*
X113284000Y-107950000D01*
X111470291Y-110763000D02*
X111779000Y-110454291D01*
X107207000Y-115280291D02*
X107207000Y-114843709D01*
X111779000Y-110454291D02*
X111779000Y-110017709D01*
X111006355Y-110735645D02*
X111033709Y-110763000D01*
X97547000Y-121655000D02*
X99833000Y-121655000D01*
X107207000Y-114843709D02*
X107007000Y-114643708D01*
X96520000Y-122682000D02*
X97547000Y-121655000D01*
X108731000Y-112884000D02*
X109493506Y-112121494D01*
X107958355Y-113529645D02*
X107985709Y-113557000D01*
X113284000Y-109474000D02*
X113284000Y-107950000D01*
X111033709Y-110763000D02*
X111470291Y-110763000D01*
X111760000Y-109982000D02*
X112776000Y-109982000D01*
X107985709Y-113557000D02*
X108422291Y-113557000D01*
X108422291Y-113557000D02*
X108731000Y-113248291D01*
%TO.N,VO2*%
X110888494Y-111849000D02*
X110236000Y-112501494D01*
X112522000Y-112548494D02*
X111822506Y-111849000D01*
X113180500Y-113895500D02*
X112522000Y-114554000D01*
X113180500Y-112776000D02*
X113180500Y-113895500D01*
X111822506Y-111849000D02*
X110888494Y-111849000D01*
X112522000Y-114554000D02*
X112522000Y-112548494D01*
X110236000Y-112501494D02*
X110236000Y-112522000D01*
%TO.N,VDD*%
X106680000Y-119634000D02*
X105410000Y-118364000D01*
X106680000Y-121920000D02*
X106680000Y-119634000D01*
X119634000Y-121158000D02*
X118618000Y-120142000D01*
X118618000Y-120142000D02*
X118618000Y-117348000D01*
X118618000Y-117348000D02*
X118110000Y-116840000D01*
%TO.N,Net-(J1-DAT2)*%
X114892000Y-111044000D02*
X114892000Y-118865006D01*
X112625500Y-119380000D02*
X110085500Y-116840000D01*
X114377006Y-119380000D02*
X112625500Y-119380000D01*
X115719000Y-110217000D02*
X114892000Y-111044000D01*
X114892000Y-118865006D02*
X114377006Y-119380000D01*
%TO.N,Net-(J1-DAT1)*%
X115015000Y-96774000D02*
X114326000Y-97463000D01*
X114326000Y-97463000D02*
X114326000Y-101924000D01*
X114326000Y-101924000D02*
X114919000Y-102517000D01*
X114919000Y-102517000D02*
X115719000Y-102517000D01*
%TO.N,GPIO11*%
X106153000Y-104413000D02*
X106153000Y-105120291D01*
X106461709Y-105429000D02*
X111233000Y-105429000D01*
X106153000Y-105120291D02*
X106461709Y-105429000D01*
X116840000Y-107200000D02*
X116023000Y-108017000D01*
X116023000Y-108017000D02*
X115719000Y-108017000D01*
X106680000Y-103886000D02*
X106153000Y-104413000D01*
X116840000Y-106426000D02*
X116840000Y-107200000D01*
%TO.N,GPIO10*%
X106680000Y-104902000D02*
X108730506Y-104902000D01*
X113122000Y-101908006D02*
X113122000Y-107350000D01*
X109600000Y-104032506D02*
X109600000Y-100286994D01*
X109600000Y-100286994D02*
X110737994Y-99149000D01*
X111672006Y-99149000D02*
X111944500Y-99421494D01*
X113122000Y-107350000D02*
X111252000Y-109220000D01*
X111944500Y-99421494D02*
X111944500Y-100730506D01*
X111252000Y-109220000D02*
X111252000Y-110236000D01*
X108730506Y-104902000D02*
X109600000Y-104032506D01*
X110737994Y-99149000D02*
X111672006Y-99149000D01*
X114554000Y-108458000D02*
X115213000Y-109117000D01*
X111944500Y-100730506D02*
X113122000Y-101908006D01*
X115213000Y-109117000D02*
X115719000Y-109117000D01*
%TO.N,GPIO12*%
X115872000Y-105664000D02*
X115719000Y-105817000D01*
X117602000Y-105664000D02*
X115872000Y-105664000D01*
%TO.N,GPIO13*%
X116093000Y-103617000D02*
X115719000Y-103617000D01*
X117094000Y-102616000D02*
X116093000Y-103617000D01*
X117094000Y-102362000D02*
X117094000Y-102616000D01*
%TO.N,HP_DETECT*%
X86952000Y-120904000D02*
X88265000Y-119591000D01*
X81280000Y-120904000D02*
X86952000Y-120904000D01*
%TO.N,USB_DN*%
X103413709Y-102089000D02*
X103213709Y-102289000D01*
X98063000Y-105740709D02*
X97805291Y-105483000D01*
X101111000Y-105374291D02*
X101111000Y-104937709D01*
X95493000Y-107588000D02*
X96982261Y-107588000D01*
X104268000Y-101492506D02*
X104268000Y-101165000D01*
X97889739Y-107788000D02*
X98390000Y-107287739D01*
X100365709Y-104629000D02*
X100165709Y-104829000D01*
X97355000Y-104829000D02*
X99241000Y-102943000D01*
X97182261Y-107788000D02*
X97889739Y-107788000D01*
X108472421Y-124790683D02*
X108049739Y-124368000D01*
X109220000Y-99260000D02*
X109220000Y-99060000D01*
X103850291Y-102089000D02*
X103413709Y-102089000D01*
X95493000Y-123436506D02*
X95493000Y-107588000D01*
X107877000Y-100249261D02*
X108112000Y-100014261D01*
X103850291Y-103143000D02*
X104159000Y-102834291D01*
X103213709Y-102289000D02*
X99895000Y-102289000D01*
X100092000Y-102092000D02*
X102736948Y-102092000D01*
X108866261Y-99260000D02*
X109220000Y-99260000D01*
X103413709Y-103143000D02*
X103850291Y-103143000D01*
X108650261Y-99476000D02*
X108866261Y-99260000D01*
X100802291Y-105683000D02*
X101111000Y-105374291D01*
X117348000Y-119634000D02*
X112760000Y-124222000D01*
X98390000Y-107287739D02*
X98390000Y-106580261D01*
X109368104Y-123895000D02*
X108472421Y-124790683D01*
X98100291Y-106290552D02*
X98100291Y-106060843D01*
X107877000Y-100565709D02*
X107877000Y-100249261D01*
X107766896Y-124368000D02*
X107293896Y-123895000D01*
X103063948Y-101765000D02*
X103995506Y-101765000D01*
X112760000Y-124222000D02*
X111938896Y-124222000D01*
X108112000Y-99976261D02*
X108612261Y-99476000D01*
X108049739Y-124368000D02*
X107766896Y-124368000D01*
X97805291Y-105483000D02*
X100165709Y-105483000D01*
X105037448Y-101165000D02*
X105110448Y-101092000D01*
X100165709Y-105483000D02*
X100365709Y-105683000D01*
X107677709Y-100765000D02*
X107877000Y-100565709D01*
X104268000Y-101165000D02*
X105037448Y-101165000D01*
X99895000Y-102289000D02*
X100092000Y-102092000D01*
X100165709Y-104829000D02*
X97355000Y-104829000D01*
X98063000Y-106023552D02*
X98063000Y-105740709D01*
X103213709Y-102943000D02*
X103413709Y-103143000D01*
X111938896Y-124222000D02*
X111611896Y-123895000D01*
X104159000Y-102397709D02*
X103850291Y-102089000D01*
X99241000Y-102943000D02*
X103213709Y-102943000D01*
X111611896Y-123895000D02*
X109368104Y-123895000D01*
X96982261Y-107588000D02*
X97182261Y-107788000D01*
X100802291Y-104629000D02*
X100365709Y-104629000D01*
X100365709Y-105683000D02*
X100802291Y-105683000D01*
X95951494Y-123895000D02*
X95493000Y-123436506D01*
X102736948Y-102092000D02*
X103063948Y-101765000D01*
X105472261Y-101092000D02*
X105799261Y-100765000D01*
X107293896Y-123895000D02*
X95951494Y-123895000D01*
X98100291Y-106060843D02*
X98063000Y-106023552D01*
X105799261Y-100765000D02*
X107677709Y-100765000D01*
X98390000Y-106580261D02*
X98100291Y-106290552D01*
X108112000Y-100014261D02*
X108112000Y-99976261D01*
X101111000Y-104937709D02*
X100802291Y-104629000D01*
X105110448Y-101092000D02*
X105472261Y-101092000D01*
X108612261Y-99476000D02*
X108650261Y-99476000D01*
X103995506Y-101765000D02*
X104268000Y-101492506D01*
X104159000Y-102834291D02*
X104159000Y-102397709D01*
%TO.N,BTN_PLAY*%
X127710000Y-96230000D02*
X121210000Y-96230000D01*
X128944000Y-94996000D02*
X127710000Y-96230000D01*
X132080000Y-94996000D02*
X128944000Y-94996000D01*
%TO.N,Net-(U1-CHIP_PU)*%
X106680000Y-91440000D02*
X106680000Y-87122000D01*
%TO.N,DAC_MUTE*%
X104486000Y-102540709D02*
X104486000Y-103521000D01*
X108593448Y-97971000D02*
X109155448Y-98533000D01*
X108439000Y-100111709D02*
X108439000Y-100149709D01*
X103632000Y-104497500D02*
X104648000Y-105513500D01*
X105934709Y-101092000D02*
X104486000Y-102540709D01*
X108204000Y-100384709D02*
X108204000Y-101092000D01*
X107696000Y-98806000D02*
X108531000Y-97971000D01*
X108531000Y-97971000D02*
X108593448Y-97971000D01*
X109155448Y-98533000D02*
X109438291Y-98533000D01*
X104486000Y-103521000D02*
X104375000Y-103632000D01*
X109747000Y-99278291D02*
X109438291Y-99587000D01*
X108747709Y-99803000D02*
X108439000Y-100111709D01*
X109438291Y-98533000D02*
X109747000Y-98841709D01*
X103632000Y-104140000D02*
X103632000Y-104497500D01*
X109438291Y-99587000D02*
X109001709Y-99587000D01*
X109001709Y-99587000D02*
X108785709Y-99803000D01*
X109747000Y-98841709D02*
X109747000Y-99278291D01*
X108785709Y-99803000D02*
X108747709Y-99803000D01*
X108439000Y-100149709D02*
X108204000Y-100384709D01*
X108204000Y-101092000D02*
X105934709Y-101092000D01*
%TO.N,Net-(U3-IN2-)*%
X88881000Y-112016291D02*
X88881000Y-117749402D01*
X108204000Y-111506000D02*
X108204000Y-113030000D01*
X108458000Y-114300000D02*
X108458000Y-115673500D01*
X111355500Y-113434500D02*
X111355500Y-112776000D01*
X108458000Y-115673500D02*
X109116500Y-115673500D01*
X93307709Y-106099000D02*
X94269709Y-105137000D01*
X91948000Y-106099000D02*
X93307709Y-106099000D01*
X105918000Y-110490000D02*
X106172000Y-110744000D01*
X95015000Y-105882291D02*
X88881000Y-112016291D01*
X105918000Y-109220000D02*
X105918000Y-110490000D01*
X108204000Y-122174000D02*
X108204000Y-115927500D01*
X107023000Y-124549000D02*
X107696000Y-125222000D01*
X108204000Y-115927500D02*
X108458000Y-115673500D01*
X94706291Y-105137000D02*
X95015000Y-105445709D01*
X91948000Y-102004500D02*
X91948000Y-106099000D01*
X94269709Y-105137000D02*
X94706291Y-105137000D01*
X95015000Y-105445709D02*
X95015000Y-105882291D01*
X109116500Y-115673500D02*
X111355500Y-113434500D01*
X95680598Y-124549000D02*
X107023000Y-124549000D01*
X88881000Y-117749402D02*
X95680598Y-124549000D01*
%TO.N,Net-(U3-IN1-)*%
X110339500Y-103378000D02*
X110339500Y-100941500D01*
X110339500Y-103735500D02*
X112268000Y-105664000D01*
X110339500Y-103378000D02*
X110339500Y-103735500D01*
X110339500Y-100941500D02*
X111205000Y-100076000D01*
%TO.N,AMP_ENABLE*%
X105680709Y-108712000D02*
X105156000Y-108712000D01*
X105645000Y-110962291D02*
X105645000Y-110679448D01*
X105391000Y-109438291D02*
X105391000Y-109001709D01*
X105645000Y-110679448D02*
X105591000Y-110625448D01*
X105591000Y-109638291D02*
X105391000Y-109438291D01*
X99807494Y-112014000D02*
X100751552Y-112014000D01*
X101807000Y-114554000D02*
X100855000Y-115506000D01*
X100855000Y-115506000D02*
X98219494Y-115506000D01*
X108966000Y-103378000D02*
X108966000Y-100330000D01*
X97947000Y-113874494D02*
X99807494Y-112014000D01*
X97947000Y-115233506D02*
X97947000Y-113874494D01*
X105842709Y-111160000D02*
X105645000Y-110962291D01*
X105391000Y-109001709D02*
X105680709Y-108712000D01*
X101605552Y-111160000D02*
X105842709Y-111160000D01*
X105591000Y-110625448D02*
X105591000Y-109638291D01*
X100751552Y-112014000D02*
X101605552Y-111160000D01*
X98219494Y-115506000D02*
X97947000Y-115233506D01*
%TO.N,I2C_SCL*%
X101854000Y-93726000D02*
X101092000Y-94488000D01*
X101092000Y-94488000D02*
X101092000Y-95758000D01*
%TO.N,I2C_SDA*%
X101703500Y-100838000D02*
X101703500Y-99718500D01*
X101703500Y-99718500D02*
X103632000Y-97790000D01*
%TO.N,ENC_A*%
X117856000Y-129587000D02*
X118600000Y-129587000D01*
X118600000Y-129587000D02*
X121147000Y-127040000D01*
%TO.N,ENC_B*%
X118924500Y-134262500D02*
X121147000Y-132040000D01*
X117856000Y-134262500D02*
X118924500Y-134262500D01*
%TO.N,Net-(U5-PROG)*%
X124159000Y-118110000D02*
X124159000Y-117301000D01*
X124159000Y-117301000D02*
X123190000Y-116332000D01*
%TO.N,Net-(U5-STAT)*%
X115824000Y-118364000D02*
X115824000Y-116332000D01*
X125244500Y-117455494D02*
X126367994Y-116332000D01*
X125244500Y-118418506D02*
X125244500Y-117455494D01*
X120904000Y-120396000D02*
X121920000Y-120396000D01*
X126367994Y-116332000D02*
X127000000Y-116332000D01*
X121920000Y-120396000D02*
X122593503Y-121069503D01*
X115824000Y-116332000D02*
X116332000Y-115824000D01*
X122593503Y-121069503D02*
X125244500Y-118418506D01*
%TO.N,I2S_BCK*%
X100076000Y-109840000D02*
X100076000Y-110490000D01*
X97282000Y-90678000D02*
X95917000Y-92043000D01*
X95198241Y-92957000D02*
X95003000Y-92957000D01*
X100584000Y-109332000D02*
X100076000Y-109840000D01*
X102381000Y-95580000D02*
X102381000Y-95863006D01*
X102708000Y-95253000D02*
X102381000Y-95580000D01*
X95917000Y-92238241D02*
X95198241Y-92957000D01*
X100076000Y-110490000D02*
X98044000Y-112522000D01*
X97282000Y-93018506D02*
X97282000Y-90678000D01*
X100165000Y-95901506D02*
X97282000Y-93018506D01*
X101746506Y-96497500D02*
X100437494Y-96497500D01*
X93726000Y-108204000D02*
X94234000Y-107696000D01*
X95917000Y-92043000D02*
X95917000Y-92238241D01*
X102381000Y-95863006D02*
X101746506Y-96497500D01*
X100165000Y-96225006D02*
X100165000Y-95901506D01*
X93726000Y-110236000D02*
X93726000Y-108204000D01*
X90757000Y-97457000D02*
X87376000Y-100838000D01*
X100437494Y-96497500D02*
X100165000Y-96225006D01*
X95003000Y-92957000D02*
X90757000Y-97203000D01*
X90757000Y-97203000D02*
X90757000Y-97457000D01*
%TO.N,I2S_SCK*%
X104648000Y-94234000D02*
X103632000Y-93218000D01*
X104648000Y-98298000D02*
X104648000Y-94234000D01*
%TO.N,I2S_LRCK*%
X97825709Y-111995000D02*
X97517000Y-112303709D01*
X97517000Y-112303709D02*
X97517000Y-115265954D01*
X90932000Y-117348000D02*
X89916000Y-116332000D01*
X97825709Y-110962291D02*
X97825709Y-111995000D01*
X97517000Y-115265954D02*
X99599046Y-117348000D01*
X94234000Y-117348000D02*
X90932000Y-117348000D01*
X99599046Y-117348000D02*
X99822000Y-117348000D01*
X100330000Y-108458000D02*
X97825709Y-110962291D01*
%TO.N,I2S_DIN*%
X104394000Y-99060000D02*
X105410000Y-99060000D01*
X105410000Y-99060000D02*
X105410000Y-94488000D01*
%TO.N,Net-(J4-CC1)*%
X103585000Y-127254000D02*
X106680000Y-127254000D01*
X103585000Y-125476000D02*
X103585000Y-127254000D01*
%TO.N,Net-(J4-CC2)*%
X110744000Y-127254000D02*
X110744000Y-125777000D01*
X110744000Y-125777000D02*
X110443000Y-125476000D01*
%TD*%
M02*
